<svg width="96" height="50" viewBox="0 0 96 50" fill="none" xmlns="http://www.w3.org/2000/svg">
<path d="M59.5395 0.00203692C60.0304 0.446085 59.9795 0.904392 59.6658 1.44825C58.849 2.85983 58.0892 4.30401 57.2724 5.71559C57.0423 6.11279 57.1034 6.29204 57.4843 6.52017C60.5315 8.34322 62.8291 10.869 64.4342 14.0323C65.137 15.4174 65.6319 16.8738 65.9619 18.3873C66.1371 19.1878 65.6951 19.8742 64.9007 20.0514C64.6705 20.1023 64.4261 20.1044 64.1878 20.1044C53.3901 20.1044 42.5924 20.1044 31.7947 20.1064C31.3078 20.1064 30.8414 20.0799 30.4564 19.7174C30.0286 19.3161 29.9227 18.8293 30.0511 18.2875C31.2304 13.3398 33.9355 9.46352 38.215 6.69739C38.9829 6.20241 38.989 6.20649 38.5674 5.44265C37.8097 4.0718 37.0642 2.69484 36.2881 1.33418C35.9724 0.784213 36.007 0.354424 36.5509 0C36.726 0 36.8992 0 37.0743 0C37.2964 0.264799 37.5123 0.527562 37.6793 0.835136C38.435 2.23043 39.2253 3.60738 39.9627 5.01286C40.1949 5.45487 40.4088 5.53431 40.8671 5.3245C42.5618 4.54844 44.3604 4.10643 46.2058 3.94755C49.304 3.68071 52.3227 4.06161 55.1866 5.34487C55.6368 5.54653 55.8262 5.41617 56.0381 5.01897C56.806 3.5809 57.6126 2.16321 58.3948 0.73329C58.5536 0.442011 58.741 0.18536 59.0201 0.00203692C59.1912 0.00203692 59.3664 0.00203692 59.5395 0.00203692ZM57.9385 12.4333C57.9426 11.6247 57.2072 10.8934 56.3945 10.8955C55.5757 10.8995 54.8485 11.6227 54.8505 12.4333C54.8526 13.2502 55.5736 13.9692 56.3925 13.9712C57.2032 13.9753 57.9344 13.2481 57.9385 12.4333ZM41.136 12.4476C41.14 11.6043 40.4597 10.8995 39.6307 10.8873C38.8098 10.8751 38.1091 11.5778 38.0989 12.4191C38.0908 13.2624 38.7691 13.9631 39.6022 13.9733C40.4291 13.9834 41.1319 13.2848 41.136 12.4476Z" fill="#0080FF"/>
<path d="M10.2317 41.744L8.43169 37.08C8.37835 36.9413 8.32235 36.7813 8.26369 36.6C8.20502 36.4133 8.14902 36.216 8.09569 36.008C7.98369 36.44 7.86902 36.8 7.75169 37.088L5.95169 41.744H10.2317ZM13.4637 46H12.2637C12.125 46 12.013 45.9653 11.9277 45.896C11.8424 45.8267 11.7784 45.7387 11.7357 45.632L10.6637 42.864H5.51969L4.44769 45.632C4.41569 45.728 4.35435 45.8133 4.26369 45.888C4.17302 45.9627 4.06102 46 3.92769 46H2.72769L7.31169 34.536H8.87969L13.4637 46ZM15.9486 39.072C16.1246 38.8747 16.3112 38.696 16.5086 38.536C16.7059 38.376 16.9139 38.24 17.1326 38.128C17.3566 38.0107 17.5912 37.9227 17.8366 37.864C18.0872 37.8 18.3566 37.768 18.6446 37.768C19.0872 37.768 19.4766 37.8427 19.8126 37.992C20.1539 38.136 20.4366 38.344 20.6606 38.616C20.8899 38.8827 21.0632 39.2053 21.1806 39.584C21.2979 39.9627 21.3566 40.3813 21.3566 40.84V46H19.9246V40.84C19.9246 40.2267 19.7832 39.752 19.5006 39.416C19.2232 39.0747 18.7992 38.904 18.2286 38.904C17.8072 38.904 17.4126 39.0053 17.0446 39.208C16.6819 39.4107 16.3459 39.6853 16.0366 40.032V46H14.6046V37.896H15.4606C15.6632 37.896 15.7886 37.9947 15.8366 38.192L15.9486 39.072ZM28.8064 39.824C28.5398 39.4667 28.2518 39.2187 27.9424 39.08C27.6331 38.936 27.2864 38.864 26.9024 38.864C26.1504 38.864 25.5718 39.1333 25.1664 39.672C24.7611 40.2107 24.5584 40.9787 24.5584 41.976C24.5584 42.504 24.6038 42.9573 24.6944 43.336C24.7851 43.7093 24.9184 44.0187 25.0944 44.264C25.2704 44.504 25.4864 44.68 25.7424 44.792C25.9984 44.904 26.2891 44.96 26.6144 44.96C27.0838 44.96 27.4918 44.8533 27.8384 44.64C28.1904 44.4267 28.5131 44.1253 28.8064 43.736V39.824ZM30.2304 34.216V46H29.3824C29.1798 46 29.0518 45.9013 28.9984 45.704L28.8704 44.72C28.5238 45.136 28.1291 45.472 27.6864 45.728C27.2438 45.984 26.7318 46.112 26.1504 46.112C25.6864 46.112 25.2651 46.024 24.8864 45.848C24.5078 45.6667 24.1851 45.4027 23.9184 45.056C23.6518 44.7093 23.4464 44.2773 23.3024 43.76C23.1584 43.2427 23.0864 42.648 23.0864 41.976C23.0864 41.3787 23.1664 40.824 23.3264 40.312C23.4864 39.7947 23.7158 39.3467 24.0144 38.968C24.3131 38.5893 24.6784 38.2933 25.1104 38.08C25.5478 37.8613 26.0384 37.752 26.5824 37.752C27.0784 37.752 27.5024 37.8373 27.8544 38.008C28.2118 38.1733 28.5291 38.4053 28.8064 38.704V34.216H30.2304ZM33.8316 39.52C34.0876 38.9653 34.4022 38.5333 34.7756 38.224C35.1489 37.9093 35.6049 37.752 36.1436 37.752C36.3142 37.752 36.4769 37.7707 36.6316 37.808C36.7916 37.8453 36.9329 37.904 37.0556 37.984L36.9516 39.048C36.9196 39.1813 36.8396 39.248 36.7116 39.248C36.6369 39.248 36.5276 39.232 36.3836 39.2C36.2396 39.168 36.0769 39.152 35.8956 39.152C35.6396 39.152 35.4102 39.1893 35.2076 39.264C35.0102 39.3387 34.8316 39.4507 34.6716 39.6C34.5169 39.744 34.3756 39.9253 34.2476 40.144C34.1249 40.3573 34.0129 40.6027 33.9116 40.88V46H32.4796V37.896H33.2956C33.4502 37.896 33.5569 37.9253 33.6156 37.984C33.6742 38.0427 33.7142 38.144 33.7356 38.288L33.8316 39.52ZM41.3956 37.768C41.9876 37.768 42.5209 37.8667 42.9956 38.064C43.4702 38.2613 43.8756 38.5413 44.2116 38.904C44.5476 39.2667 44.8036 39.7067 44.9796 40.224C45.1609 40.736 45.2516 41.3093 45.2516 41.944C45.2516 42.584 45.1609 43.16 44.9796 43.672C44.8036 44.184 44.5476 44.6213 44.2116 44.984C43.8756 45.3467 43.4702 45.6267 42.9956 45.824C42.5209 46.016 41.9876 46.112 41.3956 46.112C40.7982 46.112 40.2596 46.016 39.7796 45.824C39.3049 45.6267 38.8996 45.3467 38.5636 44.984C38.2276 44.6213 37.9689 44.184 37.7876 43.672C37.6116 43.16 37.5236 42.584 37.5236 41.944C37.5236 41.3093 37.6116 40.736 37.7876 40.224C37.9689 39.7067 38.2276 39.2667 38.5636 38.904C38.8996 38.5413 39.3049 38.2613 39.7796 38.064C40.2596 37.8667 40.7982 37.768 41.3956 37.768ZM41.3956 45C42.1956 45 42.7929 44.7333 43.1876 44.2C43.5822 43.6613 43.7796 42.912 43.7796 41.952C43.7796 40.9867 43.5822 40.2347 43.1876 39.696C42.7929 39.1573 42.1956 38.888 41.3956 38.888C40.9902 38.888 40.6356 38.9573 40.3316 39.096C40.0329 39.2347 39.7822 39.4347 39.5796 39.696C39.3822 39.9573 39.2329 40.28 39.1316 40.664C39.0356 41.0427 38.9876 41.472 38.9876 41.952C38.9876 42.912 39.1849 43.6613 39.5796 44.2C39.9796 44.7333 40.5849 45 41.3956 45ZM48.5617 37.896V46H47.1377V37.896H48.5617ZM48.8657 35.352C48.8657 35.4907 48.8364 35.6213 48.7777 35.744C48.7244 35.8613 48.6497 35.968 48.5537 36.064C48.463 36.1547 48.3537 36.2267 48.2257 36.28C48.103 36.3333 47.9724 36.36 47.8337 36.36C47.695 36.36 47.5644 36.3333 47.4417 36.28C47.3244 36.2267 47.2204 36.1547 47.1297 36.064C47.039 35.968 46.967 35.8613 46.9137 35.744C46.8604 35.6213 46.8337 35.4907 46.8337 35.352C46.8337 35.2133 46.8604 35.0827 46.9137 34.96C46.967 34.832 47.039 34.7227 47.1297 34.632C47.2204 34.536 47.3244 34.4613 47.4417 34.408C47.5644 34.3547 47.695 34.328 47.8337 34.328C47.9724 34.328 48.103 34.3547 48.2257 34.408C48.3537 34.4613 48.463 34.536 48.5537 34.632C48.6497 34.7227 48.7244 34.832 48.7777 34.96C48.8364 35.0827 48.8657 35.2133 48.8657 35.352ZM56.1814 39.824C55.9148 39.4667 55.6268 39.2187 55.3174 39.08C55.0081 38.936 54.6614 38.864 54.2774 38.864C53.5254 38.864 52.9468 39.1333 52.5414 39.672C52.1361 40.2107 51.9334 40.9787 51.9334 41.976C51.9334 42.504 51.9788 42.9573 52.0694 43.336C52.1601 43.7093 52.2934 44.0187 52.4694 44.264C52.6454 44.504 52.8614 44.68 53.1174 44.792C53.3734 44.904 53.6641 44.96 53.9894 44.96C54.4588 44.96 54.8668 44.8533 55.2134 44.64C55.5654 44.4267 55.8881 44.1253 56.1814 43.736V39.824ZM57.6054 34.216V46H56.7574C56.5548 46 56.4268 45.9013 56.3734 45.704L56.2454 44.72C55.8988 45.136 55.5041 45.472 55.0614 45.728C54.6188 45.984 54.1068 46.112 53.5254 46.112C53.0614 46.112 52.6401 46.024 52.2614 45.848C51.8828 45.6667 51.5601 45.4027 51.2934 45.056C51.0268 44.7093 50.8214 44.2773 50.6774 43.76C50.5334 43.2427 50.4614 42.648 50.4614 41.976C50.4614 41.3787 50.5414 40.824 50.7014 40.312C50.8614 39.7947 51.0908 39.3467 51.3894 38.968C51.6881 38.5893 52.0534 38.2933 52.4854 38.08C52.9228 37.8613 53.4134 37.752 53.9574 37.752C54.4534 37.752 54.8774 37.8373 55.2294 38.008C55.5868 38.1733 55.9041 38.4053 56.1814 38.704V34.216H57.6054ZM69.8411 41.744L68.0411 37.08C67.9877 36.9413 67.9317 36.7813 67.8731 36.6C67.8144 36.4133 67.7584 36.216 67.7051 36.008C67.5931 36.44 67.4784 36.8 67.3611 37.088L65.5611 41.744H69.8411ZM73.0731 46H71.8731C71.7344 46 71.6224 45.9653 71.5371 45.896C71.4517 45.8267 71.3877 45.7387 71.3451 45.632L70.2731 42.864H65.1291L64.0571 45.632C64.0251 45.728 63.9637 45.8133 63.8731 45.888C63.7824 45.9627 63.6704 46 63.5371 46H62.3371L66.9211 34.536H68.4891L73.0731 46ZM77.9652 40.48C78.4079 40.48 78.7972 40.4213 79.1332 40.304C79.4745 40.1867 79.7599 40.024 79.9892 39.816C80.2239 39.6027 80.3999 39.3493 80.5172 39.056C80.6345 38.7627 80.6932 38.44 80.6932 38.088C80.6932 37.3573 80.4665 36.7867 80.0132 36.376C79.5652 35.9653 78.8825 35.76 77.9652 35.76H76.1252V40.48H77.9652ZM77.9652 34.536C78.6905 34.536 79.3199 34.6213 79.8532 34.792C80.3919 34.9573 80.8372 35.1947 81.1892 35.504C81.5412 35.8133 81.8025 36.1867 81.9732 36.624C82.1492 37.0613 82.2372 37.5493 82.2372 38.088C82.2372 38.6213 82.1439 39.1093 81.9572 39.552C81.7705 39.9947 81.4959 40.376 81.1332 40.696C80.7759 41.016 80.3305 41.2667 79.7972 41.448C79.2692 41.624 78.6585 41.712 77.9652 41.712H76.1252V46H74.5812V34.536H77.9652ZM85.7346 39.56H86.3186C86.5212 39.56 86.6839 39.536 86.8066 39.488C86.9292 39.4347 87.0412 39.3467 87.1426 39.224L90.9586 34.904C91.0652 34.7653 91.1772 34.6693 91.2946 34.616C91.4119 34.5627 91.5559 34.536 91.7266 34.536H93.0386L88.6706 39.472C88.5639 39.6 88.4599 39.7067 88.3586 39.792C88.2626 39.872 88.1586 39.9387 88.0466 39.992C88.1906 40.04 88.3212 40.112 88.4386 40.208C88.5559 40.2987 88.6706 40.4187 88.7826 40.568L93.3426 46H91.9986C91.8972 46 91.8092 45.9947 91.7346 45.984C91.6652 45.968 91.6039 45.9467 91.5506 45.92C91.4972 45.888 91.4492 45.8533 91.4066 45.816C91.3692 45.7733 91.3319 45.7253 91.2946 45.672L87.3426 41.12C87.2359 40.9867 87.1212 40.8933 86.9986 40.84C86.8759 40.7813 86.6892 40.752 86.4386 40.752H85.7346V46H84.1906V34.536H85.7346V39.56Z" fill="#ADADAD"/>
</svg>
