<svg width="84" height="57" viewBox="0 0 84 57" fill="none" xmlns="http://www.w3.org/2000/svg">
<g clip-path="url(#clip0_204_2350)">
<path d="M29.0009 0C30.2766 1.29564 31.5453 2.59982 32.8324 3.88551C36.7165 7.76818 40.6006 11.6494 44.506 15.5108C44.9085 15.9076 44.8814 16.101 44.4974 16.4821C39.4756 21.4699 34.4722 26.4761 29.4646 31.478C29.2996 31.643 29.1545 31.8265 29.0009 32.0014C28.954 32.0014 28.9056 32.0014 28.8587 32.0014C27.8702 31.3202 27.563 30.3644 27.5659 29.1897C27.5886 20.3947 27.5901 11.6025 27.5645 2.81031C27.5616 1.63129 27.8702 0.681244 28.8587 0C28.9056 0 28.9526 0 29.0009 0Z" fill="#0080FF"/>
<path d="M32.9788 30.7512C34.0683 29.6689 35.162 28.5895 36.2485 27.5015C39.4642 24.2815 42.6841 21.0673 45.8798 17.8289C46.2638 17.4392 46.4572 17.4591 46.8213 17.836C47.8709 18.9283 48.966 19.9779 50.1024 21.1029C44.3908 24.3811 38.7445 27.6223 33.0997 30.8636C33.0585 30.8266 33.0187 30.7882 32.9788 30.7512Z" fill="#0080FF"/>
<path d="M33.0926 1.13354C38.7388 4.37479 44.3851 7.61603 50.0825 10.8871C48.902 12.069 47.7444 13.2153 46.6009 14.3787C46.3477 14.6361 46.2041 14.4953 46.0249 14.3119C45.611 13.8895 45.19 13.4727 44.7719 13.0546C41.0116 9.2843 37.2512 5.51257 33.488 1.7451C33.3216 1.5787 33.1125 1.45354 32.9234 1.3099C32.9803 1.25159 33.0357 1.19328 33.0926 1.13354Z" fill="#0080FF"/>
<path d="M47.9563 15.9986C49.1054 14.8054 50.3399 13.5339 51.5588 12.2496C51.7934 12.0022 51.9797 12.0519 52.2329 12.2013C53.2882 12.8271 54.3691 13.4087 55.4101 14.0573C56.7954 14.9206 56.7726 17.1634 55.3746 18.0082C54.3463 18.6297 53.2811 19.1929 52.2414 19.7959C51.9911 19.941 51.8034 20.0064 51.5659 19.7547C50.3456 18.469 49.1111 17.199 47.9563 15.9986Z" fill="#0080FF"/>
</g>
<path d="M10.9244 47.488V51.888C10.3484 52.304 9.73244 52.616 9.07644 52.824C8.42577 53.0267 7.7111 53.128 6.93244 53.128C6.00977 53.128 5.17777 52.9867 4.43644 52.704C3.6951 52.416 3.06044 52.016 2.53244 51.504C2.00977 50.9867 1.6071 50.368 1.32444 49.648C1.04177 48.928 0.900438 48.136 0.900438 47.272C0.900438 46.3973 1.03644 45.6 1.30844 44.88C1.58577 44.16 1.97777 43.544 2.48444 43.032C2.9911 42.5147 3.6071 42.1147 4.33244 41.832C5.05777 41.5493 5.86844 41.408 6.76444 41.408C7.21777 41.408 7.6391 41.4427 8.02844 41.512C8.41777 41.576 8.77777 41.672 9.10844 41.8C9.4391 41.9227 9.74577 42.0747 10.0284 42.256C10.3111 42.432 10.5751 42.632 10.8204 42.856L10.3804 43.56C10.3111 43.6667 10.2204 43.736 10.1084 43.768C10.0018 43.7947 9.88177 43.768 9.74844 43.688C9.62044 43.6133 9.47377 43.5227 9.30844 43.416C9.1431 43.3093 8.94044 43.208 8.70044 43.112C8.46577 43.0107 8.18577 42.9253 7.86044 42.856C7.54044 42.7867 7.1591 42.752 6.71644 42.752C6.0711 42.752 5.4871 42.8587 4.96444 43.072C4.44177 43.28 3.99644 43.5813 3.62844 43.976C3.26044 44.3653 2.97777 44.84 2.78044 45.4C2.5831 45.9547 2.48444 46.5787 2.48444 47.272C2.48444 47.992 2.58577 48.6373 2.78844 49.208C2.99644 49.7733 3.28977 50.256 3.66844 50.656C4.05244 51.0507 4.51644 51.352 5.06044 51.56C5.60444 51.768 6.2151 51.872 6.89244 51.872C7.42577 51.872 7.89777 51.8133 8.30844 51.696C8.72444 51.5733 9.12977 51.4053 9.52444 51.192V48.672H7.74044C7.6391 48.672 7.55644 48.6427 7.49244 48.584C7.43377 48.5253 7.40444 48.4533 7.40444 48.368V47.488H10.9244ZM16.2862 44.768C16.8782 44.768 17.4115 44.8667 17.8862 45.064C18.3609 45.2613 18.7662 45.5413 19.1022 45.904C19.4382 46.2667 19.6942 46.7067 19.8702 47.224C20.0515 47.736 20.1422 48.3093 20.1422 48.944C20.1422 49.584 20.0515 50.16 19.8702 50.672C19.6942 51.184 19.4382 51.6213 19.1022 51.984C18.7662 52.3467 18.3609 52.6267 17.8862 52.824C17.4115 53.016 16.8782 53.112 16.2862 53.112C15.6889 53.112 15.1502 53.016 14.6702 52.824C14.1955 52.6267 13.7902 52.3467 13.4542 51.984C13.1182 51.6213 12.8595 51.184 12.6782 50.672C12.5022 50.16 12.4142 49.584 12.4142 48.944C12.4142 48.3093 12.5022 47.736 12.6782 47.224C12.8595 46.7067 13.1182 46.2667 13.4542 45.904C13.7902 45.5413 14.1955 45.2613 14.6702 45.064C15.1502 44.8667 15.6889 44.768 16.2862 44.768ZM16.2862 52C17.0862 52 17.6835 51.7333 18.0782 51.2C18.4729 50.6613 18.6702 49.912 18.6702 48.952C18.6702 47.9867 18.4729 47.2347 18.0782 46.696C17.6835 46.1573 17.0862 45.888 16.2862 45.888C15.8809 45.888 15.5262 45.9573 15.2222 46.096C14.9235 46.2347 14.6729 46.4347 14.4702 46.696C14.2729 46.9573 14.1235 47.28 14.0222 47.664C13.9262 48.0427 13.8782 48.472 13.8782 48.952C13.8782 49.912 14.0755 50.6613 14.4702 51.2C14.8702 51.7333 15.4755 52 16.2862 52ZM25.3643 44.768C25.9563 44.768 26.4896 44.8667 26.9643 45.064C27.439 45.2613 27.8443 45.5413 28.1803 45.904C28.5163 46.2667 28.7723 46.7067 28.9483 47.224C29.1296 47.736 29.2203 48.3093 29.2203 48.944C29.2203 49.584 29.1296 50.16 28.9483 50.672C28.7723 51.184 28.5163 51.6213 28.1803 51.984C27.8443 52.3467 27.439 52.6267 26.9643 52.824C26.4896 53.016 25.9563 53.112 25.3643 53.112C24.767 53.112 24.2283 53.016 23.7483 52.824C23.2736 52.6267 22.8683 52.3467 22.5323 51.984C22.1963 51.6213 21.9376 51.184 21.7563 50.672C21.5803 50.16 21.4923 49.584 21.4923 48.944C21.4923 48.3093 21.5803 47.736 21.7563 47.224C21.9376 46.7067 22.1963 46.2667 22.5323 45.904C22.8683 45.5413 23.2736 45.2613 23.7483 45.064C24.2283 44.8667 24.767 44.768 25.3643 44.768ZM25.3643 52C26.1643 52 26.7616 51.7333 27.1563 51.2C27.551 50.6613 27.7483 49.912 27.7483 48.952C27.7483 47.9867 27.551 47.2347 27.1563 46.696C26.7616 46.1573 26.1643 45.888 25.3643 45.888C24.959 45.888 24.6043 45.9573 24.3003 46.096C24.0016 46.2347 23.751 46.4347 23.5483 46.696C23.351 46.9573 23.2016 47.28 23.1003 47.664C23.0043 48.0427 22.9563 48.472 22.9563 48.952C22.9563 49.912 23.1536 50.6613 23.5483 51.2C23.9483 51.7333 24.5536 52 25.3643 52ZM33.8036 49.04C34.0916 49.04 34.3449 49 34.5636 48.92C34.7822 48.84 34.9662 48.728 35.1156 48.584C35.2649 48.44 35.3769 48.2693 35.4516 48.072C35.5262 47.8693 35.5636 47.648 35.5636 47.408C35.5636 46.912 35.4116 46.5173 35.1076 46.224C34.8089 45.9307 34.3742 45.784 33.8036 45.784C33.2276 45.784 32.7876 45.9307 32.4836 46.224C32.1849 46.5173 32.0356 46.912 32.0356 47.408C32.0356 47.648 32.0729 47.8693 32.1476 48.072C32.2276 48.2693 32.3422 48.44 32.4916 48.584C32.6409 48.728 32.8249 48.84 33.0436 48.92C33.2622 49 33.5156 49.04 33.8036 49.04ZM36.3716 53.44C36.3716 53.2427 36.3156 53.0827 36.2036 52.96C36.0916 52.8373 35.9396 52.7413 35.7476 52.672C35.5609 52.6027 35.3422 52.5547 35.0916 52.528C34.8409 52.496 34.5742 52.472 34.2916 52.456C34.0142 52.44 33.7316 52.424 33.4436 52.408C33.1556 52.392 32.8782 52.3653 32.6116 52.328C32.3129 52.4667 32.0676 52.6427 31.8756 52.856C31.6889 53.064 31.5956 53.3093 31.5956 53.592C31.5956 53.7733 31.6409 53.9413 31.7316 54.096C31.8276 54.256 31.9716 54.392 32.1636 54.504C32.3556 54.6213 32.5956 54.712 32.8836 54.776C33.1769 54.8453 33.5209 54.88 33.9156 54.88C34.2996 54.88 34.6436 54.8453 34.9476 54.776C35.2516 54.7067 35.5076 54.608 35.7156 54.48C35.9289 54.352 36.0916 54.2 36.2036 54.024C36.3156 53.848 36.3716 53.6533 36.3716 53.44ZM37.8196 45.216V45.744C37.8196 45.92 37.7076 46.032 37.4836 46.08L36.5636 46.2C36.7449 46.552 36.8356 46.9413 36.8356 47.368C36.8356 47.7627 36.7582 48.1227 36.6036 48.448C36.4542 48.768 36.2462 49.0427 35.9796 49.272C35.7129 49.5013 35.3929 49.6773 35.0196 49.8C34.6462 49.9227 34.2409 49.984 33.8036 49.984C33.4249 49.984 33.0676 49.9387 32.7316 49.848C32.5609 49.9547 32.4302 50.0693 32.3396 50.192C32.2489 50.3093 32.2036 50.4293 32.2036 50.552C32.2036 50.744 32.2809 50.8907 32.4356 50.992C32.5956 51.088 32.8036 51.1573 33.0596 51.2C33.3156 51.2427 33.6062 51.2693 33.9316 51.28C34.2622 51.2907 34.5982 51.3093 34.9396 51.336C35.2862 51.3573 35.6222 51.3973 35.9476 51.456C36.2782 51.5147 36.5716 51.6107 36.8276 51.744C37.0836 51.8773 37.2889 52.0613 37.4436 52.296C37.6036 52.5307 37.6836 52.8347 37.6836 53.208C37.6836 53.5547 37.5956 53.8907 37.4196 54.216C37.2489 54.5413 37.0009 54.8293 36.6756 55.08C36.3502 55.336 35.9502 55.5387 35.4756 55.688C35.0062 55.8427 34.4756 55.92 33.8836 55.92C33.2916 55.92 32.7742 55.8613 32.3316 55.744C31.8889 55.6267 31.5209 55.4693 31.2276 55.272C30.9342 55.0747 30.7129 54.8453 30.5636 54.584C30.4196 54.328 30.3476 54.0587 30.3476 53.776C30.3476 53.376 30.4729 53.0373 30.7236 52.76C30.9742 52.4827 31.3182 52.2613 31.7556 52.096C31.5156 51.9893 31.3236 51.848 31.1796 51.672C31.0409 51.4907 30.9716 51.248 30.9716 50.944C30.9716 50.8267 30.9929 50.7067 31.0356 50.584C31.0782 50.456 31.1422 50.3307 31.2276 50.208C31.3182 50.08 31.4276 49.96 31.5556 49.848C31.6836 49.736 31.8329 49.6373 32.0036 49.552C31.6036 49.328 31.2916 49.032 31.0676 48.664C30.8436 48.2907 30.7316 47.8587 30.7316 47.368C30.7316 46.9733 30.8062 46.616 30.9556 46.296C31.1102 45.9707 31.3236 45.696 31.5956 45.472C31.8676 45.2427 32.1902 45.0667 32.5636 44.944C32.9422 44.8213 33.3556 44.76 33.8036 44.76C34.1556 44.76 34.4836 44.8 34.7876 44.88C35.0916 44.9547 35.3689 45.0667 35.6196 45.216H37.8196ZM40.7641 41.216V53H39.3401V41.216H40.7641ZM48.4973 48.064C48.4973 47.7333 48.4493 47.432 48.3533 47.16C48.2626 46.8827 48.1266 46.6453 47.9453 46.448C47.7693 46.2453 47.5533 46.0907 47.2973 45.984C47.0413 45.872 46.7506 45.816 46.4253 45.816C45.7426 45.816 45.2013 46.016 44.8013 46.416C44.4066 46.8107 44.1613 47.36 44.0653 48.064H48.4973ZM49.6493 51.864C49.4733 52.0773 49.2626 52.264 49.0173 52.424C48.772 52.5787 48.508 52.7067 48.2253 52.808C47.948 52.9093 47.66 52.984 47.3613 53.032C47.0626 53.0853 46.7666 53.112 46.4733 53.112C45.9133 53.112 45.396 53.0187 44.9213 52.832C44.452 52.64 44.044 52.3627 43.6973 52C43.356 51.632 43.0893 51.1787 42.8973 50.64C42.7053 50.1013 42.6093 49.4827 42.6093 48.784C42.6093 48.2187 42.6946 47.6907 42.8653 47.2C43.0413 46.7093 43.292 46.2853 43.6173 45.928C43.9426 45.5653 44.34 45.2827 44.8093 45.08C45.2786 44.872 45.8066 44.768 46.3933 44.768C46.8786 44.768 47.3266 44.8507 47.7373 45.016C48.1533 45.176 48.5106 45.4107 48.8093 45.72C49.1133 46.024 49.3506 46.4027 49.5213 46.856C49.692 47.304 49.7773 47.816 49.7773 48.392C49.7773 48.616 49.7533 48.7653 49.7053 48.84C49.6573 48.9147 49.5666 48.952 49.4333 48.952H44.0173C44.0333 49.464 44.1026 49.9093 44.2253 50.288C44.3533 50.6667 44.5293 50.984 44.7533 51.24C44.9773 51.4907 45.244 51.68 45.5533 51.808C45.8626 51.9307 46.2093 51.992 46.5933 51.992C46.9506 51.992 47.2573 51.952 47.5133 51.872C47.7746 51.7867 47.9986 51.696 48.1853 51.6C48.372 51.504 48.5266 51.416 48.6493 51.336C48.7773 51.2507 48.8866 51.208 48.9773 51.208C49.0946 51.208 49.1853 51.2533 49.2493 51.344L49.6493 51.864ZM59.3402 47.48C59.7829 47.48 60.1722 47.4213 60.5082 47.304C60.8495 47.1867 61.1349 47.024 61.3642 46.816C61.5989 46.6027 61.7749 46.3493 61.8922 46.056C62.0095 45.7627 62.0682 45.44 62.0682 45.088C62.0682 44.3573 61.8415 43.7867 61.3882 43.376C60.9402 42.9653 60.2575 42.76 59.3402 42.76H57.5002V47.48H59.3402ZM59.3402 41.536C60.0655 41.536 60.6949 41.6213 61.2282 41.792C61.7669 41.9573 62.2122 42.1947 62.5642 42.504C62.9162 42.8133 63.1775 43.1867 63.3482 43.624C63.5242 44.0613 63.6122 44.5493 63.6122 45.088C63.6122 45.6213 63.5189 46.1093 63.3322 46.552C63.1455 46.9947 62.8709 47.376 62.5082 47.696C62.1509 48.016 61.7055 48.2667 61.1722 48.448C60.6442 48.624 60.0335 48.712 59.3402 48.712H57.5002V53H55.9562V41.536H59.3402ZM66.6547 41.216V53H65.2307V41.216H66.6547ZM73.3559 49.352C72.6999 49.3733 72.1399 49.4267 71.6759 49.512C71.2173 49.592 70.8413 49.6987 70.5479 49.832C70.2599 49.9653 70.0493 50.1227 69.9159 50.304C69.7879 50.4853 69.7239 50.688 69.7239 50.912C69.7239 51.1253 69.7586 51.3093 69.8279 51.464C69.8973 51.6187 69.9906 51.7467 70.1079 51.848C70.2306 51.944 70.3719 52.016 70.5319 52.064C70.6973 52.1067 70.8733 52.128 71.0599 52.128C71.3106 52.128 71.5399 52.104 71.7479 52.056C71.9559 52.0027 72.1506 51.928 72.3319 51.832C72.5186 51.736 72.6946 51.6213 72.8599 51.488C73.0306 51.3547 73.1959 51.2027 73.3559 51.032V49.352ZM68.7559 46.04C69.2039 45.608 69.6866 45.2853 70.2039 45.072C70.7213 44.8587 71.2946 44.752 71.9239 44.752C72.3773 44.752 72.7799 44.8267 73.1319 44.976C73.4839 45.1253 73.7799 45.3333 74.0199 45.6C74.2599 45.8667 74.4413 46.1893 74.5639 46.568C74.6866 46.9467 74.7479 47.3627 74.7479 47.816V53H74.1159C73.9773 53 73.8706 52.9787 73.7959 52.936C73.7213 52.888 73.6626 52.7973 73.6199 52.664L73.4599 51.896C73.2466 52.0933 73.0386 52.2693 72.8359 52.424C72.6333 52.5733 72.4199 52.7013 72.1959 52.808C71.9719 52.9093 71.7319 52.9867 71.4759 53.04C71.2253 53.0987 70.9453 53.128 70.6359 53.128C70.3213 53.128 70.0253 53.0853 69.7479 53C69.4706 52.9093 69.2279 52.776 69.0199 52.6C68.8173 52.424 68.6546 52.2027 68.5319 51.936C68.4146 51.664 68.3559 51.344 68.3559 50.976C68.3559 50.656 68.4439 50.3493 68.6199 50.056C68.7959 49.7573 69.0813 49.4933 69.4759 49.264C69.8706 49.0347 70.3853 48.848 71.0199 48.704C71.6546 48.5547 72.4333 48.4693 73.3559 48.448V47.816C73.3559 47.1867 73.2199 46.712 72.9479 46.392C72.6759 46.0667 72.2786 45.904 71.7559 45.904C71.4039 45.904 71.1079 45.9493 70.8679 46.04C70.6333 46.1253 70.4279 46.224 70.2519 46.336C70.0813 46.4427 69.9319 46.5413 69.8039 46.632C69.6813 46.7173 69.5586 46.76 69.4359 46.76C69.3399 46.76 69.2573 46.736 69.1879 46.688C69.1186 46.6347 69.0599 46.5707 69.0119 46.496L68.7559 46.04ZM83.7216 44.896L79.2016 55.392C79.1536 55.4987 79.0922 55.584 79.0176 55.648C78.9482 55.712 78.8389 55.744 78.6896 55.744H77.6336L79.1136 52.528L75.7696 44.896H77.0016C77.1242 44.896 77.2202 44.928 77.2896 44.992C77.3642 45.0507 77.4149 45.1173 77.4416 45.192L79.6096 50.296C79.6949 50.52 79.7669 50.7547 79.8256 51C79.9002 50.7493 79.9802 50.512 80.0656 50.288L82.1696 45.192C82.2016 45.1067 82.2549 45.0373 82.3296 44.984C82.4096 44.9253 82.4976 44.896 82.5936 44.896H83.7216Z" fill="#ADADAD"/>
<defs>
<clipPath id="clip0_204_2350">
<rect width="28.8711" height="32" fill="white" transform="translate(27.5644)"/>
</clipPath>
</defs>
</svg>
