<svg width="82" height="56" viewBox="0 0 82 56" fill="none" xmlns="http://www.w3.org/2000/svg">
<g clip-path="url(#clip0_204_2352)">
<path fill-rule="evenodd" clip-rule="evenodd" d="M39.6334 16.6945C39.6414 19.8928 39.651 25.3267 39.659 29.55C45.4415 30.332 51.224 31.1381 56.9968 32C56.9968 26.958 57.0032 21.938 56.9968 17.1406C51.2095 17.1406 45.4239 16.6945 39.6334 16.6945ZM25 16.6961V27.5547C29.3613 28.1432 33.7226 28.7056 38.0759 29.3484C38.0839 25.1476 38.0727 20.9454 38.0727 16.7445C33.7146 16.7525 29.3581 16.6817 25 16.6961ZM25 4.54922V15.3773C29.3613 15.3885 33.7226 15.3225 38.0839 15.3273C38.0807 11.136 38.0807 6.94989 38.0759 2.75859C33.7114 3.30389 29.3469 3.88079 25 4.54922ZM57 15.1547C51.2208 15.1771 45.4415 15.2652 39.659 15.2828C39.6558 11.0227 39.6558 6.76779 39.659 2.51094C45.4303 1.62982 51.2143 0.801152 56.9968 0C57 5.05322 56.9968 10.1015 57 15.1547Z" fill="#0080FF"/>
</g>
<path d="M24.0231 41.536L20.4471 53H19.0551L16.1511 44.256C16.1245 44.1707 16.0978 44.08 16.0711 43.984C16.0498 43.888 16.0258 43.7867 15.9991 43.68C15.9725 43.7867 15.9458 43.888 15.9191 43.984C15.8925 44.08 15.8658 44.1707 15.8391 44.256L12.9191 53H11.5271L7.95113 41.536H9.23913C9.37779 41.536 9.49246 41.5707 9.58313 41.64C9.67913 41.7093 9.74046 41.7973 9.76713 41.904L12.1351 49.872C12.1725 50.016 12.2071 50.1707 12.2391 50.336C12.2765 50.5013 12.3111 50.6773 12.3431 50.864C12.3805 50.6773 12.4178 50.5013 12.4551 50.336C12.4978 50.1653 12.5431 50.0107 12.5911 49.872L15.2871 41.904C15.3191 41.8133 15.3805 41.7307 15.4711 41.656C15.5671 41.576 15.6818 41.536 15.8151 41.536H16.2631C16.4018 41.536 16.5138 41.5707 16.5991 41.64C16.6845 41.7093 16.7485 41.7973 16.7911 41.904L19.4791 49.872C19.5271 50.0107 19.5698 50.16 19.6071 50.32C19.6498 50.48 19.6898 50.648 19.7271 50.824C19.7538 50.648 19.7831 50.48 19.8151 50.32C19.8471 50.16 19.8818 50.0107 19.9191 49.872L22.2951 41.904C22.3218 41.808 22.3805 41.7227 22.4711 41.648C22.5671 41.5733 22.6818 41.536 22.8151 41.536H24.0231ZM26.8351 44.896V53H25.4111V44.896H26.8351ZM27.1391 42.352C27.1391 42.4907 27.1098 42.6213 27.0511 42.744C26.9978 42.8613 26.9231 42.968 26.8271 43.064C26.7365 43.1547 26.6271 43.2267 26.4991 43.28C26.3765 43.3333 26.2458 43.36 26.1071 43.36C25.9685 43.36 25.8378 43.3333 25.7151 43.28C25.5978 43.2267 25.4938 43.1547 25.4031 43.064C25.3125 42.968 25.2405 42.8613 25.1871 42.744C25.1338 42.6213 25.1071 42.4907 25.1071 42.352C25.1071 42.2133 25.1338 42.0827 25.1871 41.96C25.2405 41.832 25.3125 41.7227 25.4031 41.632C25.4938 41.536 25.5978 41.4613 25.7151 41.408C25.8378 41.3547 25.9685 41.328 26.1071 41.328C26.2458 41.328 26.3765 41.3547 26.4991 41.408C26.6271 41.4613 26.7365 41.536 26.8271 41.632C26.9231 41.7227 26.9978 41.832 27.0511 41.96C27.1098 42.0827 27.1391 42.2133 27.1391 42.352ZM30.5189 46.072C30.6949 45.8747 30.8815 45.696 31.0789 45.536C31.2762 45.376 31.4842 45.24 31.7029 45.128C31.9269 45.0107 32.1615 44.9227 32.4069 44.864C32.6575 44.8 32.9269 44.768 33.2149 44.768C33.6575 44.768 34.0469 44.8427 34.3829 44.992C34.7242 45.136 35.0069 45.344 35.2309 45.616C35.4602 45.8827 35.6335 46.2053 35.7509 46.584C35.8682 46.9627 35.9269 47.3813 35.9269 47.84V53H34.4949V47.84C34.4949 47.2267 34.3535 46.752 34.0709 46.416C33.7935 46.0747 33.3695 45.904 32.7989 45.904C32.3775 45.904 31.9829 46.0053 31.6149 46.208C31.2522 46.4107 30.9162 46.6853 30.6069 47.032V53H29.1749V44.896H30.0309C30.2335 44.896 30.3589 44.9947 30.4069 45.192L30.5189 46.072ZM43.3768 46.824C43.1101 46.4667 42.8221 46.2187 42.5128 46.08C42.2034 45.936 41.8568 45.864 41.4728 45.864C40.7208 45.864 40.1421 46.1333 39.7368 46.672C39.3314 47.2107 39.1288 47.9787 39.1288 48.976C39.1288 49.504 39.1741 49.9573 39.2648 50.336C39.3554 50.7093 39.4888 51.0187 39.6648 51.264C39.8408 51.504 40.0568 51.68 40.3128 51.792C40.5688 51.904 40.8594 51.96 41.1848 51.96C41.6541 51.96 42.0621 51.8533 42.4088 51.64C42.7608 51.4267 43.0834 51.1253 43.3768 50.736V46.824ZM44.8008 41.216V53H43.9528C43.7501 53 43.6221 52.9013 43.5688 52.704L43.4408 51.72C43.0941 52.136 42.6994 52.472 42.2568 52.728C41.8141 52.984 41.3021 53.112 40.7208 53.112C40.2568 53.112 39.8354 53.024 39.4568 52.848C39.0781 52.6667 38.7554 52.4027 38.4888 52.056C38.2221 51.7093 38.0168 51.2773 37.8728 50.76C37.7288 50.2427 37.6568 49.648 37.6568 48.976C37.6568 48.3787 37.7368 47.824 37.8968 47.312C38.0568 46.7947 38.2861 46.3467 38.5848 45.968C38.8834 45.5893 39.2488 45.2933 39.6808 45.08C40.1181 44.8613 40.6088 44.752 41.1528 44.752C41.6488 44.752 42.0728 44.8373 42.4248 45.008C42.7821 45.1733 43.0994 45.4053 43.3768 45.704V41.216H44.8008ZM50.4659 44.768C51.0579 44.768 51.5912 44.8667 52.0659 45.064C52.5405 45.2613 52.9459 45.5413 53.2819 45.904C53.6179 46.2667 53.8739 46.7067 54.0499 47.224C54.2312 47.736 54.3219 48.3093 54.3219 48.944C54.3219 49.584 54.2312 50.16 54.0499 50.672C53.8739 51.184 53.6179 51.6213 53.2819 51.984C52.9459 52.3467 52.5405 52.6267 52.0659 52.824C51.5912 53.016 51.0579 53.112 50.4659 53.112C49.8685 53.112 49.3299 53.016 48.8499 52.824C48.3752 52.6267 47.9699 52.3467 47.6339 51.984C47.2979 51.6213 47.0392 51.184 46.8579 50.672C46.6819 50.16 46.5939 49.584 46.5939 48.944C46.5939 48.3093 46.6819 47.736 46.8579 47.224C47.0392 46.7067 47.2979 46.2667 47.6339 45.904C47.9699 45.5413 48.3752 45.2613 48.8499 45.064C49.3299 44.8667 49.8685 44.768 50.4659 44.768ZM50.4659 52C51.2659 52 51.8632 51.7333 52.2579 51.2C52.6525 50.6613 52.8499 49.912 52.8499 48.952C52.8499 47.9867 52.6525 47.2347 52.2579 46.696C51.8632 46.1573 51.2659 45.888 50.4659 45.888C50.0605 45.888 49.7059 45.9573 49.4019 46.096C49.1032 46.2347 48.8525 46.4347 48.6499 46.696C48.4525 46.9573 48.3032 47.28 48.2019 47.664C48.1059 48.0427 48.0579 48.472 48.0579 48.952C48.0579 49.912 48.2552 50.6613 48.6499 51.2C49.0499 51.7333 49.6552 52 50.4659 52ZM67.179 44.896L64.555 53H63.427C63.2883 53 63.1923 52.9093 63.139 52.728L61.347 47.232C61.3043 47.1093 61.2697 46.9867 61.243 46.864C61.2163 46.736 61.1897 46.6107 61.163 46.488C61.1363 46.6107 61.1097 46.736 61.083 46.864C61.0563 46.9867 61.0217 47.112 60.979 47.24L59.155 52.728C59.107 52.9093 59.0003 53 58.835 53H57.763L55.139 44.896H56.259C56.371 44.896 56.4643 44.9253 56.539 44.984C56.619 45.0427 56.6723 45.112 56.699 45.192L58.251 50.408C58.3417 50.792 58.4137 51.1547 58.467 51.496C58.515 51.32 58.563 51.1413 58.611 50.96C58.6643 50.7787 58.7203 50.5947 58.779 50.408L60.491 45.16C60.5177 45.08 60.563 45.0133 60.627 44.96C60.6963 44.9067 60.779 44.88 60.875 44.88H61.499C61.6057 44.88 61.6937 44.9067 61.763 44.96C61.8323 45.0133 61.8803 45.08 61.907 45.16L63.579 50.408C63.6377 50.5947 63.691 50.7787 63.739 50.96C63.787 51.1413 63.8323 51.32 63.875 51.496C63.9017 51.32 63.9337 51.144 63.971 50.968C64.0137 50.7867 64.059 50.6 64.107 50.408L65.691 45.192C65.7177 45.1067 65.7683 45.0373 65.843 44.984C65.9177 44.9253 66.0057 44.896 66.107 44.896H67.179ZM73.223 46.232C73.159 46.3493 73.0603 46.408 72.927 46.408C72.847 46.408 72.7563 46.3787 72.655 46.32C72.5537 46.2613 72.4283 46.1973 72.279 46.128C72.135 46.0533 71.9617 45.9867 71.759 45.928C71.5563 45.864 71.3163 45.832 71.039 45.832C70.799 45.832 70.583 45.864 70.391 45.928C70.199 45.9867 70.0337 46.0693 69.895 46.176C69.7617 46.2827 69.6577 46.408 69.583 46.552C69.5137 46.6907 69.479 46.8427 69.479 47.008C69.479 47.216 69.5377 47.3893 69.655 47.528C69.7777 47.6667 69.9377 47.7867 70.135 47.888C70.3323 47.9893 70.5563 48.08 70.807 48.16C71.0577 48.2347 71.3137 48.3173 71.575 48.408C71.8417 48.4933 72.1003 48.5893 72.351 48.696C72.6017 48.8027 72.8257 48.936 73.023 49.096C73.2203 49.256 73.3777 49.4533 73.495 49.688C73.6177 49.9173 73.679 50.1947 73.679 50.52C73.679 50.8933 73.6123 51.24 73.479 51.56C73.3457 51.8747 73.1483 52.1493 72.887 52.384C72.6257 52.6133 72.3057 52.7947 71.927 52.928C71.5483 53.0613 71.111 53.128 70.615 53.128C70.0497 53.128 69.5377 53.0373 69.079 52.856C68.6203 52.6693 68.231 52.432 67.911 52.144L68.247 51.6C68.2897 51.5307 68.3403 51.4773 68.399 51.44C68.4577 51.4027 68.5323 51.384 68.623 51.384C68.719 51.384 68.8203 51.4213 68.927 51.496C69.0337 51.5707 69.1617 51.6533 69.311 51.744C69.4657 51.8347 69.6523 51.9173 69.871 51.992C70.0897 52.0667 70.3617 52.104 70.687 52.104C70.9643 52.104 71.207 52.0693 71.415 52C71.623 51.9253 71.7963 51.8267 71.935 51.704C72.0737 51.5813 72.175 51.44 72.239 51.28C72.3083 51.12 72.343 50.9493 72.343 50.768C72.343 50.544 72.2817 50.36 72.159 50.216C72.0417 50.0667 71.8843 49.9413 71.687 49.84C71.4897 49.7333 71.263 49.6427 71.007 49.568C70.7563 49.488 70.4977 49.4053 70.231 49.32C69.9697 49.2347 69.711 49.1387 69.455 49.032C69.2043 48.92 68.9803 48.7813 68.783 48.616C68.5857 48.4507 68.4257 48.248 68.303 48.008C68.1857 47.7627 68.127 47.4667 68.127 47.12C68.127 46.8107 68.191 46.5147 68.319 46.232C68.447 45.944 68.6337 45.6933 68.879 45.48C69.1243 45.2613 69.4257 45.088 69.783 44.96C70.1403 44.832 70.5483 44.768 71.007 44.768C71.5403 44.768 72.0177 44.8533 72.439 45.024C72.8657 45.1893 73.2337 45.4187 73.543 45.712L73.223 46.232Z" fill="#ADADAD"/>
<defs>
<clipPath id="clip0_204_2352">
<rect width="32" height="32" fill="white" transform="translate(25)"/>
</clipPath>
</defs>
</svg>
