<svg width="42" height="56" viewBox="0 0 42 56" fill="none" xmlns="http://www.w3.org/2000/svg">
<path d="M19.923 8.08003C19.898 8.15203 19.782 8.14103 19.716 8.16203C19.657 8.19303 19.609 8.24703 19.541 8.24703C19.479 8.24703 19.379 8.22203 19.371 8.16203C19.359 8.08003 19.481 7.99603 19.558 7.99603C19.608 7.97203 19.666 7.95903 19.727 7.95903C19.783 7.95903 19.836 7.97003 19.884 7.99103L19.881 7.99003C19.903 7.99903 19.919 8.02003 19.919 8.04503C19.919 8.04803 19.919 8.05003 19.918 8.05303V8.07803H19.922L19.923 8.08003ZM20.611 8.08003V8.05303C20.603 8.02803 20.627 8.00103 20.647 7.99103C20.693 7.97103 20.747 7.95903 20.804 7.95903C20.865 7.95903 20.923 7.97303 20.974 7.99703L20.972 7.99603C21.051 7.99603 21.172 8.08003 21.159 8.16503C21.152 8.22603 21.053 8.24703 20.99 8.24703C20.921 8.24703 20.875 8.19303 20.814 8.16203C20.749 8.13903 20.632 8.15203 20.61 8.08103L20.611 8.08003ZM21.963 10.058C21.431 10.395 20.802 10.632 20.128 10.724L20.104 10.727C19.498 10.692 18.947 10.479 18.497 10.139L18.504 10.144C18.312 9.97703 18.154 9.80903 18.038 9.72503C17.833 9.55803 17.858 9.30903 17.946 9.30903C18.082 9.32903 18.107 9.47603 18.195 9.55903C18.315 9.64103 18.464 9.80903 18.645 9.97503C19.042 10.303 19.544 10.516 20.095 10.558L20.104 10.559C20.758 10.502 21.353 10.292 21.867 9.96703L21.851 9.97703C22.095 9.80803 22.407 9.56003 22.661 9.39303C22.856 9.22303 22.847 9.05903 23.01 9.05903C23.17 9.07903 23.053 9.22603 22.826 9.47403C22.58 9.66203 22.299 9.85503 22.008 10.034L21.964 10.059L21.963 10.058ZM13.017 21.397H13.029C13.098 21.397 13.166 21.404 13.232 21.416L13.225 21.415C13.769 21.555 14.217 21.893 14.498 22.346L14.503 22.355L15.64 24.434L15.644 24.438C16.101 25.211 16.592 25.88 17.141 26.497L17.13 26.484C17.62 27.004 17.95 27.68 18.039 28.43L18.041 28.446V28.454C18.029 29.271 17.428 29.945 16.645 30.07L16.636 30.071C16.436 30.102 16.204 30.119 15.969 30.119C15.112 30.119 14.31 29.886 13.622 29.479L13.643 29.491C12.59 29.05 11.368 28.777 10.088 28.739H10.073C9.701 28.714 9.377 28.524 9.172 28.243L9.17 28.24C9.116 28.066 9.085 27.866 9.085 27.658C9.085 27.308 9.173 26.979 9.329 26.692L9.324 26.703V26.698L9.327 26.694C9.368 26.506 9.392 26.289 9.392 26.067C9.392 25.793 9.356 25.528 9.288 25.276L9.293 25.297C9.252 25.147 9.228 24.974 9.228 24.795C9.228 24.553 9.271 24.322 9.351 24.108L9.347 24.122C9.547 23.705 9.842 23.622 10.209 23.456C10.647 23.323 11.028 23.122 11.36 22.863L11.352 22.869H11.354V22.866C11.674 22.531 11.91 22.115 12.189 21.819C12.384 21.57 12.681 21.409 13.016 21.399H13.018L13.017 21.397ZM26.531 21.336C26.53 21.353 26.53 21.374 26.53 21.395C26.53 22.138 26.979 22.776 27.621 23.053L27.633 23.058C27.681 23.061 27.737 23.063 27.793 23.063C28.624 23.063 29.368 22.692 29.868 22.106L29.871 22.102L30.135 22.09C30.188 22.082 30.249 22.078 30.311 22.078C30.652 22.078 30.963 22.21 31.194 22.426L31.193 22.425L31.197 22.429C31.446 22.73 31.619 23.102 31.684 23.511L31.686 23.524C31.741 24.029 31.924 24.484 32.203 24.864L32.198 24.856C32.614 25.212 32.903 25.706 32.991 26.267L32.993 26.28L32.997 26.271V26.293L32.993 26.278C32.974 26.605 32.762 26.773 32.371 27.022C31.187 27.519 30.17 28.18 29.294 28.99L29.301 28.984C28.693 29.776 27.8 30.323 26.778 30.47L26.757 30.472C26.683 30.482 26.597 30.488 26.51 30.488C25.742 30.488 25.082 30.024 24.794 29.362L24.789 29.35L24.783 29.346C24.69 29.06 24.637 28.731 24.637 28.39C24.637 27.974 24.716 27.577 24.861 27.212L24.853 27.234C25.087 26.566 25.288 25.768 25.421 24.946L25.432 24.863C25.448 24.051 25.536 23.27 25.69 22.513L25.676 22.596C25.761 22.078 26.057 21.642 26.47 21.371L26.477 21.367L26.533 21.34L26.531 21.336ZM23.8 10.142C24.4 12.289 25.139 14.144 26.047 15.899L25.968 15.732C26.581 16.822 27.058 18.087 27.331 19.427L27.345 19.511C27.354 19.511 27.365 19.511 27.376 19.511C27.593 19.511 27.803 19.54 28.003 19.595L27.986 19.591C28.096 19.196 28.159 18.743 28.159 18.275C28.159 16.849 27.572 15.559 26.626 14.636L26.625 14.635C26.35 14.385 26.335 14.216 26.471 14.216C27.442 15.126 28.16 16.294 28.516 17.61L28.528 17.661C28.617 17.99 28.668 18.368 28.668 18.758C28.668 19.109 28.627 19.451 28.549 19.778L28.555 19.748C28.629 19.786 28.715 19.815 28.806 19.831L28.812 19.832C30.102 20.499 30.578 21.004 30.349 21.753V21.699C30.274 21.695 30.199 21.699 30.124 21.699H30.104C30.293 21.115 29.877 20.668 28.773 20.169C27.63 19.669 26.716 19.749 26.561 20.75C26.55 20.799 26.542 20.856 26.539 20.915V20.918C26.466 20.948 26.379 20.976 26.289 20.996L26.278 20.998C25.77 21.334 25.408 21.857 25.289 22.467L25.287 22.481C25.139 23.176 25.046 23.981 25.031 24.804V24.816V24.82C24.94 25.457 24.801 26.027 24.613 26.573L24.633 26.507C23.65 27.311 22.382 27.797 20.999 27.797C19.869 27.797 18.815 27.472 17.926 26.91L17.95 26.924C17.804 26.671 17.637 26.452 17.447 26.257L17.448 26.258C17.351 26.098 17.237 25.961 17.106 25.843L17.104 25.842C17.311 25.842 17.511 25.811 17.7 25.754L17.685 25.758C17.865 25.673 18.003 25.526 18.076 25.346L18.078 25.341C18.096 25.248 18.107 25.142 18.107 25.033C18.107 24.588 17.932 24.185 17.646 23.887L17.647 23.888C17.028 23.127 16.288 22.493 15.451 22.008L15.413 21.988C14.742 21.6 14.234 20.993 13.983 20.266L13.976 20.244C13.883 19.926 13.829 19.56 13.829 19.182C13.829 18.829 13.876 18.487 13.963 18.161L13.957 18.188C14.334 16.874 14.878 15.727 15.577 14.692L15.549 14.735C15.683 14.654 15.595 14.904 15.039 15.952C14.565 16.665 14.282 17.542 14.282 18.485C14.282 19.325 14.506 20.112 14.898 20.791L14.886 20.769C14.938 19.46 15.231 18.232 15.72 17.11L15.695 17.175C16.75 15.273 17.549 13.064 17.97 10.723L17.99 10.592C18.05 10.637 18.261 10.761 18.351 10.844C18.623 11.01 18.826 11.26 19.088 11.425C19.355 11.685 19.721 11.845 20.123 11.845C20.144 11.845 20.165 11.845 20.186 11.844H20.183C20.232 11.848 20.277 11.852 20.32 11.852C20.779 11.843 21.207 11.72 21.579 11.51L21.566 11.517C21.928 11.35 22.216 11.1 22.491 11.017H22.497C23.032 10.872 23.48 10.563 23.797 10.148L23.801 10.142H23.8ZM20.301 7.46503C20.304 7.46503 20.307 7.46503 20.31 7.46503C20.879 7.46503 21.404 7.65203 21.827 7.96803L21.82 7.96303C22.198 8.19703 22.634 8.39603 23.095 8.53703L23.135 8.54703H23.139C23.385 8.65703 23.588 8.82803 23.733 9.04103L23.736 9.04603V8.88203C23.782 8.97403 23.81 9.08303 23.81 9.19803C23.81 9.29603 23.79 9.38903 23.755 9.47403L23.757 9.46903C23.469 9.97603 23.002 10.353 22.444 10.517L22.428 10.521V10.523C22.093 10.692 21.802 10.939 21.46 11.104C21.11 11.314 20.689 11.438 20.238 11.438C20.223 11.438 20.208 11.438 20.193 11.438H20.195C20.173 11.439 20.147 11.44 20.121 11.44C19.947 11.44 19.779 11.409 19.625 11.351L19.635 11.354C19.476 11.267 19.345 11.185 19.218 11.097L19.232 11.107C19.005 10.908 18.755 10.717 18.493 10.542L18.467 10.526V10.52H18.461C18.086 10.321 17.791 10.016 17.609 9.64403L17.604 9.63203C17.577 9.56503 17.562 9.48703 17.562 9.40603C17.562 9.18803 17.674 8.99603 17.843 8.88403L17.845 8.88303C18.125 8.71403 18.32 8.54403 18.449 8.46303C18.579 8.37103 18.628 8.33603 18.669 8.29903H18.671V8.29503C18.939 7.95603 19.294 7.69603 19.703 7.54903L19.719 7.54403C19.893 7.49403 20.093 7.46503 20.3 7.46303L20.301 7.46503ZM18.589 5.33303H18.634C18.822 5.33703 18.995 5.40003 19.135 5.50303L19.133 5.50103C19.312 5.66003 19.458 5.85303 19.558 6.07103L19.562 6.08203C19.675 6.32703 19.745 6.61203 19.753 6.91203V6.91503V6.92003C19.757 6.96603 19.759 7.01903 19.759 7.07203C19.759 7.13503 19.756 7.19803 19.75 7.26003L19.751 7.25203V7.35203C19.714 7.36103 19.681 7.37403 19.647 7.38203C19.456 7.46103 19.295 7.54503 19.142 7.64003L19.156 7.63203C19.164 7.57703 19.168 7.51403 19.168 7.45003C19.168 7.39703 19.165 7.34403 19.159 7.29203L19.16 7.29803V7.27903C19.142 7.12503 19.106 6.98403 19.053 6.85103L19.057 6.86203C19.016 6.73003 18.944 6.61803 18.85 6.52903C18.795 6.47903 18.722 6.44803 18.641 6.44803C18.634 6.44803 18.627 6.44803 18.62 6.44903H18.621H18.595C18.492 6.46003 18.406 6.52403 18.363 6.61203L18.362 6.61403C18.285 6.70703 18.232 6.82203 18.212 6.94803V6.95203C18.189 7.03803 18.177 7.13703 18.177 7.23903C18.177 7.28303 18.179 7.32703 18.184 7.37003V7.36503V7.38403C18.2 7.53803 18.236 7.68003 18.288 7.81203L18.284 7.80103C18.326 7.93303 18.397 8.04603 18.491 8.13603C18.503 8.14803 18.517 8.15803 18.533 8.16603H18.534C18.451 8.21903 18.379 8.27503 18.313 8.33703L18.314 8.33603C18.269 8.37603 18.214 8.40603 18.153 8.42003L18.15 8.42103C18.027 8.27403 17.913 8.10903 17.815 7.93503L17.807 7.91903C17.694 7.67403 17.624 7.39003 17.613 7.08903V7.08503C17.609 7.03703 17.607 6.98103 17.607 6.92403C17.607 6.68303 17.646 6.45103 17.717 6.23403L17.713 6.25003C17.787 5.99203 17.908 5.76903 18.069 5.57903L18.067 5.58203C18.194 5.43203 18.38 5.33703 18.589 5.33203H18.59L18.589 5.33303ZM22.291 5.25903H22.307C22.308 5.25903 22.309 5.25903 22.311 5.25903C22.586 5.25903 22.838 5.35203 23.04 5.50803L23.037 5.50603C23.266 5.68303 23.45 5.90603 23.579 6.16103L23.584 6.17203C23.705 6.43803 23.78 6.74703 23.791 7.07303V7.07703C23.791 7.05203 23.798 7.02703 23.798 7.00203V7.13303L23.793 7.10703L23.788 7.07703C23.785 7.39703 23.717 7.69903 23.595 7.97403L23.601 7.96003C23.539 8.12303 23.449 8.26303 23.335 8.37903C23.305 8.36103 23.268 8.34403 23.231 8.32903L23.225 8.32703C23.09 8.28503 22.972 8.22803 22.865 8.15803L22.87 8.16103C22.793 8.12903 22.701 8.10103 22.606 8.08003L22.595 8.07803C22.676 8.00203 22.751 7.92103 22.82 7.83503L22.824 7.83003C22.887 7.68203 22.926 7.51103 22.934 7.33103V7.32803V7.30303C22.934 7.29503 22.934 7.28703 22.934 7.27803C22.934 7.10803 22.906 6.94503 22.854 6.79303L22.857 6.80403C22.794 6.64503 22.717 6.50803 22.625 6.38303L22.629 6.38803C22.542 6.30003 22.427 6.24003 22.298 6.22303H22.295H22.275C22.274 6.22303 22.272 6.22303 22.271 6.22303C22.139 6.22303 22.021 6.28803 21.949 6.38703L21.948 6.38803C21.832 6.50103 21.744 6.64103 21.694 6.79803L21.692 6.80503C21.629 6.95203 21.588 7.12303 21.58 7.30103V7.30403V7.32803C21.582 7.44803 21.591 7.56403 21.607 7.67703L21.605 7.66203C21.364 7.57803 21.058 7.49303 20.846 7.41003C20.834 7.33703 20.826 7.25103 20.824 7.16303V7.16003V7.13503C20.823 7.11503 20.823 7.09203 20.823 7.06903C20.823 6.74503 20.892 6.43803 21.017 6.16103L21.011 6.17503C21.117 5.89603 21.304 5.66703 21.543 5.51203L21.548 5.50903C21.752 5.35303 22.011 5.25903 22.291 5.25903ZM21.63 1.00403C21.436 1.00403 21.236 1.01403 21.03 1.03003C15.749 1.44603 17.15 7.03703 17.069 8.90003C17.019 10.326 16.535 11.629 15.744 12.692L15.757 12.674C14.35 14.276 13.202 16.148 12.406 18.197L12.363 18.324C12.105 19.009 11.955 19.8 11.955 20.626C11.955 20.911 11.973 21.192 12.007 21.467L12.004 21.434C11.948 21.48 11.901 21.536 11.868 21.6L11.867 21.603C11.542 21.938 11.305 22.353 11.038 22.651C10.755 22.868 10.423 23.039 10.063 23.145L10.042 23.15C9.578 23.289 9.2 23.592 8.967 23.991L8.962 24C8.858 24.212 8.797 24.461 8.797 24.725C8.797 24.735 8.797 24.744 8.797 24.754C8.799 24.992 8.823 25.222 8.87 25.446L8.866 25.423C8.922 25.642 8.954 25.894 8.954 26.153C8.954 26.323 8.94 26.49 8.913 26.653L8.915 26.635C8.748 26.948 8.651 27.32 8.651 27.715C8.651 27.993 8.699 28.259 8.788 28.506L8.783 28.49C9.056 28.878 9.469 29.152 9.947 29.239L9.958 29.241C11.232 29.348 12.409 29.614 13.519 30.021L13.425 29.991C14.123 30.406 14.964 30.651 15.861 30.651C16.155 30.651 16.443 30.625 16.723 30.574L16.694 30.578C17.361 30.427 17.905 29.992 18.198 29.409L18.204 29.396C18.938 29.392 19.741 29.06 21.028 28.979C21.901 28.907 22.995 29.313 24.248 29.229C24.285 29.388 24.334 29.527 24.396 29.658L24.39 29.645L24.394 29.649C24.778 30.453 25.584 30.999 26.518 30.999C26.599 30.999 26.679 30.995 26.758 30.987L26.748 30.988C27.899 30.818 28.887 30.22 29.561 29.365L29.568 29.356C30.411 28.588 31.395 27.955 32.473 27.503L32.54 27.478C32.972 27.287 33.282 26.893 33.35 26.419L33.351 26.412C33.292 25.718 32.959 25.113 32.463 24.696L32.459 24.693V24.572L32.455 24.568C32.241 24.238 32.091 23.846 32.034 23.426L32.032 23.411C31.979 22.898 31.754 22.445 31.417 22.104H31.413C31.339 22.037 31.259 22.02 31.178 21.935C31.112 21.888 31.03 21.859 30.941 21.855C31.136 21.253 31.248 20.561 31.248 19.842C31.248 18.902 31.055 18.007 30.707 17.195L30.724 17.239C30.02 15.567 29.105 14.128 27.992 12.87L28.006 12.887C26.901 11.805 26.178 10.336 26.058 8.70003L26.057 8.67903C26.09 5.99003 26.352 1.01503 21.628 1.00803L21.63 1.00403Z" fill="#0080FF"/>
<path d="M10.0305 51.696V53H3.5265V41.536H5.0705V51.696H10.0305ZM12.9133 44.896V53H11.4893V44.896H12.9133ZM13.2173 42.352C13.2173 42.4907 13.1879 42.6213 13.1293 42.744C13.0759 42.8613 13.0013 42.968 12.9053 43.064C12.8146 43.1547 12.7053 43.2267 12.5773 43.28C12.4546 43.3333 12.3239 43.36 12.1853 43.36C12.0466 43.36 11.9159 43.3333 11.7933 43.28C11.6759 43.2267 11.5719 43.1547 11.4813 43.064C11.3906 42.968 11.3186 42.8613 11.2653 42.744C11.2119 42.6213 11.1853 42.4907 11.1853 42.352C11.1853 42.2133 11.2119 42.0827 11.2653 41.96C11.3186 41.832 11.3906 41.7227 11.4813 41.632C11.5719 41.536 11.6759 41.4613 11.7933 41.408C11.9159 41.3547 12.0466 41.328 12.1853 41.328C12.3239 41.328 12.4546 41.3547 12.5773 41.408C12.7053 41.4613 12.8146 41.536 12.9053 41.632C13.0013 41.7227 13.0759 41.832 13.1293 41.96C13.1879 42.0827 13.2173 42.2133 13.2173 42.352ZM16.597 46.072C16.773 45.8747 16.9597 45.696 17.157 45.536C17.3543 45.376 17.5623 45.24 17.781 45.128C18.005 45.0107 18.2397 44.9227 18.485 44.864C18.7357 44.8 19.005 44.768 19.293 44.768C19.7357 44.768 20.125 44.8427 20.461 44.992C20.8023 45.136 21.085 45.344 21.309 45.616C21.5383 45.8827 21.7117 46.2053 21.829 46.584C21.9463 46.9627 22.005 47.3813 22.005 47.84V53H20.573V47.84C20.573 47.2267 20.4317 46.752 20.149 46.416C19.8717 46.0747 19.4477 45.904 18.877 45.904C18.4557 45.904 18.061 46.0053 17.693 46.208C17.3303 46.4107 16.9943 46.6853 16.685 47.032V53H15.253V44.896H16.109C16.3117 44.896 16.437 44.9947 16.485 45.192L16.597 46.072ZM30.8389 44.896V53H29.9909C29.7882 53 29.6602 52.9013 29.6069 52.704L29.4949 51.832C29.1429 52.2213 28.7482 52.536 28.3109 52.776C27.8735 53.0107 27.3722 53.128 26.8069 53.128C26.3642 53.128 25.9722 53.056 25.6309 52.912C25.2949 52.7627 25.0122 52.5547 24.7829 52.288C24.5535 52.0213 24.3802 51.6987 24.2629 51.32C24.1509 50.9413 24.0949 50.5227 24.0949 50.064V44.896H25.5189V50.064C25.5189 50.6773 25.6575 51.152 25.9349 51.488C26.2175 51.824 26.6469 51.992 27.2229 51.992C27.6442 51.992 28.0362 51.8933 28.3989 51.696C28.7669 51.4933 29.1055 51.216 29.4149 50.864V44.896H30.8389ZM39.7528 53H38.3848C38.2674 53 38.1741 52.9707 38.1048 52.912C38.0408 52.848 37.9874 52.7787 37.9448 52.704L35.9048 49.528C35.8834 49.6027 35.8594 49.6773 35.8328 49.752C35.8114 49.8213 35.7794 49.8853 35.7368 49.944L33.8488 52.704C33.7954 52.7787 33.7368 52.848 33.6728 52.912C33.6141 52.9707 33.5314 53 33.4248 53H32.1528L34.9928 48.84L32.2648 44.896H33.6328C33.7501 44.896 33.8354 44.9147 33.8888 44.952C33.9421 44.9893 33.9901 45.0427 34.0328 45.112L36.0248 48.152C36.0674 47.9973 36.1341 47.848 36.2248 47.704L37.9688 45.144C38.0168 45.0693 38.0674 45.0107 38.1208 44.968C38.1794 44.92 38.2488 44.896 38.3288 44.896H39.6408L36.9128 48.768L39.7528 53Z" fill="#ADADAD"/>
</svg>
