<svg width="82" height="62" viewBox="0 0 82 62" fill="none" xmlns="http://www.w3.org/2000/svg">
<path d="M36.1301 36.99C35.7703 36.99 35.4106 36.99 35.0509 36.99C33.8895 36.6817 32.9233 36.0444 32.1114 35.1811C30.6005 33.5674 29.3877 31.7585 28.3907 29.7954C27.1984 27.4417 26.4584 24.9544 26.1192 22.3438C25.8726 20.4732 25.852 18.5923 26.3145 16.7525C27.034 13.8952 28.4935 11.5518 31.1247 10.0718C32.8308 9.11589 34.65 8.74588 36.5823 9.17756C37.6821 9.41396 38.7201 9.82508 39.748 10.267C40.6935 10.6679 41.6186 10.7193 42.5744 10.2979C43.2014 10.0204 43.8592 9.8148 44.4964 9.57841C46.1512 8.98228 47.8471 8.73561 49.6046 9.09534C51.7836 9.53729 53.6336 10.4829 54.9595 12.3432C55.1137 12.559 55.1034 12.6618 54.8773 12.8057C54.0242 13.3505 53.2636 13.998 52.6778 14.8202C50.7352 17.5336 50.7249 20.4218 52.0405 23.3716C52.7805 25.0263 54.1372 26.1364 55.7303 26.9381C56.0798 27.1128 56.1106 27.2772 55.9873 27.6164C54.9903 30.3812 53.4589 32.8274 51.5677 35.0474C50.2316 36.62 48.546 37.3086 46.4801 36.7742C45.7401 36.5789 45.0412 36.3014 44.332 36.0239C42.7903 35.4175 41.228 35.3147 39.6349 35.8389C38.4735 36.2191 37.3429 36.7228 36.1301 36.99Z" fill="#0080FF"/>
<path d="M48.4226 0.92428C48.176 4.15159 46.6342 6.54638 43.7667 8.05725C42.9753 8.46838 42.0913 8.5506 41.1972 8.53005C40.9505 8.51977 40.971 8.38615 40.971 8.23198C40.9094 6.3511 41.4849 4.68605 42.6361 3.20601C44.0133 1.4279 45.8531 0.430933 48.0423 0.0198103C48.2993 -0.03158 48.4637 -0.000745834 48.4226 0.328152C48.4124 0.513157 48.4226 0.728997 48.4226 0.92428Z" fill="#0080FF"/>
<path d="M13.6145 53.734L11.8145 49.07C11.7612 48.9313 11.7052 48.7713 11.6465 48.59C11.5878 48.4033 11.5318 48.206 11.4785 47.998C11.3665 48.43 11.2518 48.79 11.1345 49.078L9.3345 53.734H13.6145ZM16.8465 57.99H15.6465C15.5078 57.99 15.3958 57.9553 15.3105 57.886C15.2252 57.8167 15.1612 57.7287 15.1185 57.622L14.0465 54.854H8.9025L7.8305 57.622C7.7985 57.718 7.73717 57.8033 7.6465 57.878C7.55583 57.9527 7.44383 57.99 7.3105 57.99H6.1105L10.6945 46.526H12.2625L16.8465 57.99ZM19.4194 56.038C19.6807 56.39 19.966 56.638 20.2754 56.782C20.5847 56.926 20.9314 56.998 21.3154 56.998C22.0727 56.998 22.654 56.7287 23.0594 56.19C23.4647 55.6513 23.6674 54.8833 23.6674 53.886C23.6674 53.358 23.6194 52.9047 23.5234 52.526C23.4327 52.1473 23.2994 51.838 23.1234 51.598C22.9474 51.3527 22.7314 51.174 22.4754 51.062C22.2194 50.95 21.9287 50.894 21.6034 50.894C21.1394 50.894 20.7314 51.0007 20.3794 51.214C20.0327 51.4273 19.7127 51.7287 19.4194 52.118V56.038ZM19.3474 51.142C19.6887 50.7207 20.0834 50.382 20.5314 50.126C20.9794 49.87 21.4914 49.742 22.0674 49.742C22.5367 49.742 22.9607 49.8327 23.3394 50.014C23.718 50.19 24.0407 50.454 24.3074 50.806C24.574 51.1527 24.7794 51.5847 24.9234 52.102C25.0674 52.6193 25.1394 53.214 25.1394 53.886C25.1394 54.4833 25.0594 55.0407 24.8994 55.558C24.7394 56.07 24.5074 56.5153 24.2034 56.894C23.9047 57.2673 23.5367 57.5633 23.0994 57.782C22.6674 57.9953 22.1794 58.102 21.6354 58.102C21.1394 58.102 20.7127 58.0193 20.3554 57.854C20.0034 57.6833 19.6914 57.4487 19.4194 57.15V60.734H17.9874V49.886H18.8434C19.046 49.886 19.1714 49.9847 19.2194 50.182L19.3474 51.142ZM28.3881 56.038C28.6495 56.39 28.9348 56.638 29.2441 56.782C29.5535 56.926 29.9001 56.998 30.2841 56.998C31.0415 56.998 31.6228 56.7287 32.0281 56.19C32.4335 55.6513 32.6361 54.8833 32.6361 53.886C32.6361 53.358 32.5881 52.9047 32.4921 52.526C32.4015 52.1473 32.2681 51.838 32.0921 51.598C31.9161 51.3527 31.7001 51.174 31.4441 51.062C31.1881 50.95 30.8975 50.894 30.5721 50.894C30.1081 50.894 29.7001 51.0007 29.3481 51.214C29.0015 51.4273 28.6815 51.7287 28.3881 52.118V56.038ZM28.3161 51.142C28.6575 50.7207 29.0521 50.382 29.5001 50.126C29.9481 49.87 30.4601 49.742 31.0361 49.742C31.5055 49.742 31.9295 49.8327 32.3081 50.014C32.6868 50.19 33.0095 50.454 33.2761 50.806C33.5428 51.1527 33.7481 51.5847 33.8921 52.102C34.0361 52.6193 34.1081 53.214 34.1081 53.886C34.1081 54.4833 34.0281 55.0407 33.8681 55.558C33.7081 56.07 33.4761 56.5153 33.1721 56.894C32.8735 57.2673 32.5055 57.5633 32.0681 57.782C31.6361 57.9953 31.1481 58.102 30.6041 58.102C30.1081 58.102 29.6815 58.0193 29.3241 57.854C28.9721 57.6833 28.6601 57.4487 28.3881 57.15V60.734H26.9561V49.886H27.8121C28.0148 49.886 28.1401 49.9847 28.1881 50.182L28.3161 51.142ZM46.2186 48.318C46.1706 48.398 46.1173 48.4593 46.0586 48.502C46.0053 48.5393 45.9386 48.558 45.8586 48.558C45.768 48.558 45.6613 48.5127 45.5386 48.422C45.416 48.3313 45.2613 48.2327 45.0746 48.126C44.8933 48.014 44.672 47.9127 44.4106 47.822C44.1546 47.7313 43.8426 47.686 43.4746 47.686C43.128 47.686 42.8213 47.734 42.5546 47.83C42.2933 47.9207 42.072 48.046 41.8906 48.206C41.7146 48.366 41.5813 48.5553 41.4906 48.774C41.4 48.9873 41.3546 49.2193 41.3546 49.47C41.3546 49.79 41.432 50.0567 41.5866 50.27C41.7466 50.478 41.9546 50.6567 42.2106 50.806C42.472 50.9553 42.7653 51.086 43.0906 51.198C43.4213 51.3047 43.7573 51.4167 44.0986 51.534C44.4453 51.6513 44.7813 51.7847 45.1066 51.934C45.4373 52.078 45.7306 52.262 45.9866 52.486C46.248 52.71 46.456 52.9847 46.6106 53.31C46.7706 53.6353 46.8506 54.0353 46.8506 54.51C46.8506 55.0113 46.7653 55.4833 46.5946 55.926C46.424 56.3633 46.1733 56.7447 45.8426 57.07C45.5173 57.3953 45.1146 57.6513 44.6346 57.838C44.16 58.0247 43.6186 58.118 43.0106 58.118C42.264 58.118 41.5866 57.9847 40.9786 57.718C40.3706 57.446 39.8506 57.0807 39.4186 56.622L39.8666 55.886C39.9093 55.8273 39.96 55.7793 40.0186 55.742C40.0826 55.6993 40.152 55.678 40.2266 55.678C40.296 55.678 40.3733 55.7073 40.4586 55.766C40.5493 55.8193 40.6506 55.8887 40.7626 55.974C40.8746 56.0593 41.0026 56.1527 41.1466 56.254C41.2906 56.3553 41.4533 56.4487 41.6346 56.534C41.8213 56.6193 42.032 56.6913 42.2666 56.75C42.5013 56.8033 42.7653 56.83 43.0586 56.83C43.4266 56.83 43.7546 56.7793 44.0426 56.678C44.3306 56.5767 44.5733 56.4353 44.7706 56.254C44.9733 56.0673 45.128 55.846 45.2346 55.59C45.3413 55.334 45.3946 55.0487 45.3946 54.734C45.3946 54.3873 45.3146 54.1047 45.1546 53.886C45 53.662 44.7946 53.4753 44.5386 53.326C44.2826 53.1767 43.9893 53.0513 43.6586 52.95C43.328 52.8433 42.992 52.7367 42.6506 52.63C42.3093 52.518 41.9733 52.39 41.6426 52.246C41.312 52.102 41.0186 51.9153 40.7626 51.686C40.5066 51.4567 40.2986 51.1713 40.1386 50.83C39.984 50.4833 39.9066 50.0567 39.9066 49.55C39.9066 49.1447 39.984 48.7527 40.1386 48.374C40.2986 47.9953 40.528 47.6593 40.8266 47.366C41.1306 47.0727 41.5013 46.838 41.9386 46.662C42.3813 46.486 42.888 46.398 43.4586 46.398C44.0986 46.398 44.68 46.4993 45.2026 46.702C45.7306 46.9047 46.1946 47.198 46.5946 47.582L46.2186 48.318ZM50.8348 58.118C50.1948 58.118 49.7014 57.9393 49.3548 57.582C49.0134 57.2247 48.8428 56.71 48.8428 56.038V51.078H47.8668C47.7814 51.078 47.7094 51.054 47.6508 51.006C47.5921 50.9527 47.5628 50.8727 47.5628 50.766V50.198L48.8908 50.03L49.2188 47.526C49.2348 47.446 49.2694 47.382 49.3228 47.334C49.3814 47.2807 49.4561 47.254 49.5468 47.254H50.2668V50.046H52.6108V51.078H50.2668V55.942C50.2668 56.2833 50.3494 56.5367 50.5148 56.702C50.6801 56.8673 50.8934 56.95 51.1548 56.95C51.3041 56.95 51.4321 56.9313 51.5388 56.894C51.6508 56.8513 51.7468 56.806 51.8268 56.758C51.9068 56.71 51.9734 56.6673 52.0268 56.63C52.0854 56.5873 52.1361 56.566 52.1788 56.566C52.2534 56.566 52.3201 56.6113 52.3788 56.702L52.7948 57.382C52.5494 57.6113 52.2534 57.7927 51.9068 57.926C51.5601 58.054 51.2028 58.118 50.8348 58.118ZM57.4503 49.758C58.0423 49.758 58.5756 49.8567 59.0503 50.054C59.5249 50.2513 59.9303 50.5313 60.2663 50.894C60.6023 51.2567 60.8583 51.6967 61.0343 52.214C61.2156 52.726 61.3063 53.2993 61.3063 53.934C61.3063 54.574 61.2156 55.15 61.0343 55.662C60.8583 56.174 60.6023 56.6113 60.2663 56.974C59.9303 57.3367 59.5249 57.6167 59.0503 57.814C58.5756 58.006 58.0423 58.102 57.4503 58.102C56.8529 58.102 56.3143 58.006 55.8343 57.814C55.3596 57.6167 54.9543 57.3367 54.6183 56.974C54.2823 56.6113 54.0236 56.174 53.8423 55.662C53.6663 55.15 53.5783 54.574 53.5783 53.934C53.5783 53.2993 53.6663 52.726 53.8423 52.214C54.0236 51.6967 54.2823 51.2567 54.6183 50.894C54.9543 50.5313 55.3596 50.2513 55.8343 50.054C56.3143 49.8567 56.8529 49.758 57.4503 49.758ZM57.4503 56.99C58.2503 56.99 58.8476 56.7233 59.2423 56.19C59.6369 55.6513 59.8343 54.902 59.8343 53.942C59.8343 52.9767 59.6369 52.2247 59.2423 51.686C58.8476 51.1473 58.2503 50.878 57.4503 50.878C57.0449 50.878 56.6903 50.9473 56.3863 51.086C56.0876 51.2247 55.8369 51.4247 55.6343 51.686C55.4369 51.9473 55.2876 52.27 55.1863 52.654C55.0903 53.0327 55.0423 53.462 55.0423 53.942C55.0423 54.902 55.2396 55.6513 55.6343 56.19C56.0343 56.7233 56.6396 56.99 57.4503 56.99ZM64.4644 51.51C64.7204 50.9553 65.035 50.5233 65.4084 50.214C65.7817 49.8993 66.2377 49.742 66.7764 49.742C66.947 49.742 67.1097 49.7607 67.2644 49.798C67.4244 49.8353 67.5657 49.894 67.6884 49.974L67.5844 51.038C67.5524 51.1713 67.4724 51.238 67.3444 51.238C67.2697 51.238 67.1604 51.222 67.0164 51.19C66.8724 51.158 66.7097 51.142 66.5284 51.142C66.2724 51.142 66.043 51.1793 65.8404 51.254C65.643 51.3287 65.4644 51.4407 65.3044 51.59C65.1497 51.734 65.0084 51.9153 64.8804 52.134C64.7577 52.3473 64.6457 52.5927 64.5444 52.87V57.99H63.1124V49.886H63.9284C64.083 49.886 64.1897 49.9153 64.2484 49.974C64.307 50.0327 64.347 50.134 64.3684 50.278L64.4644 51.51ZM74.0364 53.054C74.0364 52.7233 73.9884 52.422 73.8924 52.15C73.8017 51.8727 73.6657 51.6353 73.4844 51.438C73.3084 51.2353 73.0924 51.0807 72.8364 50.974C72.5804 50.862 72.2897 50.806 71.9644 50.806C71.2817 50.806 70.7404 51.006 70.3404 51.406C69.9457 51.8007 69.7004 52.35 69.6044 53.054H74.0364ZM75.1884 56.854C75.0124 57.0673 74.8017 57.254 74.5564 57.414C74.311 57.5687 74.047 57.6967 73.7644 57.798C73.487 57.8993 73.199 57.974 72.9004 58.022C72.6017 58.0753 72.3057 58.102 72.0124 58.102C71.4524 58.102 70.935 58.0087 70.4604 57.822C69.991 57.63 69.583 57.3527 69.2364 56.99C68.895 56.622 68.6284 56.1687 68.4364 55.63C68.2444 55.0913 68.1484 54.4727 68.1484 53.774C68.1484 53.2087 68.2337 52.6807 68.4044 52.19C68.5804 51.6993 68.831 51.2753 69.1564 50.918C69.4817 50.5553 69.879 50.2727 70.3484 50.07C70.8177 49.862 71.3457 49.758 71.9324 49.758C72.4177 49.758 72.8657 49.8407 73.2764 50.006C73.6924 50.166 74.0497 50.4007 74.3484 50.71C74.6524 51.014 74.8897 51.3927 75.0604 51.846C75.231 52.294 75.3164 52.806 75.3164 53.382C75.3164 53.606 75.2924 53.7553 75.2444 53.83C75.1964 53.9047 75.1057 53.942 74.9724 53.942H69.5564C69.5724 54.454 69.6417 54.8993 69.7644 55.278C69.8924 55.6567 70.0684 55.974 70.2924 56.23C70.5164 56.4807 70.783 56.67 71.0924 56.798C71.4017 56.9207 71.7484 56.982 72.1324 56.982C72.4897 56.982 72.7964 56.942 73.0524 56.862C73.3137 56.7767 73.5377 56.686 73.7244 56.59C73.911 56.494 74.0657 56.406 74.1884 56.326C74.3164 56.2407 74.4257 56.198 74.5164 56.198C74.6337 56.198 74.7244 56.2433 74.7884 56.334L75.1884 56.854Z" fill="#ADADAD"/>
</svg>
