<svg width="65" height="53" viewBox="0 0 65 53" fill="none" xmlns="http://www.w3.org/2000/svg">
<path d="M35.4874 3.76147V3.32747C29.8454 3.32747 34.9449 7.01646 35.4874 3.76147ZM38.0914 1.80848C38.8509 -0.470013 42.7569 -0.687012 43.1909 2.13398H42.1059C41.7804 0.506483 39.0679 0.397983 39.0679 3.32747C39.0679 4.95496 41.5634 5.93146 42.1059 3.97847H43.1909C42.5399 7.55895 36.7894 6.25696 38.0914 1.80848ZM22.2505 0.0724847H23.3355V1.04898C23.878 -0.253014 26.265 -0.361514 26.699 1.15748C27.4585 -0.470013 30.4964 -0.361514 30.4964 1.91698V5.93146H29.3029V2.24248C29.3029 0.614982 26.916 0.614982 26.916 2.35098V5.93146H25.7225V2.13398C25.457 1.11842 24.1042 0.915526 23.5525 1.80848L23.3355 2.35098V5.93146H22.2505V0.0724847ZM24.746 28.1739C19.6465 28.1739 16.5 24.5934 16.5 18.8429C16.5 13.0924 19.6465 9.62045 24.746 9.62045C29.8454 9.62045 33.1004 13.2009 33.1004 18.8429C33.1004 24.4849 29.9539 28.1739 24.746 28.1739ZM34.2939 5.93146C31.1474 6.69096 30.7134 2.67647 33.9684 2.56797L35.4874 2.45947V2.02548C35.5959 0.723482 33.4259 0.614982 33.1004 1.80848H32.0154C32.0195 1.54061 32.0944 1.27858 32.2324 1.04898C33.1004 -0.470013 36.6809 -0.470013 36.6809 1.91698V5.93146H35.5959V4.95496C35.4619 5.20178 35.2762 5.41678 35.0515 5.5853C34.8268 5.75382 34.5684 5.87189 34.2939 5.93146ZM41.6719 28.1739C37.7659 27.9569 35.0534 26.1124 34.8364 22.8574H37.4404C39.9359 30.6694 53.2814 22.3149 40.1529 19.6024C38.0914 19.1684 36.5724 18.1919 35.9214 16.9984C31.7984 8.96945 47.7479 6.58246 48.1819 14.8284H45.6864C44.9269 9.51195 35.0534 12.4414 38.6339 16.1304C40.1529 17.6494 43.2994 17.5409 45.5779 18.5174C51.0029 21.0129 48.3989 28.3909 41.6719 28.1739ZM24.746 11.8989C21.274 11.8989 19.104 14.6114 19.104 18.8429C19.104 23.0744 21.274 25.7869 24.746 25.7869C28.218 25.7869 30.4964 23.1829 30.4964 18.8429C30.4964 14.5029 28.3265 11.8989 24.746 11.8989Z" fill="#0080FF"/>
<path d="M20.1186 37.7147V49.1787H18.7586V40.7547C18.7586 40.6427 18.7612 40.5227 18.7666 40.3947C18.7772 40.2667 18.7879 40.136 18.7986 40.0027L14.8626 47.1707C14.7399 47.4107 14.5532 47.5307 14.3026 47.5307H14.0786C13.8279 47.5307 13.6412 47.4107 13.5186 47.1707L9.50256 39.9707C9.53456 40.2534 9.55056 40.5147 9.55056 40.7547V49.1787H8.19056V37.7147H9.33456C9.47323 37.7147 9.5799 37.728 9.65456 37.7547C9.72923 37.7814 9.80123 37.856 9.87056 37.9787L13.8306 45.0347C13.8946 45.1627 13.9559 45.296 14.0146 45.4347C14.0786 45.5734 14.1372 45.7147 14.1906 45.8587C14.2439 45.7147 14.2999 45.5734 14.3586 45.4347C14.4172 45.2907 14.4812 45.1547 14.5506 45.0267L18.4386 37.9787C18.5026 37.856 18.5719 37.7814 18.6466 37.7547C18.7266 37.728 18.8359 37.7147 18.9746 37.7147H20.1186ZM26.8716 45.5307C26.2156 45.552 25.6556 45.6054 25.1916 45.6907C24.7329 45.7707 24.3569 45.8774 24.0636 46.0107C23.7756 46.144 23.5649 46.3014 23.4316 46.4827C23.3036 46.664 23.2396 46.8667 23.2396 47.0907C23.2396 47.304 23.2742 47.488 23.3436 47.6427C23.4129 47.7974 23.5062 47.9254 23.6236 48.0267C23.7462 48.1227 23.8876 48.1947 24.0476 48.2427C24.2129 48.2854 24.3889 48.3067 24.5756 48.3067C24.8262 48.3067 25.0556 48.2827 25.2636 48.2347C25.4716 48.1814 25.6662 48.1067 25.8476 48.0107C26.0342 47.9147 26.2102 47.8 26.3756 47.6667C26.5462 47.5334 26.7116 47.3814 26.8716 47.2107V45.5307ZM22.2716 42.2187C22.7196 41.7867 23.2022 41.464 23.7196 41.2507C24.2369 41.0374 24.8102 40.9307 25.4396 40.9307C25.8929 40.9307 26.2956 41.0054 26.6476 41.1547C26.9996 41.304 27.2956 41.512 27.5356 41.7787C27.7756 42.0454 27.9569 42.368 28.0796 42.7467C28.2022 43.1254 28.2636 43.5414 28.2636 43.9947V49.1787H27.6316C27.4929 49.1787 27.3862 49.1574 27.3116 49.1147C27.2369 49.0667 27.1782 48.976 27.1356 48.8427L26.9756 48.0747C26.7622 48.272 26.5542 48.448 26.3516 48.6027C26.1489 48.752 25.9356 48.88 25.7116 48.9867C25.4876 49.088 25.2476 49.1654 24.9916 49.2187C24.7409 49.2774 24.4609 49.3067 24.1516 49.3067C23.8369 49.3067 23.5409 49.264 23.2636 49.1787C22.9862 49.088 22.7436 48.9547 22.5356 48.7787C22.3329 48.6027 22.1702 48.3814 22.0476 48.1147C21.9302 47.8427 21.8716 47.5227 21.8716 47.1547C21.8716 46.8347 21.9596 46.528 22.1356 46.2347C22.3116 45.936 22.5969 45.672 22.9916 45.4427C23.3862 45.2134 23.9009 45.0267 24.5356 44.8827C25.1702 44.7334 25.9489 44.648 26.8716 44.6267V43.9947C26.8716 43.3654 26.7356 42.8907 26.4636 42.5707C26.1916 42.2454 25.7942 42.0827 25.2716 42.0827C24.9196 42.0827 24.6236 42.128 24.3836 42.2187C24.1489 42.304 23.9436 42.4027 23.7676 42.5147C23.5969 42.6214 23.4476 42.72 23.3196 42.8107C23.1969 42.896 23.0742 42.9387 22.9516 42.9387C22.8556 42.9387 22.7729 42.9147 22.7036 42.8667C22.6342 42.8134 22.5756 42.7494 22.5276 42.6747L22.2716 42.2187ZM36.0727 42.5147C36.03 42.5734 35.9874 42.6187 35.9447 42.6507C35.902 42.6827 35.8434 42.6987 35.7687 42.6987C35.6887 42.6987 35.6007 42.6667 35.5047 42.6027C35.4087 42.5334 35.2887 42.4587 35.1447 42.3787C35.006 42.2987 34.8327 42.2267 34.6247 42.1627C34.422 42.0934 34.1714 42.0587 33.8727 42.0587C33.4727 42.0587 33.1207 42.1307 32.8167 42.2747C32.5127 42.4134 32.2567 42.616 32.0487 42.8827C31.846 43.1494 31.6914 43.472 31.5847 43.8507C31.4834 44.2294 31.4327 44.6534 31.4327 45.1227C31.4327 45.6134 31.4887 46.0507 31.6007 46.4347C31.7127 46.8134 31.87 47.1334 32.0727 47.3947C32.2807 47.6507 32.5287 47.848 32.8167 47.9867C33.11 48.12 33.438 48.1867 33.8007 48.1867C34.1474 48.1867 34.4327 48.1467 34.6567 48.0667C34.8807 47.9814 35.0647 47.888 35.2087 47.7867C35.358 47.6854 35.4807 47.5947 35.5767 47.5147C35.678 47.4294 35.7767 47.3867 35.8727 47.3867C35.99 47.3867 36.0807 47.432 36.1447 47.5227L36.5447 48.0427C36.3687 48.2614 36.1687 48.448 35.9447 48.6027C35.7207 48.7574 35.478 48.888 35.2167 48.9947C34.9607 49.096 34.6914 49.1707 34.4087 49.2187C34.126 49.2667 33.838 49.2907 33.5447 49.2907C33.038 49.2907 32.566 49.1974 32.1287 49.0107C31.6967 48.824 31.3207 48.5547 31.0007 48.2027C30.6807 47.8454 30.43 47.408 30.2487 46.8907C30.0674 46.3734 29.9767 45.784 29.9767 45.1227C29.9767 44.52 30.0594 43.9627 30.2247 43.4507C30.3954 42.9387 30.6407 42.4987 30.9607 42.1307C31.286 41.7574 31.6834 41.4667 32.1527 41.2587C32.6274 41.0507 33.1714 40.9467 33.7847 40.9467C34.3554 40.9467 34.8567 41.04 35.2887 41.2267C35.726 41.408 36.1127 41.6667 36.4487 42.0027L36.0727 42.5147ZM48.8294 43.4507C48.8294 44.3094 48.6934 45.0987 48.4214 45.8187C48.1494 46.5334 47.7654 47.1494 47.2694 47.6667C46.7734 48.184 46.1761 48.5867 45.4774 48.8747C44.7841 49.1574 44.0161 49.2987 43.1734 49.2987C42.3308 49.2987 41.5628 49.1574 40.8694 48.8747C40.1761 48.5867 39.5814 48.184 39.0854 47.6667C38.5894 47.1494 38.2054 46.5334 37.9334 45.8187C37.6614 45.0987 37.5254 44.3094 37.5254 43.4507C37.5254 42.592 37.6614 41.8054 37.9334 41.0907C38.2054 40.3707 38.5894 39.752 39.0854 39.2347C39.5814 38.712 40.1761 38.3067 40.8694 38.0187C41.5628 37.7307 42.3308 37.5867 43.1734 37.5867C44.0161 37.5867 44.7841 37.7307 45.4774 38.0187C46.1761 38.3067 46.7734 38.712 47.2694 39.2347C47.7654 39.752 48.1494 40.3707 48.4214 41.0907C48.6934 41.8054 48.8294 42.592 48.8294 43.4507ZM47.2374 43.4507C47.2374 42.7467 47.1414 42.1147 46.9494 41.5547C46.7574 40.9947 46.4854 40.5227 46.1334 40.1387C45.7814 39.7494 45.3548 39.4507 44.8534 39.2427C44.3521 39.0347 43.7921 38.9307 43.1734 38.9307C42.5601 38.9307 42.0028 39.0347 41.5014 39.2427C41.0001 39.4507 40.5708 39.7494 40.2134 40.1387C39.8614 40.5227 39.5894 40.9947 39.3974 41.5547C39.2054 42.1147 39.1094 42.7467 39.1094 43.4507C39.1094 44.1547 39.2054 44.7867 39.3974 45.3467C39.5894 45.9014 39.8614 46.3734 40.2134 46.7627C40.5708 47.1467 41.0001 47.4427 41.5014 47.6507C42.0028 47.8534 42.5601 47.9547 43.1734 47.9547C43.7921 47.9547 44.3521 47.8534 44.8534 47.6507C45.3548 47.4427 45.7814 47.1467 46.1334 46.7627C46.4854 46.3734 46.7574 45.9014 46.9494 45.3467C47.1414 44.7867 47.2374 44.1547 47.2374 43.4507ZM56.9139 39.5067C56.8659 39.5867 56.8126 39.648 56.7539 39.6907C56.7006 39.728 56.6339 39.7467 56.5539 39.7467C56.4633 39.7467 56.3566 39.7014 56.2339 39.6107C56.1113 39.52 55.9566 39.4214 55.7699 39.3147C55.5886 39.2027 55.3673 39.1014 55.1059 39.0107C54.8499 38.92 54.5379 38.8747 54.1699 38.8747C53.8233 38.8747 53.5166 38.9227 53.2499 39.0187C52.9886 39.1094 52.7673 39.2347 52.5859 39.3947C52.4099 39.5547 52.2766 39.744 52.1859 39.9627C52.0953 40.176 52.0499 40.408 52.0499 40.6587C52.0499 40.9787 52.1273 41.2454 52.2819 41.4587C52.4419 41.6667 52.6499 41.8454 52.9059 41.9947C53.1673 42.144 53.4606 42.2747 53.7859 42.3867C54.1166 42.4934 54.4526 42.6054 54.7939 42.7227C55.1406 42.84 55.4766 42.9734 55.8019 43.1227C56.1326 43.2667 56.4259 43.4507 56.6819 43.6747C56.9433 43.8987 57.1513 44.1734 57.3059 44.4987C57.4659 44.824 57.5459 45.224 57.5459 45.6987C57.5459 46.2 57.4606 46.672 57.2899 47.1147C57.1193 47.552 56.8686 47.9334 56.5379 48.2587C56.2126 48.584 55.8099 48.84 55.3299 49.0267C54.8553 49.2134 54.3139 49.3067 53.7059 49.3067C52.9593 49.3067 52.2819 49.1734 51.6739 48.9067C51.0659 48.6347 50.5459 48.2694 50.1139 47.8107L50.5619 47.0747C50.6046 47.016 50.6553 46.968 50.7139 46.9307C50.7779 46.888 50.8473 46.8667 50.9219 46.8667C50.9913 46.8667 51.0686 46.896 51.1539 46.9547C51.2446 47.008 51.3459 47.0774 51.4579 47.1627C51.5699 47.248 51.6979 47.3414 51.8419 47.4427C51.9859 47.544 52.1486 47.6374 52.3299 47.7227C52.5166 47.808 52.7273 47.88 52.9619 47.9387C53.1966 47.992 53.4606 48.0187 53.7539 48.0187C54.1219 48.0187 54.4499 47.968 54.7379 47.8667C55.0259 47.7654 55.2686 47.624 55.4659 47.4427C55.6686 47.256 55.8233 47.0347 55.9299 46.7787C56.0366 46.5227 56.0899 46.2374 56.0899 45.9227C56.0899 45.576 56.0099 45.2934 55.8499 45.0747C55.6953 44.8507 55.4899 44.664 55.2339 44.5147C54.9779 44.3654 54.6846 44.24 54.3539 44.1387C54.0233 44.032 53.6873 43.9254 53.3459 43.8187C53.0046 43.7067 52.6686 43.5787 52.3379 43.4347C52.0073 43.2907 51.7139 43.104 51.4579 42.8747C51.2019 42.6454 50.9939 42.36 50.8339 42.0187C50.6793 41.672 50.6019 41.2454 50.6019 40.7387C50.6019 40.3334 50.6793 39.9414 50.8339 39.5627C50.9939 39.184 51.2233 38.848 51.5219 38.5547C51.8259 38.2614 52.1966 38.0267 52.6339 37.8507C53.0766 37.6747 53.5833 37.5867 54.1539 37.5867C54.7939 37.5867 55.3753 37.688 55.8979 37.8907C56.4259 38.0934 56.8899 38.3867 57.2899 38.7707L56.9139 39.5067Z" fill="#ADADAD"/>
</svg>
