<svg width="40" height="40" viewBox="0 0 40 40" fill="none" xmlns="http://www.w3.org/2000/svg">
<g clip-path="url(#clip0_143_1356)">
<path d="M24.5458 12.8983C24.0728 12.1021 23.7205 11.3254 23.4986 10.4937C22.1983 5.62525 25.5962 0.636156 30.6068 0.0630188C35.8211 -0.533819 40.2618 3.6322 39.9892 8.86261C39.8061 12.3725 37.3315 15.4655 33.9131 16.433C33.633 16.5127 33.535 16.6172 33.5404 16.9145C33.5597 18.0026 33.5619 19.0918 33.5404 20.1799C33.5339 20.529 33.6028 20.6582 33.9896 20.6507C35.3061 20.6227 36.6237 20.6378 37.9402 20.641C39.1769 20.6442 39.9968 21.4512 39.9978 22.6782C40.0011 27.7707 40.0011 32.8643 39.9978 37.9568C39.9968 39.1656 39.1791 39.9919 37.9789 39.9919C28.143 39.9951 18.3059 39.9951 8.46993 39.9919C7.27086 39.9919 6.45748 39.1634 6.45425 37.9536C6.44994 36.2202 6.44132 34.4868 6.46179 32.7534C6.4661 32.3688 6.40146 32.2287 5.97053 32.2406C4.68097 32.275 3.39034 32.2546 2.10078 32.2524C0.809068 32.2503 0.00215118 31.4541 0.00215118 30.1742C-3.46859e-06 24.2479 -3.46857e-06 18.3215 0.00107386 12.3952C0.00107386 11.1325 0.806913 10.3192 2.05876 10.3181C4.98801 10.3148 7.91726 10.3213 10.8476 10.3148C11.5748 10.3138 12.1468 10.5939 12.5788 11.1724C12.9247 11.6346 13.2759 12.0935 13.6174 12.5589C13.7811 12.7808 13.9848 12.8983 14.2649 12.8983C17.6649 12.8972 21.0649 12.8983 24.5458 12.8983ZM23.2271 24.5108C18.2025 24.5108 13.1778 24.514 8.15211 24.5032C7.81599 24.5021 7.73304 24.5872 7.73411 24.9223C7.74596 29.2079 7.74165 33.4946 7.74273 37.7802C7.74273 38.5171 7.93126 38.7045 8.67354 38.7045C18.3738 38.7045 28.074 38.7045 37.7753 38.7045C38.5198 38.7045 38.7094 38.5181 38.7094 37.7834C38.7094 33.5107 38.7051 29.2381 38.718 24.9665C38.7191 24.6056 38.6361 24.5021 38.2623 24.5032C33.2495 24.5151 28.2378 24.5108 23.2271 24.5108ZM16.7739 16.7616C16.7739 16.7637 16.7739 16.7669 16.7739 16.7691C11.7493 16.7691 6.72466 16.7713 1.70002 16.7648C1.41668 16.7648 1.28094 16.7906 1.28201 17.1408C1.29602 21.4802 1.29063 25.8197 1.29171 30.1592C1.29171 30.7345 1.5201 30.9596 2.10078 30.9607C3.24274 30.9639 4.38471 30.9618 5.52667 30.9618C6.46395 30.9618 6.45102 30.9618 6.45856 30.018C6.46071 29.7293 6.37561 29.6614 6.09766 29.6647C5.03649 29.6808 3.97533 29.6636 2.91416 29.6765C2.6556 29.6798 2.57373 29.613 2.5748 29.3447C2.58558 26.98 2.58558 24.6153 2.5748 22.2516C2.57373 21.9747 2.66853 21.9219 2.91955 21.9252C3.99472 21.937 5.06881 21.9219 6.14398 21.9359C6.395 21.9392 6.46718 21.8659 6.45748 21.6192C6.43917 21.1226 6.44994 20.6248 6.4521 20.1282C6.45748 18.8677 7.25901 18.0619 8.51948 18.0608C11.4347 18.0576 14.35 18.0651 17.2652 18.0565C18.0247 18.0543 18.614 18.3431 19.059 18.9528C19.3918 19.4085 19.7377 19.8535 20.0727 20.3081C20.2365 20.53 20.4433 20.6432 20.7223 20.6432C24.4704 20.641 28.2194 20.6399 31.9675 20.6464C32.1959 20.6464 32.2637 20.5807 32.2616 20.3523C32.2508 19.2502 32.2519 18.1491 32.2616 17.047C32.2637 16.8219 32.2045 16.7562 31.9685 16.7572C26.904 16.7626 21.8384 16.7616 16.7739 16.7616ZM31.6378 1.28578C27.7174 1.27609 24.5221 4.45312 24.5156 8.36488C24.5091 12.2659 27.6754 15.4601 31.5645 15.4774C35.486 15.4946 38.6932 12.3251 38.7072 8.41767C38.7223 4.49837 35.5474 1.29548 31.6378 1.28578ZM23.2196 23.2201C28.1774 23.2201 33.1353 23.2212 38.0931 23.2158C38.2935 23.2158 38.6124 23.3343 38.676 23.1296C38.7643 22.8398 38.7837 22.4875 38.579 22.1988C38.3905 21.9338 38.1082 21.9295 37.8195 21.9295C32.1765 21.9316 26.5334 21.9252 20.8904 21.9381C20.0501 21.9403 19.4145 21.6365 18.9394 20.9502C18.6485 20.5311 18.3221 20.1368 18.0247 19.722C17.8351 19.4581 17.597 19.3461 17.2717 19.3471C14.3564 19.3536 11.4401 19.3493 8.52487 19.3514C7.97543 19.3514 7.74704 19.5863 7.74489 20.1422C7.74058 21.0019 7.76428 21.8627 7.73519 22.7213C7.72226 23.1102 7.80198 23.2341 8.22753 23.233C13.2231 23.2137 18.2208 23.2201 23.2196 23.2201ZM27.1313 15.4785C26.6261 15.1068 26.1995 14.8234 25.8536 14.4507C25.6619 14.2449 25.4572 14.1824 25.1825 14.1824C21.582 14.1911 17.9816 14.1814 14.3812 14.1932C13.5894 14.1954 12.9828 13.8991 12.525 13.2592C12.2201 12.8336 11.8904 12.4253 11.5877 11.9987C11.3906 11.7218 11.146 11.6022 10.8034 11.6033C7.90217 11.6109 4.99986 11.6066 2.09863 11.6087C1.5201 11.6087 1.29386 11.836 1.29171 12.4124C1.28848 13.2861 1.31218 14.1598 1.28094 15.0314C1.26801 15.4106 1.38867 15.486 1.74634 15.486C10.0353 15.4763 18.3242 15.4785 26.6121 15.4785C26.7446 15.4785 26.8771 15.4785 27.1313 15.4785ZM6.4521 25.81C6.4521 25.0451 6.44455 24.2791 6.45641 23.5142C6.45964 23.2912 6.40254 23.2104 6.1666 23.2158C5.49543 23.2309 4.82426 23.2309 4.15308 23.2158C3.91392 23.2104 3.86544 23.2988 3.86652 23.5175C3.87406 25.0343 3.87621 26.5512 3.86544 28.0681C3.86436 28.3083 3.9193 28.3956 4.17571 28.388C4.83288 28.3697 5.49112 28.3687 6.14829 28.388C6.409 28.3956 6.45964 28.3019 6.45533 28.0648C6.44348 27.3129 6.4521 26.5609 6.4521 25.81Z" fill="#0080FF"/>
<path d="M30.2868 37.4128C28.0568 37.4128 25.8267 37.4063 23.5956 37.4203C23.295 37.4225 23.2163 37.3471 23.2174 37.0443C23.2282 33.417 23.2293 29.7896 23.2163 26.1612C23.2153 25.8423 23.3187 25.7938 23.6042 25.7949C28.0783 25.8035 32.5524 25.8046 37.0266 25.7938C37.3412 25.7928 37.4263 25.8714 37.4252 26.1903C37.4133 29.8047 37.4123 33.4181 37.4263 37.0325C37.4273 37.3675 37.3175 37.4214 37.018 37.4192C34.775 37.4085 32.5309 37.4128 30.2868 37.4128ZM30.3181 36.1232C32.1312 36.1232 33.9454 36.1157 35.7586 36.1308C36.0624 36.1329 36.1356 36.0521 36.1346 35.7526C36.1227 32.985 36.1238 30.2173 36.1335 27.4508C36.1346 27.1814 36.0807 27.0845 35.7866 27.0855C32.1463 27.0963 28.5049 27.0952 24.8647 27.0855C24.5802 27.0845 24.5081 27.162 24.5091 27.4432C24.5199 30.2109 24.5221 32.9785 24.507 35.7451C24.5048 36.0834 24.6223 36.1318 24.9174 36.1297C26.7177 36.1168 28.5179 36.1232 30.3181 36.1232Z" fill="#0080FF"/>
<path d="M15.4844 37.4128C13.4687 37.4128 11.4541 37.4042 9.43843 37.4214C9.09476 37.4246 8.99564 37.3277 9.02689 36.9969C9.06136 36.6371 9.00642 36.2654 9.06783 35.9121C9.25851 34.8186 9.90706 34.1086 10.9725 33.7919C11.731 33.5667 12.4937 33.3588 13.2543 33.139C13.3631 33.1078 13.515 33.1207 13.5398 32.9688C13.5603 32.8428 13.4364 32.7921 13.3588 32.7221C12.6219 32.052 12.2502 31.2182 12.2621 30.2227C12.2686 29.6463 12.2061 29.0667 12.3117 28.4936C12.5971 26.9476 13.8652 25.8391 15.3874 25.8025C16.9021 25.7669 18.2639 26.8141 18.6011 28.3352C18.8004 29.2337 18.7853 30.1548 18.6108 31.0566C18.4804 31.732 18.1109 32.2987 17.5808 32.7447C17.3309 32.9548 17.3955 33.0528 17.6735 33.1293C18.4352 33.3416 19.1968 33.557 19.9553 33.78C21.2351 34.1571 21.9289 35.0911 21.9343 36.4313C21.9386 37.4117 21.9386 37.4117 20.9647 37.4117C19.1387 37.4128 17.3115 37.4128 15.4844 37.4128ZM15.4628 36.1232C17.0745 36.1232 18.6862 36.1157 20.2989 36.1297C20.6383 36.1329 20.648 36.0166 20.5284 35.7634C20.3356 35.3562 20.0059 35.131 19.5847 35.0114C18.5397 34.7152 17.499 34.4049 16.4497 34.1269C16.1846 34.0569 16.1081 33.9427 16.1232 33.6863C16.1437 33.3243 16.1469 32.9602 16.1221 32.5993C16.1028 32.2998 16.1857 32.1156 16.4647 31.9583C17.04 31.6362 17.3643 31.1147 17.4063 30.4533C17.4365 29.9717 17.4333 29.4858 17.4085 29.0032C17.3611 28.1069 16.7535 27.3646 15.9272 27.1513C15.145 26.9498 14.3101 27.2827 13.8619 27.9754C13.4181 28.6617 13.3997 30.6278 13.8415 31.3205C13.9416 31.4767 14.0537 31.6739 14.2077 31.7385C14.8843 32.0208 14.8951 32.567 14.8401 33.1606C14.824 33.334 14.824 33.5107 14.8412 33.6842C14.8649 33.9363 14.7873 34.0558 14.518 34.1269C13.4687 34.4038 12.428 34.7162 11.383 35.0125C10.9618 35.1321 10.631 35.3551 10.4382 35.7623C10.3197 36.0133 10.324 36.1329 10.6666 36.1297C12.2664 36.1146 13.8652 36.1232 15.4628 36.1232Z" fill="#0080FF"/>
<path d="M10.3229 26.4403C10.3229 27.092 10.3229 27.092 9.5537 27.091C9.03336 27.091 9.03336 27.091 9.03336 26.311C9.03336 25.8003 9.03336 25.8003 9.82304 25.8003C10.3229 25.8014 10.3229 25.8014 10.3229 26.4403Z" fill="#0080FF"/>
<path d="M9.69377 29.6711C9.03229 29.6711 9.03229 29.6711 9.03229 28.9913C9.03229 28.3805 9.03229 28.3805 9.64098 28.3805C10.3218 28.3805 10.3218 28.3805 10.3218 29.0797C10.3229 29.6711 10.3229 29.6711 9.69377 29.6711Z" fill="#0080FF"/>
<path d="M10.3229 31.6329C10.3229 32.2513 10.3229 32.2513 9.68191 32.2513C9.03336 32.2513 9.03336 32.2513 9.03336 31.5995C9.03336 30.9607 9.03336 30.9607 9.65497 30.9607C10.3229 30.9618 10.3229 30.9618 10.3229 31.6329Z" fill="#0080FF"/>
<path d="M25.8063 18.7061C25.8063 19.3504 25.8063 19.3504 25.0295 19.3493C24.5156 19.3493 24.5156 19.3493 24.5167 18.5618C24.5167 18.0587 24.5167 18.0587 25.3139 18.0587C25.8063 18.0597 25.8063 18.0597 25.8063 18.7061Z" fill="#0080FF"/>
<path d="M27.0958 18.6652C27.0958 18.0587 27.0958 18.0587 27.7088 18.0587C28.3854 18.0587 28.3854 18.0587 28.3854 18.7223C28.3854 19.3493 28.3854 19.3493 27.7519 19.3493C27.0958 19.3493 27.0958 19.3493 27.0958 18.6652Z" fill="#0080FF"/>
<path d="M30.3084 19.3493C29.6771 19.3493 29.6771 19.3493 29.6771 18.6005C29.6771 18.0586 29.6771 18.0586 30.4764 18.0597C30.9677 18.0597 30.9677 18.0597 30.9677 18.8688C30.9666 19.3493 30.9666 19.3493 30.3084 19.3493Z" fill="#0080FF"/>
<path d="M31.6065 12.8983C31.0959 12.8983 30.5852 12.8821 30.0757 12.9047C29.774 12.9177 29.6523 12.8498 29.6684 12.5158C29.6975 11.8996 29.6609 11.2801 29.6835 10.6628C29.6943 10.3709 29.5952 10.3041 29.3205 10.3116C28.6762 10.331 28.0309 10.3084 27.3867 10.3224C27.1583 10.3278 27.0893 10.2588 27.0915 10.0294C27.1023 8.92834 27.1033 7.82624 27.0915 6.72413C27.0882 6.47958 27.1863 6.43972 27.3985 6.44295C28.0428 6.45372 28.6891 6.4311 29.3323 6.45372C29.6243 6.4645 29.6911 6.36538 29.6835 6.09067C29.6641 5.44642 29.6868 4.80111 29.6727 4.15687C29.6674 3.92847 29.7363 3.85953 29.9658 3.86168C31.0668 3.87245 32.1689 3.87353 33.271 3.86168C33.5156 3.85845 33.5554 3.95648 33.5522 4.16872C33.5414 4.81296 33.564 5.45935 33.5414 6.10252C33.5306 6.39447 33.6298 6.46126 33.9045 6.45372C34.5487 6.43433 35.194 6.45696 35.8383 6.44295C36.0667 6.43756 36.1356 6.50651 36.1335 6.73598C36.1227 7.83701 36.1216 8.93911 36.1335 10.0412C36.1367 10.2858 36.0387 10.3256 35.8264 10.3224C35.1822 10.3116 34.5358 10.3342 33.8926 10.3116C33.6007 10.3009 33.5339 10.4 33.5414 10.6747C33.5608 11.3189 33.5382 11.9642 33.5522 12.6085C33.5576 12.8369 33.4886 12.9101 33.2581 12.9037C32.7086 12.8875 32.1571 12.8983 31.6065 12.8983ZM30.9666 10.219C30.9666 10.4064 30.9666 10.5271 30.9666 10.6477C30.9666 11.6357 30.9666 11.6249 31.9556 11.6152C32.2163 11.613 32.2669 11.5258 32.2616 11.2898C32.2476 10.6316 32.2659 9.97334 32.2519 9.3151C32.2465 9.08455 32.3197 9.01345 32.547 9.02207C32.9898 9.03823 33.4337 9.02638 33.8765 9.02638C34.8644 9.02638 34.8536 9.02638 34.8439 8.03739C34.8418 7.77668 34.7545 7.72604 34.5186 7.73143C33.8603 7.74544 33.2021 7.72712 32.5438 7.74113C32.3133 7.74651 32.2422 7.67326 32.2508 7.44594C32.2669 7.00316 32.2551 6.5593 32.2551 6.11652C32.2551 5.10276 32.2551 5.1103 31.2263 5.15016C31.0065 5.15878 30.9591 5.23311 30.9612 5.4335C30.9709 6.10467 30.9558 6.77692 30.9698 7.44809C30.9742 7.67864 30.902 7.74544 30.6747 7.74113C30.0035 7.7282 29.3312 7.71743 28.6601 7.7422C28.0891 7.76375 28.4424 8.21192 28.409 8.44677C28.3843 8.6213 28.1462 9.03176 28.6622 9.02745C29.0113 9.02422 29.3603 9.02314 29.7094 9.02745C30.1101 9.03284 30.6445 8.89063 30.8772 9.09317C31.1487 9.32695 30.9278 9.87531 30.9666 10.219Z" fill="#0080FF"/>
<path d="M10.3229 21.268C10.3229 21.9295 10.3229 21.9295 9.6442 21.9295C9.03336 21.9295 9.03336 21.9295 9.03336 21.3208C9.03336 20.6389 9.03336 20.6389 9.73254 20.6389C10.3229 20.6399 10.3229 20.6399 10.3229 21.268Z" fill="#0080FF"/>
<path d="M12.9031 21.2863C12.9031 21.9306 12.9031 21.9306 12.1264 21.9295C11.6125 21.9295 11.6136 21.9295 11.6136 21.142C11.6136 20.6389 11.6136 20.6389 12.4108 20.6389C12.9031 20.6399 12.9031 20.6399 12.9031 21.2863Z" fill="#0080FF"/>
<path d="M15.4833 21.2648C15.4833 21.9295 15.4833 21.9295 14.8078 21.9295C14.1927 21.9295 14.1927 21.9295 14.1927 21.324C14.1927 20.6389 14.1927 20.6389 14.8886 20.6389C15.4833 20.6399 15.4833 20.6399 15.4833 21.2648Z" fill="#0080FF"/>
<path d="M3.87083 13.5328C3.87083 14.1889 3.87083 14.1889 3.10593 14.1889C2.58019 14.1889 2.58019 14.1889 2.58127 13.4132C2.58127 12.8972 2.58127 12.8972 3.4065 12.8983C3.87083 12.8983 3.87083 12.8983 3.87083 13.5328Z" fill="#0080FF"/>
<path d="M5.82616 14.1889C5.16145 14.1889 5.16145 14.1889 5.16145 13.5134C5.16145 12.8994 5.16145 12.8994 5.76691 12.8994C6.45209 12.8994 6.45209 12.8994 6.45209 13.5953C6.45209 14.1889 6.45209 14.1889 5.82616 14.1889Z" fill="#0080FF"/>
<path d="M8.39452 14.1889C7.74274 14.1889 7.74274 14.1889 7.74274 13.4197C7.74274 12.8983 7.74274 12.8983 8.52164 12.8983C9.03337 12.8983 9.03337 12.8983 9.03337 13.6869C9.03229 14.1889 9.03229 14.1889 8.39452 14.1889Z" fill="#0080FF"/>
<path d="M30.3019 29.6711C28.9186 29.6711 27.5353 29.6625 26.1531 29.6776C25.8655 29.6808 25.7976 29.5947 25.7998 29.3178C25.8073 28.3805 25.7955 28.3805 26.737 28.3805C29.3021 28.3805 31.8662 28.3881 34.4313 28.3719C34.7717 28.3697 34.8547 28.4635 34.8461 28.7942C34.8245 29.6701 34.8407 29.6701 33.967 29.6701C32.7453 29.6711 31.5236 29.6711 30.3019 29.6711Z" fill="#0080FF"/>
<path d="M30.3299 32.2524C28.9337 32.2524 27.5364 32.2459 26.1402 32.2578C25.8849 32.2599 25.7987 32.1985 25.7987 31.9281C25.7976 30.9628 25.7868 30.9628 26.7489 30.9628C29.314 30.9628 31.878 30.9682 34.4432 30.9564C34.7502 30.9553 34.8536 31.021 34.8472 31.3485C34.8278 32.2535 34.8439 32.2535 33.9562 32.2535C32.7474 32.2524 31.5387 32.2524 30.3299 32.2524Z" fill="#0080FF"/>
<path d="M31.6335 33.542C32.5869 33.542 33.5403 33.5538 34.4927 33.5344C34.7825 33.529 34.8471 33.6195 34.845 33.8953C34.8374 34.8315 34.8493 34.8315 33.9066 34.8315C32.1883 34.8315 30.47 34.8229 28.7516 34.8391C28.4424 34.8423 28.3746 34.7507 28.3789 34.4566C28.3918 33.5409 28.3789 33.5409 29.2968 33.5409C30.0757 33.542 30.8546 33.542 31.6335 33.542Z" fill="#0080FF"/>
<path d="M27.0958 34.2239C27.0958 34.8326 27.0958 34.8326 26.485 34.8326C25.8052 34.8326 25.8052 34.8326 25.8052 34.1711C25.8052 34.0774 25.817 33.9815 25.803 33.8899C25.7599 33.6066 25.8741 33.4956 26.1553 33.5398C26.2339 33.5517 26.3158 33.542 26.3955 33.542C27.0958 33.542 27.0958 33.542 27.0958 34.2239Z" fill="#0080FF"/>
</g>
<defs>
<clipPath id="clip0_143_1356">
<rect width="40" height="39.9881" fill="white" transform="translate(0 0.00592041)"/>
</clipPath>
</defs>
</svg>
