<svg width="22" height="20" viewBox="0 0 22 20" fill="none" xmlns="http://www.w3.org/2000/svg">
<g clip-path="url(#clip0_334_6355)">
<path d="M17.4833 12.9833C17.4833 14.3166 17.4875 15.6499 17.4792 16.9832C17.4792 17.1374 17.5167 17.1791 17.6708 17.1791C18.6 17.1708 19.5292 17.1749 20.4625 17.1749C21.425 17.1749 21.975 16.6291 21.975 15.6666C21.975 13.8791 21.975 12.0916 21.975 10.3083C21.975 9.46242 21.6042 8.99575 20.7708 8.80408C20.6833 8.78325 20.6542 8.75825 20.6458 8.66658C20.6167 8.41242 20.575 8.15825 20.5292 7.90825C19.4833 2.23742 13.5792 -1.33342 8.09167 0.470751C4.1875 1.75825 1.95833 4.54158 1.3375 8.60825C1.31667 8.73742 1.28333 8.78742 1.15 8.81242C0.4375 8.94158 0.00416667 9.47492 0 10.1999C0 12.0541 0 13.9083 0 15.7583C0 16.5833 0.5875 17.1666 1.4125 17.1707C2.3625 17.1707 3.31667 17.1666 4.26667 17.1749C4.45 17.1749 4.49583 17.1291 4.49583 16.9499C4.4875 15.2666 4.49167 13.5833 4.49167 11.8958C4.49167 10.9208 4.4875 9.94575 4.49583 8.97492C4.49583 8.81658 4.45 8.77492 4.3 8.78325C4.05 8.79575 3.8 8.77908 3.55417 8.78742C3.41667 8.79158 3.38333 8.76242 3.40417 8.61658C4.125 3.84992 9.00833 0.870751 13.5167 2.51242C16.3583 3.54575 18.0292 5.62492 18.5625 8.60408C18.5917 8.75408 18.5583 8.79575 18.4083 8.78742C18.175 8.77492 17.9375 8.79575 17.7042 8.77908C17.525 8.76658 17.4708 8.81242 17.4708 9.00408C17.4875 10.3291 17.4833 11.6583 17.4833 12.9833ZM7.19583 19.9666C7.6125 20.0124 8 20.0166 8.37917 19.9416C9.0625 19.8041 9.70417 19.5666 10.2042 19.0541C10.325 18.9291 10.4292 18.8833 10.5958 18.8874C11.5 18.8874 12.3917 18.7916 13.2625 18.5374C14.2833 18.2374 15.1792 17.7374 15.8167 16.8541C16.8458 15.4208 17.1208 12.7041 15.3125 10.8416C13.125 8.59158 9.35417 8.44158 7 10.5166C5.375 11.9458 4.9 14.1249 5.80833 15.9958C6.27917 16.9624 7.00833 17.6833 7.93333 18.2124C8.0625 18.2874 8.08333 18.3582 8.0375 18.4874C7.90833 18.8541 7.72917 19.1957 7.50833 19.5208C7.4125 19.6624 7.3125 19.7999 7.19583 19.9666Z" fill="#FEFEFE"/>
<path d="M17.4833 12.9833C17.4833 11.6583 17.4875 10.3333 17.4792 9.00828C17.4792 8.82078 17.5333 8.77494 17.7125 8.78327C17.9458 8.79994 18.1833 8.77911 18.4167 8.79161C18.5667 8.79994 18.5958 8.75828 18.5708 8.60827C18.0333 5.62494 16.3625 3.54994 13.525 2.51661C9.00833 0.870775 4.125 3.84994 3.40417 8.61661C3.38333 8.76244 3.41667 8.79161 3.55417 8.78744C3.80417 8.77911 4.05417 8.79577 4.3 8.78327C4.45 8.77494 4.49583 8.81661 4.49583 8.97494C4.4875 9.94994 4.49167 10.9208 4.49167 11.8958C4.49167 13.5791 4.4875 15.2624 4.49583 16.9499C4.49583 17.1333 4.45 17.1791 4.26667 17.1749C3.31667 17.1666 2.3625 17.1708 1.4125 17.1708C0.5875 17.1708 0.00416667 16.5874 0 15.7583C0 13.9083 0 12.0541 0 10.1999C0 9.47077 0.4375 8.94161 1.15 8.80827C1.28333 8.78327 1.31667 8.73327 1.3375 8.60411C1.95833 4.54161 4.1875 1.75827 8.09167 0.470775C13.5792 -1.33339 19.4833 2.23744 20.5292 7.90411C20.575 8.15411 20.6167 8.40828 20.6458 8.66244C20.6583 8.74994 20.6833 8.77911 20.7708 8.79994C21.6042 8.98744 21.975 9.45411 21.975 10.3041C21.975 12.0916 21.975 13.8791 21.975 15.6624C21.975 16.6249 21.425 17.1708 20.4625 17.1708C19.5333 17.1708 18.6042 17.1666 17.6708 17.1749C17.5167 17.1749 17.4792 17.1333 17.4792 16.9791C17.4875 15.6458 17.4833 14.3166 17.4833 12.9833Z" fill="#ADADAD"/>
<path d="M7.19583 19.9665C7.3125 19.7998 7.4125 19.6623 7.50833 19.5207C7.72917 19.1998 7.90833 18.8582 8.0375 18.4873C8.08333 18.3582 8.0625 18.2873 7.93333 18.2123C7.00833 17.6832 6.27917 16.9623 5.80833 15.9957C4.9 14.1248 5.375 11.9457 7 10.5165C9.35417 8.44151 13.125 8.59151 15.3125 10.8415C17.1208 12.704 16.8458 15.4207 15.8167 16.854C15.1792 17.7373 14.2875 18.2373 13.2625 18.5373C12.3917 18.7915 11.5 18.8873 10.5958 18.8873C10.4333 18.8873 10.325 18.9332 10.2042 19.054C9.70417 19.5623 9.0625 19.804 8.37917 19.9415C7.99583 20.0165 7.6125 20.0123 7.19583 19.9665Z" fill="#ADADAD"/>
</g>
<defs>
<clipPath id="clip0_334_6355">
<rect width="21.975" height="20" fill="white"/>
</clipPath>
</defs>
</svg>
