<svg width="40" height="48" viewBox="0 0 40 48" fill="none" xmlns="http://www.w3.org/2000/svg">
<g clip-path="url(#clip0_143_1332)">
<path d="M9.53377 38.2233C7.41971 38.2233 5.30564 38.2108 3.19157 38.2347C2.7831 38.2392 2.69093 38.1084 2.71938 37.7375C2.76944 37.0878 2.6477 36.4278 2.79561 35.7827C3.02204 34.7917 3.61826 34.1112 4.5763 33.7801C5.13838 33.5867 5.71753 33.4433 6.28758 33.2738C6.43663 33.2294 6.58796 33.1862 6.72678 33.1191C7.2752 32.8505 7.31389 32.6662 6.93158 32.2054C6.61982 31.8288 6.39112 31.4078 6.26141 30.9344C6.22045 30.7843 6.17835 30.6739 5.99174 30.6056C4.42383 30.0265 3.76959 28.7157 4.22699 27.1068C4.52282 26.0669 5.15545 25.2988 6.11804 24.8118C6.34788 24.6958 6.54928 24.5479 6.74953 24.3886C8.3732 23.1006 10.1687 22.8082 12.0495 23.674C13.9269 24.5388 14.9031 26.0873 14.9805 28.1604C15.0237 29.3244 14.2955 30.2802 13.1759 30.6045C12.9768 30.6625 12.8608 30.7296 12.8073 30.9401C12.665 31.5034 12.376 31.9926 11.9619 32.3954C11.7741 32.5775 11.8242 32.6992 11.9778 32.8517C12.186 33.0588 12.4375 33.1782 12.714 33.2567C13.2453 33.4069 13.779 33.5514 14.3081 33.7084C15.5756 34.0851 16.3391 35.1023 16.3493 36.4244C16.3527 36.8932 16.3288 37.3643 16.3573 37.8308C16.3766 38.1528 16.2765 38.2324 15.959 38.2301C13.8188 38.2165 11.6763 38.2233 9.53377 38.2233ZM9.53946 36.8579C11.228 36.8579 12.9176 36.8477 14.6062 36.8659C14.9361 36.8693 15.009 36.7703 14.9976 36.4597C14.9703 35.7133 14.6369 35.24 13.9098 35.0147C13.3955 34.8554 12.879 34.7018 12.3578 34.5675C11.6854 34.3946 11.1358 34.0452 10.7342 33.4763C10.634 33.3341 10.5544 33.2624 10.3576 33.3239C9.81709 33.4911 9.26297 33.4911 8.72137 33.3239C8.52453 33.2624 8.44488 33.3341 8.34475 33.4763C7.95448 34.0339 7.41515 34.3798 6.76319 34.5584C6.23069 34.704 5.69819 34.8542 5.1691 35.0135C4.44773 35.2308 4.10866 35.711 4.08135 36.4586C4.06997 36.7692 4.14279 36.8682 4.47276 36.8648C6.16128 36.8488 7.8498 36.8579 9.53946 36.8579ZM6.11235 29.1845C6.159 28.8124 6.11235 28.487 6.19655 28.1707C6.51855 26.9521 7.67458 26.3672 8.82491 26.8429C9.11164 26.9612 9.41203 27.0499 9.71241 27.1319C10.6602 27.3879 11.6296 27.2877 12.5922 27.2934C12.8608 27.2957 12.9654 27.3537 12.9529 27.6439C12.929 28.1593 12.9461 28.677 12.9461 29.2232C13.5025 28.9342 13.6891 28.5803 13.6129 27.9238C13.4422 26.4605 12.6924 25.3899 11.3236 24.8426C9.9377 24.2896 8.64969 24.5467 7.52097 25.5287C7.30479 25.7164 7.08405 25.8712 6.82235 25.9929C5.94282 26.4002 5.48314 27.108 5.45811 28.0774C5.44445 28.5473 5.66064 28.908 6.11235 29.1845ZM7.50049 29.4041C7.49935 29.4041 7.49822 29.4041 7.49708 29.4041C7.49708 29.6316 7.49025 29.8592 7.49822 30.0856C7.53576 31.195 8.43464 32.0745 9.5315 32.078C10.6284 32.0814 11.5386 31.2075 11.5796 30.1016C11.5932 29.7329 11.5671 29.362 11.5898 28.9945C11.6057 28.7305 11.5204 28.6531 11.2576 28.6611C10.2381 28.6941 9.25728 28.4995 8.31403 28.1127C7.901 27.9431 7.55397 28.1411 7.50618 28.5951C7.47774 28.8613 7.50049 29.1333 7.50049 29.4041Z" fill="#0080FF"/>
<path d="M26.5294 27.3003C23.7337 27.3003 20.9393 27.2923 18.1436 27.3094C17.7807 27.3116 17.6999 27.2081 17.7067 26.8599C17.7295 25.7517 17.7226 24.6423 17.709 23.5341C17.7056 23.2747 17.7738 23.1984 18.0401 23.1984C23.7292 23.2064 29.4194 23.2064 35.1085 23.1984C35.3793 23.1984 35.4385 23.2838 35.4351 23.5375C35.4225 24.6605 35.418 25.7835 35.4373 26.9066C35.443 27.2229 35.3634 27.3094 35.0402 27.3082C32.2048 27.2946 29.3671 27.3003 26.5294 27.3003ZM20.4341 25.9349C20.5478 25.9349 20.6605 25.9349 20.7743 25.9349C21.8472 25.9349 21.837 25.9349 21.8108 24.8642C21.804 24.6093 21.7153 24.5581 21.4877 24.5649C21.0212 24.5797 20.5535 24.5695 20.0859 24.5695C19.0471 24.5695 19.0471 24.5695 19.0778 25.6186C19.0789 25.647 19.0812 25.6755 19.0778 25.7039C19.0539 25.8996 19.1586 25.9417 19.3292 25.9372C19.6979 25.9292 20.0666 25.9349 20.4341 25.9349ZM24.5075 25.9349C24.6349 25.9349 24.7623 25.9349 24.8898 25.9349C25.9263 25.9349 25.9184 25.9349 25.8967 24.8801C25.8922 24.6457 25.8387 24.5547 25.5895 24.5649C25.123 24.5831 24.6554 24.5706 24.1877 24.5706C23.1182 24.5706 23.1239 24.5706 23.1591 25.647C23.166 25.8621 23.2138 25.9519 23.4436 25.9406C23.7997 25.9224 24.1536 25.9349 24.5075 25.9349ZM28.5991 25.9349C28.7128 25.9349 28.8255 25.9349 28.9393 25.9349C30.0486 25.9349 30.0429 25.9349 29.9849 24.8335C29.9747 24.6332 29.9223 24.5615 29.7175 24.5661C29.2362 24.5775 28.7549 24.5695 28.2736 24.5695C27.1643 24.5695 27.1688 24.5695 27.2496 25.6925C27.2621 25.8734 27.3088 25.9428 27.4954 25.9383C27.8629 25.9269 28.2315 25.9349 28.5991 25.9349ZM32.7453 24.5695C32.6178 24.5695 32.4904 24.5695 32.363 24.5695C31.2536 24.5695 31.2581 24.5695 31.3378 25.6914C31.3503 25.87 31.3947 25.9406 31.5813 25.9383C32.3322 25.9303 33.0821 25.9326 33.833 25.9372C33.9821 25.9383 34.0515 25.9042 34.072 25.7301C34.2062 24.6173 34.1709 24.5706 33.0843 24.5706C32.9717 24.5695 32.859 24.5695 32.7453 24.5695Z" fill="#0080FF"/>
<path d="M9.53264 45.0502C7.40492 45.0502 5.27606 45.0445 3.14834 45.057C2.83317 45.0593 2.71142 45.0024 2.71711 44.6474C2.73873 43.0841 2.73531 41.5196 2.71938 39.9562C2.71597 39.6524 2.80358 39.5807 3.09828 39.5819C7.39696 39.591 11.6956 39.5921 15.9943 39.5807C16.3083 39.5796 16.3607 39.6865 16.3584 39.9699C16.3459 41.5332 16.3425 43.0977 16.3607 44.6611C16.3641 44.9854 16.2731 45.0593 15.959 45.0582C13.8165 45.0434 11.6752 45.0502 9.53264 45.0502ZM9.53719 40.9541C7.83502 40.9541 6.13284 40.9575 4.43066 40.9495C4.19286 40.9484 4.07339 40.9791 4.08135 41.2658C4.10297 41.9758 4.09614 42.687 4.08363 43.397C4.08022 43.6188 4.14507 43.6883 4.37036 43.6883C7.81681 43.6814 11.2644 43.6814 14.7109 43.6883C14.9418 43.6883 14.9964 43.6075 14.993 43.3924C14.9817 42.7109 14.9714 42.027 14.9964 41.3466C15.0078 41.0292 14.9213 40.9416 14.5993 40.945C12.9131 40.9632 11.2246 40.9541 9.53719 40.9541Z" fill="#0080FF"/>
<path d="M26.5271 45.0787C23.7326 45.0787 20.937 45.0707 18.1425 45.0878C17.7784 45.09 17.6988 44.9842 17.7067 44.6383C17.7295 43.7144 17.7124 43.7133 18.6375 43.7133C24.0853 43.7133 28.623 43.7178 34.072 43.703C34.4611 43.7019 34.5396 43.8123 34.5294 44.1752C34.5043 45.0775 34.5226 45.0787 33.6191 45.0787C30.9521 45.0787 29.1953 45.0787 26.5271 45.0787Z" fill="#0080FF"/>
<path d="M26.568 36.2037C23.7736 36.2037 20.9779 36.198 18.1835 36.2105C17.8364 36.2117 17.6885 36.1661 17.7044 35.7599C17.7386 34.8383 17.7135 34.8372 18.6409 34.8372C24.0751 34.8372 20.6332 34.8406 26.0674 34.8303C26.4292 34.8292 26.584 34.8838 26.568 35.3014C26.5328 36.2014 26.5578 36.2025 25.6532 36.2025C22.9987 36.2037 29.2214 36.2037 26.568 36.2037Z" fill="#0080FF"/>
<path d="M31.2286 40.9825C28.8733 40.9825 20.4887 40.9768 18.1334 40.9894C17.8103 40.9916 17.6988 40.9211 17.7067 40.5741C17.7272 39.6171 17.7101 39.616 18.6477 39.616C23.1876 39.616 26.8172 39.6206 31.356 39.608C31.7019 39.6069 31.8145 39.6809 31.8043 40.045C31.7793 40.9803 31.7986 40.9814 30.8838 40.9814C28.6855 40.9825 33.4268 40.9825 31.2286 40.9825Z" fill="#0080FF"/>
<path d="M26.1664 30.2506C26.4873 30.2483 26.5692 30.3337 26.5646 30.6511C26.5498 31.624 26.5646 31.624 25.5963 31.624C21.9656 31.624 27.2086 31.6194 23.5779 31.6319C23.2422 31.6331 23.1523 31.5432 23.158 31.2098C23.1762 30.2586 23.1614 30.2586 24.1047 30.2586C25.8353 30.2586 24.2514 30.2666 26.1664 30.2506Z" fill="#0080FF"/>
<path d="M34.5203 40.2862C34.5203 40.9825 34.5203 40.9825 33.7147 40.9825C33.1572 40.9825 33.1572 40.9825 33.1572 40.1644C33.1572 39.616 33.1572 39.616 34.0265 39.6171C34.5203 39.6183 34.5203 39.6183 34.5203 40.2862Z" fill="#0080FF"/>
<path d="M18.3906 30.2586C19.0789 30.2586 19.0789 30.2586 19.0778 31.0733C19.0778 31.624 19.0778 31.624 18.254 31.624C17.7147 31.624 17.7147 31.624 17.7147 30.7877C17.7158 30.2586 17.7158 30.2586 18.3906 30.2586Z" fill="#0080FF"/>
<path d="M21.804 30.9595C21.804 31.624 21.804 31.624 21.0087 31.624C20.4409 31.624 20.4409 31.624 20.4409 30.774C20.4409 30.2574 20.4409 30.2574 21.2999 30.2586C21.804 30.2597 21.804 30.2597 21.804 30.9595Z" fill="#0080FF"/>
<path d="M27.4146 6.18916C27.4146 7.04025 27.4226 7.85379 27.41 8.66619C27.4055 8.94837 27.6262 8.91992 27.7776 8.96999C28.7219 9.28061 29.4342 9.84952 29.7596 10.811C30.225 12.1843 29.3523 13.6783 27.8106 14.1436C27.5443 14.2244 27.4146 14.3155 27.3702 14.6045C27.3145 14.9606 27.0437 15.1574 26.6875 15.1415C26.3576 15.1279 26.0959 14.9435 26.0606 14.5942C26.0333 14.3132 25.8967 14.2347 25.651 14.1516C24.5439 13.7795 23.7633 13.0866 23.5733 11.8726C23.4903 11.3389 23.6791 10.9862 24.0762 10.9031C24.5166 10.811 24.8397 11.0499 24.9296 11.6074C25.0115 12.1206 25.2869 12.4585 25.7238 12.6941C25.8922 12.784 26.0333 12.8352 26.0287 12.5405C26.0196 11.8145 26.0151 11.0875 26.031 10.3615C26.0378 10.068 25.8228 10.0691 25.6487 10.0122C24.7362 9.7164 24.0375 9.17366 23.7008 8.25544C23.1762 6.82861 24.0467 5.31531 25.6646 4.82719C25.8911 4.75892 26.0321 4.68838 26.056 4.42213C26.0902 4.05006 26.353 3.85436 26.7023 3.84298C27.0585 3.8316 27.3327 4.03754 27.3736 4.39368C27.41 4.70317 27.5728 4.76689 27.8253 4.84312C28.978 5.19357 29.8302 6.2085 29.8746 7.24847C29.895 7.73204 29.6914 8.03356 29.3056 8.08818C28.8847 8.14734 28.5922 7.91978 28.5103 7.418C28.4079 6.78765 28.062 6.39283 27.4146 6.18916ZM26.0253 7.47717C26.0253 7.13013 26.0185 6.78196 26.0276 6.43493C26.0333 6.1994 25.9366 6.17892 25.7568 6.2745C25.3051 6.51344 24.9706 6.83999 24.9455 7.38501C24.9239 7.8663 25.2562 8.33736 25.7283 8.5581C25.9423 8.65823 26.0333 8.63661 26.0265 8.38287C26.0196 8.08249 26.0253 7.77983 26.0253 7.47717ZM27.4135 12.7794C28.0893 12.5575 28.475 12.1217 28.4978 11.5972C28.5171 11.1523 28.1496 10.6346 27.6979 10.4253C27.4738 10.3217 27.4078 10.365 27.41 10.6084C27.4191 11.3196 27.4135 12.0296 27.4135 12.7794Z" fill="#0080FF"/>
<path d="M15.7929 11.2957C15.7929 12.1468 15.8009 12.9603 15.7884 13.7727C15.7838 14.0549 16.0046 14.0265 16.1559 14.0765C17.1003 14.3871 17.8125 14.9561 18.138 15.9175C18.6033 17.2909 17.7306 18.7848 16.1889 19.2502C15.9226 19.331 15.7929 19.422 15.7485 19.711C15.6928 20.0671 15.422 20.264 15.0659 20.248C14.7359 20.2344 14.4742 20.0501 14.4389 19.7008C14.4116 19.4197 14.2751 19.3412 14.0293 19.2581C12.9222 18.8861 12.1417 18.1932 11.9516 16.9791C11.8686 16.4455 12.0575 16.0927 12.4546 16.0097C12.8949 15.9175 13.218 16.1565 13.3079 16.714C13.3898 17.2271 13.6652 17.5651 14.1021 17.8006C14.2705 17.8905 14.4116 17.9417 14.4071 17.647C14.398 16.9211 14.3934 16.194 14.4093 15.4681C14.4162 15.1745 14.2011 15.1757 14.027 15.1188C13.1145 14.8229 12.4159 14.2802 12.0791 13.362C11.5545 11.9351 12.425 10.4219 14.043 9.93373C14.2694 9.86546 14.4105 9.79491 14.4344 9.52866C14.4685 9.1566 14.7313 8.96089 15.0806 8.94951C15.4368 8.93814 15.711 9.14408 15.752 9.50022C15.7884 9.8097 15.9511 9.87342 16.2037 9.94966C17.3563 10.3001 18.2085 11.315 18.2529 12.355C18.2734 12.8386 18.0697 13.1401 17.684 13.1947C17.263 13.2539 16.9706 13.0263 16.8886 12.5245C16.7851 11.8942 16.4403 11.4994 15.7929 11.2957ZM14.4036 12.5837C14.4036 12.2367 14.3968 11.8885 14.4059 11.5415C14.4116 11.3059 14.3149 11.2855 14.1351 11.381C13.6834 11.62 13.3489 11.9465 13.3239 12.4915C13.3022 12.9728 13.6345 13.4439 14.1067 13.6646C14.3206 13.7648 14.4116 13.7431 14.4048 13.4894C14.3968 13.1879 14.4036 12.8864 14.4036 12.5837ZM15.7918 17.8859C16.4676 17.6641 16.8534 17.2283 16.8761 16.7037C16.8955 16.2589 16.528 15.7412 16.0762 15.5318C15.8521 15.4283 15.7861 15.4715 15.7884 15.715C15.7975 16.425 15.7918 17.135 15.7918 17.8859Z" fill="#0080FF"/>
<path d="M13.3056 2.63805C13.3056 2.10782 13.2954 1.57874 13.3079 1.04851C13.3204 0.523979 13.5946 0.214492 14.0134 0.219044C14.4184 0.223595 14.6904 0.512601 14.6972 1.01779C14.712 2.10668 14.7108 3.19671 14.6972 4.28674C14.6904 4.80331 14.4344 5.0798 14.0213 5.08777C13.5901 5.09573 13.3216 4.80218 13.3079 4.27195C13.2954 3.72808 13.3068 3.18306 13.3056 2.63805Z" fill="#0080FF"/>
<path d="M11.2269 4.07169C11.2269 4.61671 11.2371 5.16059 11.2246 5.7056C11.2121 6.20283 10.9447 6.48273 10.5237 6.47363C10.1289 6.46453 9.85579 6.18235 9.8501 5.7147C9.83644 4.59509 9.83645 3.47548 9.85124 2.357C9.85693 1.89163 10.1391 1.61514 10.5373 1.61287C10.9458 1.61059 11.2098 1.87684 11.2223 2.3479C11.2382 2.92136 11.2269 3.4971 11.2269 4.07169Z" fill="#0080FF"/>
<path d="M23.2809 14.2847C23.1171 9.92803 19.5034 6.43266 15.1432 6.40762C14.5095 6.40421 13.8928 6.47248 13.3 6.60447C12.8505 6.70459 12.6287 7.21547 12.8585 7.61485C13.0075 7.87427 13.3079 8.00626 13.6004 7.94026C14.0521 7.83786 14.5186 7.77983 14.9976 7.77301C18.8127 7.71953 21.9224 10.7962 21.9224 14.5988C21.9224 16.2259 21.3523 17.7198 20.4011 18.8929C20.062 19.3105 20.351 19.9329 20.8892 19.9329C21.16 19.9329 21.4194 19.8111 21.5856 19.5961C22.7097 18.1363 23.356 16.2873 23.2809 14.2847Z" fill="#0080FF"/>
<path d="M26.8229 1.27379C23.4482 1.21804 20.5308 3.20239 19.2235 6.07424C19.0835 6.38146 19.1916 6.75011 19.4806 6.92647C19.4852 6.92875 19.4886 6.93102 19.4931 6.9333C19.8424 7.14607 20.2976 7.01408 20.4671 6.64202C21.5696 4.21733 24.0478 2.55156 26.9049 2.64145C30.4423 2.75295 33.3404 5.6066 33.5031 9.1418C33.684 13.0593 30.5607 16.2919 26.6841 16.2919C25.9639 16.2919 25.2687 16.1792 24.6167 15.9721C24.2333 15.8504 23.8305 16.0939 23.7542 16.4887L23.752 16.5023C23.6871 16.8403 23.8862 17.1725 24.2139 17.2761C24.9933 17.523 25.8228 17.6572 26.6841 17.6572C31.2741 17.6572 34.9822 13.882 34.8741 9.26696C34.7706 4.90002 31.1922 1.34661 26.8229 1.27379Z" fill="#0080FF"/>
<path d="M11.5147 8.01991C11.3179 7.6797 10.8741 7.5682 10.5464 7.78666C8.34931 9.25558 6.90086 11.7576 6.90086 14.5999C6.90086 16.4807 7.5369 18.2125 8.60304 19.5961C8.76916 19.8111 9.02858 19.934 9.29938 19.934C9.83416 19.934 10.1277 19.3139 9.79092 18.8986C8.77257 17.6459 8.19001 16.0256 8.27421 14.2665C8.38003 12.0501 9.55994 10.1078 11.294 8.93813C11.5978 8.73446 11.6968 8.33509 11.5147 8.01991Z" fill="#0080FF"/>
<path d="M35.4453 31.3338C34.6431 31.3338 33.841 31.3111 33.04 31.3395C31.7656 31.3839 30.704 32.2793 30.4457 33.4854C30.1738 34.7575 30.7791 36.0114 31.9488 36.586C32.4802 36.8465 33.0513 36.8841 33.6305 36.875C33.9172 36.8704 34.2085 36.8568 34.4918 36.8932C34.8514 36.9387 35.0619 37.172 35.0755 37.5361C35.0903 37.9036 34.8889 38.1402 34.5396 38.2256C32.5336 38.716 30.3752 37.7352 29.4206 35.9067C28.1155 33.4081 29.9155 30.1676 32.7282 29.9798C34.4952 29.8615 36.2668 29.9229 38.0361 29.9457C39.257 29.9616 39.9852 30.7535 39.9932 31.9755C40.0034 33.383 40.0034 34.7894 39.9932 36.1969C39.9841 37.4769 39.2035 38.2404 37.9144 38.2495C37.5207 38.2529 37.127 38.2609 36.7345 38.2438C36.3146 38.2256 36.0279 37.9377 36.0256 37.5656C36.0233 37.189 36.3044 36.9 36.7254 36.8818C37.1327 36.8636 37.5423 36.8841 37.9508 36.8727C38.4196 36.8591 38.6119 36.6702 38.613 36.2003C38.6198 34.7928 38.6198 33.3864 38.613 31.979C38.6107 31.509 38.4253 31.3338 37.9405 31.3293C37.1088 31.3213 36.2759 31.327 35.4442 31.327C35.4453 31.3293 35.4453 31.3315 35.4453 31.3338Z" fill="#0080FF"/>
<path d="M33.0889 36.1616C31.9397 36.1707 30.9953 35.2445 30.9896 34.1032C30.9839 32.9677 31.9306 32.0188 33.0696 32.0188C34.204 32.0188 35.162 32.9791 35.1518 34.1055C35.1392 35.2286 34.2131 36.1536 33.0889 36.1616ZM33.742 34.0896C33.7397 33.7005 33.4405 33.4092 33.0502 33.4183C32.685 33.4262 32.3903 33.7141 32.38 34.0759C32.3698 34.4366 32.6963 34.7768 33.0593 34.7825C33.4268 34.7871 33.7443 34.4662 33.742 34.0896Z" fill="#0080FF"/>
<path d="M36.7936 39.9573C36.7936 41.9405 36.7936 43.8032 36.7936 45.3836C36.7936 45.9536 36.3317 46.4156 35.7616 46.4156C27.6274 46.4156 6.8838 46.4156 2.32229 46.4156C1.56905 46.4156 1.36311 46.2096 1.36311 45.4564C1.36311 37.907 1.36311 30.3576 1.36311 22.807C1.36311 22.0344 1.5645 21.8387 2.35528 21.8387C7.93173 21.8387 13.5082 21.8387 19.0858 21.8387C24.6486 21.8387 30.2113 21.8387 35.773 21.8387C36.6104 21.8387 36.7936 22.023 36.7936 22.865C36.7936 24.2657 36.7936 26.1465 36.7936 28.2697C36.7936 28.6383 37.0895 28.9387 37.457 28.9444C37.4615 28.9444 37.4661 28.9444 37.4706 28.9444C37.8472 28.9501 38.1556 28.6463 38.1556 28.2708C38.1556 26.0225 38.1556 24.0848 38.1556 22.8218C38.1556 21.2744 37.3637 20.4733 35.831 20.4733C24.6599 20.4733 13.4888 20.4733 2.3166 20.4733C0.810127 20.4733 0 21.2812 0 22.7865C0 30.3382 0 37.891 0 45.4427C0 46.9811 0.798748 47.781 2.3348 47.781C6.90542 47.781 27.7594 47.781 35.8367 47.781C37.1156 47.781 38.151 46.7456 38.1522 45.4666C38.1522 44.0637 38.1533 42.1271 38.1533 39.9551C38.1533 39.5796 37.8495 39.2746 37.474 39.2746C37.0986 39.2758 36.7936 39.5807 36.7936 39.9573Z" fill="#0080FF"/>
</g>
<defs>
<clipPath id="clip0_143_1332">
<rect width="40" height="47.5619" fill="white" transform="translate(0 0.219025)"/>
</clipPath>
</defs>
</svg>
