<svg width="122" height="110" viewBox="0 0 122 110" fill="none" xmlns="http://www.w3.org/2000/svg">
<g clip-path="url(#clip0_318_2513)">
<path d="M36.1794 9.12506C21.1718 17.8429 3.77912 36.5872 5.55762 57.9425C6.32408 67.1433 10.5955 73.6496 13.5777 78.4766C15.5412 81.6548 35.359 111.273 64.9411 109.668C97.053 107.924 120.363 70.5307 114.841 61.7517C112.542 58.0958 104.802 60.768 101.59 56.4166C95.0105 47.5027 119.455 30.023 115.196 16.9355C110.135 1.38109 65.5403 -7.92957 36.1794 9.12506Z" fill="#5FB3FF"/>
<path d="M62.0274 5.44482C61.8812 5.44482 61.7344 5.41784 61.5942 5.36323C61.2886 5.24479 61.0483 5.01186 60.9166 4.70721C60.6486 4.08672 60.9271 3.35897 61.5369 3.08524C61.8312 2.95299 62.1591 2.94443 62.46 3.06156C62.7656 3.18 63.0066 3.41293 63.1376 3.71758C63.4056 4.33807 63.1271 5.06582 62.5173 5.33954C62.3606 5.40995 62.194 5.44482 62.0274 5.44482ZM62.0268 3.41556C61.9207 3.41556 61.8154 3.43793 61.7153 3.48267C61.3215 3.65968 61.1424 4.13146 61.3163 4.53415C61.4012 4.73024 61.556 4.88026 61.7515 4.95659C61.9425 5.03094 62.1506 5.02568 62.3382 4.94145C62.732 4.76445 62.9111 4.29267 62.7372 3.88998C62.6523 3.69389 62.4976 3.54387 62.302 3.46754C62.2131 3.43333 62.1196 3.41556 62.0268 3.41556Z" fill="#00539E"/>
<path d="M104.042 103.123C103.986 103.123 103.931 103.101 103.888 103.059C103.803 102.974 103.803 102.836 103.888 102.751L121.628 85.023C121.713 84.9381 121.852 84.9381 121.937 85.023C122.021 85.1079 122.021 85.2461 121.937 85.3309L104.196 103.059C104.154 103.101 104.098 103.123 104.042 103.123Z" fill="#FEC115"/>
<path d="M58.0013 5.34936C57.8808 5.34936 57.7834 5.25198 57.7834 5.13157V4.00442C57.7834 3.884 57.8808 3.78662 58.0013 3.78662C58.1218 3.78662 58.2193 3.884 58.2193 4.00442V5.13157C58.2193 5.25198 58.1218 5.34936 58.0013 5.34936Z" fill="#00539E"/>
<path d="M58.0013 7.97473C57.8808 7.97473 57.7834 7.87735 57.7834 7.75693V6.62978C57.7834 6.50937 57.8808 6.41199 58.0013 6.41199C58.1218 6.41199 58.2193 6.50937 58.2193 6.62978V7.75693C58.2193 7.87735 58.1218 7.97473 58.0013 7.97473Z" fill="#00539E"/>
<path d="M57.2503 6.0988H56.1224C56.0019 6.0988 55.9044 6.00142 55.9044 5.881C55.9044 5.76059 56.0019 5.66321 56.1224 5.66321H57.2503C57.3708 5.66321 57.4683 5.76059 57.4683 5.881C57.469 6.00076 57.3708 6.0988 57.2503 6.0988Z" fill="#00539E"/>
<path d="M59.8773 6.0988H58.7494C58.6289 6.0988 58.5314 6.00142 58.5314 5.881C58.5314 5.76059 58.6289 5.66321 58.7494 5.66321H59.8773C59.9978 5.66321 60.0953 5.76059 60.0953 5.881C60.0959 6.00076 59.9978 6.0988 59.8773 6.0988Z" fill="#00539E"/>
<path d="M53.3273 51.5027C64.0694 51.5027 72.7776 42.8006 72.7776 32.0661C72.7776 21.3316 64.0694 12.6295 53.3273 12.6295C42.5852 12.6295 33.877 21.3316 33.877 32.0661C33.877 42.8006 42.5852 51.5027 53.3273 51.5027Z" fill="white"/>
<path d="M67.5038 44.8247C74.874 37.4597 74.874 25.5186 67.5038 18.1536C60.1335 10.7885 48.184 10.7885 40.8138 18.1536C33.4435 25.5186 33.4435 37.4597 40.8138 44.8247C48.184 52.1897 60.1335 52.1897 67.5038 44.8247Z" fill="white"/>
<path d="M54.1594 50.5664C43.6325 50.5664 35.0686 42.0084 35.0686 31.4891C35.0686 20.9697 43.6325 12.4117 54.1594 12.4117C64.6862 12.4117 73.2502 20.9697 73.2502 31.4891C73.2502 42.0084 64.6862 50.5664 54.1594 50.5664ZM54.1594 12.8473C43.8729 12.8473 35.5045 21.2098 35.5045 31.4891C35.5045 41.7683 43.8729 50.1308 54.1594 50.1308C64.4459 50.1308 72.8143 41.7683 72.8143 31.4891C72.8136 21.2098 64.4452 12.8473 54.1594 12.8473Z" fill="#00539E"/>
<path d="M54.2024 48.7918C49.2494 48.7918 44.5296 46.6599 41.2537 42.9428C41.1741 42.8527 41.1826 42.7145 41.2735 42.6356C41.3644 42.5559 41.5013 42.5651 41.581 42.6553C44.7745 46.2789 49.3746 48.3568 54.2024 48.3568C57.2649 48.3568 60.2629 47.5258 62.8717 45.9538C62.9744 45.892 63.1088 45.9249 63.1713 46.0282C63.2332 46.1315 63.2003 46.2651 63.0969 46.3276C60.4209 47.939 57.3446 48.7918 54.2024 48.7918Z" fill="#00539E"/>
<path d="M65.6871 44.3384C65.6278 44.3384 65.5692 44.3147 65.5258 44.2673C65.4448 44.1785 65.4507 44.041 65.5396 43.9594C67.5341 42.1381 69.0749 39.8423 69.9974 37.3195C70.0389 37.2064 70.164 37.1485 70.2772 37.1899C70.3905 37.2314 70.4484 37.3564 70.4069 37.4696C69.4607 40.0575 67.8798 42.4131 65.8339 44.2818C65.7924 44.32 65.7398 44.3384 65.6871 44.3384Z" fill="#00539E"/>
<path d="M68.0957 21.9297C68.0279 21.9297 67.9601 21.8981 67.9179 21.8383C64.7652 17.4034 59.6378 14.7556 54.2015 14.7556C50.4206 14.7556 46.8491 15.9808 43.8742 18.2976C43.7794 18.3713 43.6417 18.3548 43.568 18.2594C43.4936 18.1647 43.5107 18.0278 43.6062 17.9535C46.6588 15.5761 50.3225 14.3193 54.2015 14.3193C59.7787 14.3193 65.0391 17.0355 68.2735 21.5856C68.3433 21.6836 68.3203 21.8198 68.2222 21.8896C68.184 21.9166 68.1399 21.9297 68.0957 21.9297Z" fill="#00539E"/>
<path d="M37.8835 36.6602C37.7893 36.6602 37.7031 36.599 37.6748 36.505C37.1961 34.906 36.9531 33.2406 36.9531 31.5555C36.9531 28.9992 37.4996 26.5389 38.5782 24.2425C38.6295 24.1333 38.7593 24.0866 38.8679 24.1379C38.9772 24.1892 39.024 24.3189 38.9726 24.4274C37.9217 26.6653 37.389 29.0637 37.389 31.5555C37.389 33.1985 37.6254 34.8218 38.0922 36.3806C38.1265 36.4957 38.0613 36.6175 37.9454 36.6517C37.9256 36.6576 37.9046 36.6602 37.8835 36.6602Z" fill="#00539E"/>
<path d="M41.1855 35.6113V35.1047C41.1855 32.9721 42.0389 32.5721 44.4397 31.0929C45.5202 30.4263 45.9199 30.0934 45.9199 29.4801C45.9199 28.7603 45.3865 28.4003 44.0525 28.4003C43.3321 28.4003 42.4649 28.5339 41.5984 28.7333L41.2784 27.187C42.2654 26.8804 43.4526 26.7336 44.2797 26.7336C46.6139 26.7336 47.8406 27.7864 47.8406 29.3992C47.8406 30.6389 47.0808 31.3587 45.6664 32.2779C44.5595 32.9978 43.5586 33.5308 43.4388 33.944H47.8801V35.61H41.1855V35.6113Z" fill="#1181FD"/>
<path d="M54.8526 33.7189V35.6113H53.0122V33.7189H48.5176V32.0397L52.7857 26.8685H54.8533V32.1463H56.1202V33.7189H54.8526ZM53.0122 28.9471L50.3448 32.1457H53.0122V28.9471Z" fill="#1181FD"/>
<path d="M57.4816 35.9628H56.0488L59.029 26.4902H60.4678L57.4816 35.9628Z" fill="#1181FD"/>
<path d="M67.1334 27.9496L63.872 35.5949H61.7373L65.0052 28.4293H60.8438V26.8718H67.1334V27.9496Z" fill="#1181FD"/>
<path d="M89.1157 13.7726L87.696 14.6194L88.2577 16.3348C87.964 16.5895 87.6954 16.8652 87.4537 17.1593L85.7239 16.6487L84.918 18.091L86.2626 19.2958C86.1381 19.659 86.0439 20.0314 85.9807 20.4104L84.2246 20.8329L84.2483 22.4851L86.013 22.8562C86.0861 23.2293 86.1914 23.5998 86.3291 23.963L85.02 25.2059L85.8675 26.6246L87.5841 26.0633C87.8389 26.3568 88.1148 26.6252 88.4091 26.8667L87.8982 28.5953L89.3415 29.4007L90.5472 28.057C90.9106 28.1814 91.284 28.2755 91.6626 28.3386L92.0853 30.0935L93.7387 30.0698L94.1101 28.3064C94.4835 28.2334 94.8542 28.1281 95.2177 27.9906L96.4615 29.2987L97.8811 28.4518L97.3195 26.7364C97.6131 26.4818 97.8818 26.2061 98.1234 25.912L99.8532 26.4226L100.659 24.9802L99.3146 23.7748C99.4391 23.4116 99.5332 23.0385 99.5964 22.6601L101.353 22.2377L101.329 20.5855L99.5642 20.2144C99.4911 19.8413 99.3857 19.4708 99.2481 19.1076L100.557 17.8647L99.7097 16.446L97.9931 17.0073C97.7382 16.7138 97.4624 16.4454 97.168 16.2039L97.679 14.4753L96.2356 13.6699L95.03 15.0136C94.6665 14.8892 94.2932 14.7951 93.9146 14.7319L93.4918 12.9771L91.8384 13.0007L91.467 14.7642C91.0937 14.8372 90.723 14.9425 90.3595 15.08L89.1157 13.7726ZM96.4437 19.3557C97.648 21.3731 96.9883 23.984 94.9701 25.1875C92.9512 26.391 90.3384 25.7317 89.1341 23.7149C87.9298 21.6975 88.5896 19.0866 90.6078 17.8831C92.6259 16.6789 95.2394 17.3389 96.4437 19.3557Z" fill="#FADA8A"/>
<path d="M88.9164 14.5602L87.4968 15.4071L88.0585 17.1225C87.7648 17.3771 87.4955 17.6528 87.2545 17.947L85.5247 17.4363L84.7187 18.8787L86.0633 20.0841C85.9389 20.4473 85.8447 20.8198 85.7815 21.1988L84.0254 21.6212L84.0491 23.2734L85.8138 23.6445C85.8869 24.0176 85.9922 24.3881 86.1298 24.7513L84.8208 25.9943L85.6683 27.4129L87.3849 26.8516C87.6397 27.1451 87.9156 27.4136 88.2099 27.655L87.6989 29.3836L89.1423 30.189L90.3486 28.8454C90.7121 28.9697 91.0848 29.0638 91.464 29.127L91.8868 30.8819L93.5402 30.8582L93.9115 29.0947C94.2849 29.0217 94.6556 28.9164 95.0191 28.7789L96.2629 30.087L97.6826 29.2402L97.1209 27.5248C97.4146 27.2701 97.6832 26.9944 97.9249 26.7003L99.6547 27.2109L100.461 25.7686L99.116 24.5631C99.2405 24.1999 99.3346 23.8275 99.3979 23.4485L101.154 23.026L101.13 21.3738L99.3656 21.0027C99.2925 20.6296 99.1872 20.2592 99.0495 19.8959L100.359 18.653L99.5111 17.2343L97.7945 17.7956C97.5397 17.5021 97.2638 17.233 96.9694 16.9922L97.4804 15.2636L96.0371 14.4583L94.8314 15.8019C94.468 15.6775 94.0946 15.5834 93.716 15.5203L93.2933 13.7654L91.6398 13.7891L91.2685 15.5525C90.8951 15.6255 90.5244 15.7308 90.1609 15.8683L88.9164 14.5602ZM96.2445 20.144C97.4488 22.1614 96.789 24.7724 94.7708 25.9758C92.752 27.1793 90.1392 26.52 88.9349 24.5032C87.7306 22.4858 88.3903 19.8749 90.4085 18.6714C92.4274 17.4673 95.0402 18.1266 96.2445 20.144Z" fill="#FADA8A"/>
<path d="M13.7312 53.3235C16.8228 50.2341 16.8228 45.2251 13.7312 42.1357C10.6396 39.0462 5.62703 39.0462 2.5354 42.1357C-0.556236 45.2251 -0.556237 50.2341 2.5354 53.3236C5.62703 56.413 10.6396 56.413 13.7312 53.3235Z" fill="white"/>
<path d="M8.11772 55.862C6.60786 55.862 5.12566 55.4396 3.81466 54.619C0.0126971 52.2391 -1.14225 47.2126 1.23875 43.414C3.62041 39.6154 8.64975 38.4613 12.4511 40.8406C14.2928 41.9934 15.5748 43.7937 16.0608 45.9098C16.5474 48.0259 16.1799 50.2052 15.0263 52.0449C13.8727 53.8854 12.0711 55.1658 9.95351 55.6521C9.34377 55.7929 8.72811 55.862 8.11772 55.862ZM1.60881 43.6456C-0.645107 47.2402 0.448599 51.9976 4.04578 54.2492C5.78873 55.3402 7.8517 55.6876 9.85606 55.2277C11.8604 54.7677 13.5652 53.555 14.6569 51.814C15.7486 50.0723 16.0963 48.0108 15.636 46.0078C15.1758 44.0049 13.9629 42.3013 12.2199 41.2104C8.62276 38.958 3.86273 40.0503 1.60881 43.6456Z" fill="#00539E"/>
<path d="M9.87355 52.9786L2.68577 48.4792C2.52972 48.3818 2.48231 48.1759 2.58042 48.0199L5.82203 42.8487C5.91948 42.6928 6.12558 42.6454 6.28164 42.7435L13.4694 47.2429C13.6255 47.3402 13.6729 47.5462 13.5748 47.7021L10.3332 52.8733C10.2351 53.0293 10.0296 53.0767 9.87355 52.9786Z" fill="#5FB3FF"/>
<path d="M9.92227 53.0951C9.74909 53.0951 9.5746 53.0484 9.41722 52.9497L2.91227 48.8773C2.46649 48.5983 2.33085 48.0088 2.61003 47.5633L5.42431 43.0738C5.55929 42.858 5.77132 42.7079 6.01956 42.6507C6.2678 42.5941 6.52328 42.6369 6.73991 42.7718L13.2449 46.8441C13.6906 47.1231 13.8263 47.7127 13.5471 48.1581L10.7328 52.6476C10.5511 52.9365 10.2396 53.0951 9.92227 53.0951ZM9.64834 52.5805C9.89 52.7319 10.2107 52.6588 10.3621 52.4167L13.1764 47.9272C13.3278 47.685 13.2547 47.3652 13.0124 47.2139L6.50748 43.1416C6.39027 43.0679 6.25133 43.0448 6.11635 43.0758C5.98136 43.1067 5.86679 43.1883 5.79304 43.3054L2.97877 47.7949C2.82733 48.037 2.90042 48.3568 3.14273 48.5082L9.64834 52.5805Z" fill="#00539E"/>
<path d="M7.94678 48.3522C7.86381 48.3522 7.78545 48.3049 7.74858 48.2252L6.28152 45.0359C6.23148 44.9267 6.27955 44.7971 6.38885 44.7471C6.4975 44.6971 6.62787 44.7444 6.67792 44.8543L8.14497 48.0436C8.19502 48.1529 8.14695 48.2825 8.03764 48.3325C8.00801 48.3463 7.97706 48.3522 7.94678 48.3522Z" fill="#00539E"/>
<path d="M7.9641 48.3634C7.84558 48.3634 7.74878 48.2687 7.74615 48.1502C7.74351 48.0298 7.83899 47.9304 7.95949 47.9278L11.4717 47.8554C11.5883 47.8521 11.6917 47.9482 11.6943 48.0686C11.6969 48.189 11.6014 48.2884 11.4809 48.291L7.96871 48.3634C7.96739 48.3634 7.96542 48.3634 7.9641 48.3634Z" fill="#00539E"/>
<path d="M34.9771 20.2082C38.0687 17.1187 38.0687 12.1098 34.9771 9.02032C31.8855 5.93087 26.8729 5.93087 23.7813 9.02032C20.6897 12.1098 20.6897 17.1187 23.7813 20.2082C26.8729 23.2976 31.8855 23.2976 34.9771 20.2082Z" fill="white"/>
<path d="M29.373 22.7437C25.2274 22.7437 21.6749 19.5794 21.2799 15.3734C20.8611 10.9109 24.1534 6.93924 28.6198 6.52075C33.0835 6.10226 37.0599 9.39225 37.4787 13.8548C37.8975 18.3173 34.6052 22.289 30.1388 22.7075C29.8814 22.7318 29.6259 22.7437 29.373 22.7437ZM21.7138 15.3326C22.1102 19.5563 25.8674 22.67 30.098 22.2739C34.3247 21.8777 37.4405 18.1193 37.0441 13.8956C36.6477 9.67256 32.8899 6.55826 28.6599 6.95437C24.4332 7.35114 21.3174 11.109 21.7138 15.3326Z" fill="#00539E"/>
<path d="M32.6631 17.7461L31.6142 16.4466C31.5266 16.3387 31.3422 16.2525 31.2033 16.2544L31.0268 16.2577C30.8675 16.261 30.7127 16.2998 30.5652 16.3604C30.1511 16.5301 29.4834 16.5361 28.6096 15.0227C27.7404 13.5185 28.071 12.9414 28.4226 12.6664C28.576 12.5466 28.6998 12.3946 28.7999 12.2282L28.8394 12.163C28.9112 12.0439 28.9283 11.8406 28.8789 11.711L28.2777 10.1535C28.2277 10.0239 28.0749 9.93832 27.9386 9.96333L27.5508 10.0344C27.2249 10.0943 26.9233 10.2568 26.7073 10.5088C25.7907 11.5781 25.9442 13.7218 27.1742 15.8504C28.4068 17.9843 30.1932 19.1904 31.5799 18.9246C31.8993 18.8634 32.1864 18.6884 32.3971 18.4403L32.6585 18.133C32.748 18.0284 32.75 17.8534 32.6631 17.7461Z" fill="#99B9FF"/>
<path d="M31.1858 19.1799C29.7675 19.1799 28.1312 17.9448 26.9849 15.9603C25.7232 13.7771 25.5448 11.53 26.5411 10.368C26.7827 10.0857 27.1271 9.89161 27.5103 9.8212L27.8981 9.75014C28.1385 9.70605 28.3927 9.8495 28.4802 10.0758L29.0814 11.6333C29.1552 11.8248 29.1308 12.1005 29.0254 12.2755L28.9859 12.3413C28.8641 12.544 28.7192 12.7118 28.5559 12.8388C28.3927 12.9664 27.8955 13.354 28.7969 14.9141C29.701 16.4795 30.2877 16.238 30.4813 16.159C30.6657 16.0834 30.8474 16.0432 31.0212 16.0399L31.1977 16.0366C31.4058 16.036 31.654 16.1511 31.7818 16.3097L32.8313 17.6093C32.9841 17.7981 32.9808 18.0909 32.8228 18.2751L32.5614 18.5824C32.3145 18.8726 31.98 19.07 31.6191 19.1391C31.4782 19.1667 31.3333 19.1799 31.1858 19.1799ZM27.987 10.1778C27.9837 10.1778 27.9805 10.1778 27.9772 10.1785L27.5893 10.2496C27.3042 10.3022 27.0494 10.4443 26.8723 10.6509C26.0097 11.657 26.2118 13.7501 27.3628 15.7419C28.417 17.5665 29.9407 18.743 31.1898 18.743C31.3083 18.743 31.4249 18.7325 31.5381 18.7107C31.8015 18.6601 32.0478 18.514 32.2302 18.2995L32.4916 17.9922C32.5133 17.9665 32.514 17.9086 32.4929 17.883C32.4929 17.883 32.4929 17.883 32.4929 17.8823L31.444 16.5828C31.3985 16.5269 31.2787 16.4703 31.2056 16.4716L31.0305 16.4749C30.9106 16.4768 30.7822 16.5065 30.6479 16.5617C29.8854 16.8743 29.1565 16.4071 28.4203 15.1319C27.6861 13.8613 27.6433 12.9987 28.288 12.4946C28.4091 12.3999 28.5184 12.2722 28.6132 12.1156L28.6527 12.0505C28.6896 11.9886 28.7015 11.857 28.6751 11.7893L28.074 10.2325C28.0621 10.2035 28.0193 10.1778 27.987 10.1778Z" fill="#5FB3FF"/>
<path d="M12.5233 35.7905C17.0171 35.7905 20.66 32.1077 20.66 27.5649C20.66 23.022 17.0171 19.3392 12.5233 19.3392C8.02961 19.3392 4.38672 23.022 4.38672 27.5649C4.38672 32.1077 8.02961 35.7905 12.5233 35.7905Z" fill="#1181FD"/>
<path d="M8.86834 30.8667C8.76298 30.8667 8.67211 30.7911 8.65368 30.6871L7.36967 23.5446L6.3405 23.4959C6.22 23.4899 6.12715 23.3879 6.13308 23.2675C6.13901 23.1471 6.23514 23.0537 6.36091 23.0603L7.56326 23.1175C7.66467 23.1221 7.74961 23.1965 7.76739 23.2965L9.04941 30.4265L16.2925 30.2627L18.2429 25.4251C18.2876 25.3132 18.4147 25.2593 18.5267 25.3047C18.6386 25.3494 18.6926 25.4764 18.6478 25.5883L16.6441 30.5595C16.6112 30.6404 16.5342 30.6937 16.4466 30.6957L8.87295 30.8674C8.87163 30.8667 8.86965 30.8667 8.86834 30.8667Z" fill="white"/>
<path d="M8.06367 25.839C7.94449 25.839 7.84703 25.7429 7.84572 25.6231C7.8444 25.5027 7.94119 25.404 8.06169 25.4027L18.4443 25.2882C18.445 25.2882 18.4463 25.2882 18.447 25.2882C18.5662 25.2882 18.6636 25.3843 18.6649 25.504C18.6662 25.6244 18.5694 25.7231 18.4496 25.7245L8.06696 25.839C8.06498 25.839 8.06433 25.839 8.06367 25.839Z" fill="white"/>
<path d="M8.36054 27.6676C8.24136 27.6676 8.14391 27.5715 8.14259 27.4524C8.14127 27.332 8.23741 27.2333 8.35791 27.232L17.4335 27.1175C17.558 27.1129 17.6528 27.2122 17.6541 27.3326C17.6554 27.453 17.5593 27.5517 17.4388 27.5531L8.36318 27.6676C8.36186 27.6676 8.3612 27.6676 8.36054 27.6676Z" fill="white"/>
<path d="M8.65548 29.2671C8.5363 29.2671 8.43885 29.1717 8.43753 29.052C8.43555 28.9316 8.53235 28.8329 8.65285 28.8309L16.856 28.7171C16.9725 28.7157 17.0752 28.8118 17.0772 28.9322C17.0792 29.0526 16.9824 29.1513 16.8619 29.1533L8.65812 29.2678C8.65746 29.2671 8.6568 29.2671 8.65548 29.2671Z" fill="white"/>
<path d="M10.4543 32.8658C10.8649 32.8658 11.1977 32.5588 11.1977 32.1801C11.1977 31.8015 10.8649 31.4945 10.4543 31.4945C10.0438 31.4945 9.71094 31.8015 9.71094 32.1801C9.71094 32.5588 10.0438 32.8658 10.4543 32.8658Z" fill="white"/>
<path d="M15.9419 32.1801C15.9419 32.5591 15.6094 32.8658 15.1985 32.8658C14.7883 32.8658 14.4551 32.5585 14.4551 32.1801C14.4551 31.8018 14.7876 31.4945 15.1985 31.4945C15.6087 31.4945 15.9419 31.8018 15.9419 32.1801Z" fill="white"/>
<path d="M11.162 30.4101C11.0546 30.4101 10.9611 30.3312 10.946 30.2219L10.3185 25.6508C10.302 25.5317 10.3856 25.4218 10.5048 25.4054C10.6247 25.3889 10.734 25.4725 10.7504 25.5916L11.3779 30.1627C11.3944 30.2818 11.3108 30.3917 11.1916 30.4081C11.1817 30.4095 11.1718 30.4101 11.162 30.4101Z" fill="white"/>
<path d="M13.8279 30.6384C13.8239 30.6384 13.82 30.6384 13.8154 30.6377C13.6949 30.6311 13.6033 30.5285 13.6099 30.4081L13.8713 25.6659C13.8779 25.5455 13.978 25.4534 14.1011 25.4606C14.2216 25.4672 14.3132 25.5698 14.3066 25.6902L14.0452 30.4324C14.0392 30.5482 13.9424 30.6384 13.8279 30.6384Z" fill="white"/>
<path d="M37.3895 67.1723C37.3895 67.1723 33.7594 63.8185 32.428 63.0381C31.0959 62.2577 29.4373 59.0566 33.9135 57.0964C35.3641 56.4608 35.6499 54.7006 38.4437 54.3999C41.2376 54.0992 43.558 55.5166 43.8589 57.2767C44.1598 59.0375 42.4893 60.5621 41.2402 60.7661C39.9905 60.9694 37.3895 67.1723 37.3895 67.1723Z" fill="#00314F"/>
<path d="M43.6986 63.0342L44.0878 62.4723L42.5489 60.5049L41.4941 57.9209C38.5132 57.7189 37.3188 58.5329 37.2792 60.8181C37.2542 62.2828 36.4825 62.3177 36.4825 62.3177C36.4825 62.3177 35.3493 61.0991 34.7633 62.5447C34.1766 63.991 36.6142 64.9957 36.6142 64.9957C36.9309 65.6636 36.8545 66.4512 36.4167 67.046L32.082 72.9325C32.082 72.9325 40.2094 75.0828 40.295 73.8017C40.3194 73.4385 40.1956 73.1286 40.0059 72.8706C39.0689 71.5954 40.7619 68.1475 40.7619 68.1475L43.4747 67.0526C43.9719 66.8519 44.2366 66.3078 44.0871 65.7925L43.5504 63.9482C43.4596 63.6363 43.5142 63.3007 43.6986 63.0342Z" fill="white"/>
<path d="M39.1396 74.4169C36.9213 74.4169 32.6136 73.2976 32.0256 73.1424C31.9558 73.1239 31.8998 73.0719 31.8755 73.0042C31.8518 72.9364 31.8629 72.8607 31.9057 72.8028L36.2404 66.9164C36.6157 66.4064 36.6934 65.7405 36.4491 65.1609C36.0014 64.9595 33.9588 63.9462 34.5607 62.4624C34.7569 61.9781 35.0387 61.6991 35.3976 61.6333C35.8881 61.5432 36.355 61.9018 36.5486 62.0775C36.7046 62.0137 37.0451 61.7662 37.0615 60.8135C37.08 59.7337 37.3565 58.9632 37.9063 58.4578C38.5977 57.8229 39.7428 57.5827 41.5088 57.7025C41.5917 57.7084 41.6648 57.7604 41.6958 57.8373L42.7394 60.3937L44.2592 62.3374C44.3178 62.4124 44.3211 62.517 44.2664 62.5953L43.8773 63.1573C43.7298 63.3711 43.6863 63.6363 43.7587 63.8857L44.2954 65.73C44.4771 66.3545 44.1591 67.0092 43.5553 67.2526L40.9201 68.3159C40.4506 69.301 39.4945 71.806 40.1807 72.739C40.4256 73.0719 40.5362 73.4339 40.5112 73.8135C40.504 73.9208 40.4592 74.0754 40.2867 74.1991C40.074 74.3544 39.6651 74.4169 39.1396 74.4169ZM32.4477 72.8022C35.146 73.497 39.3457 74.3399 40.0332 73.8471C40.0746 73.8175 40.076 73.7971 40.0766 73.7865C40.0951 73.5121 40.0121 73.247 39.8297 72.9989C38.8262 71.6329 40.4934 68.1968 40.5652 68.0514C40.5889 68.0034 40.6297 67.9652 40.6791 67.9455L43.392 66.8506C43.7871 66.6913 43.9951 66.2623 43.8766 65.8537L43.34 64.0094C43.2307 63.6336 43.2958 63.2336 43.5184 62.9112L43.816 62.4808L42.376 60.6398C42.3635 60.624 42.3536 60.6062 42.3457 60.5878L41.3422 58.1302C39.781 58.0393 38.7808 58.2466 38.2 58.7803C37.7364 59.206 37.5126 59.8548 37.4961 60.822C37.4678 62.4723 36.5308 62.5335 36.4906 62.5354C36.4268 62.5381 36.3649 62.5131 36.3214 62.4664C36.197 62.3341 35.8032 62.0025 35.474 62.063C35.2718 62.1005 35.0999 62.29 34.9636 62.6269C34.4645 63.858 36.673 64.7851 36.6954 64.7943C36.7455 64.8147 36.7863 64.8536 36.8093 64.9023C37.1609 65.6438 37.0767 66.5144 36.5901 67.175L32.4477 72.8022Z" fill="#00539E"/>
<path d="M36.7008 60.3897L38.7624 63.177C39.6369 64.3587 41.2382 64.7358 42.5486 64.0686L43.6686 63.4981L45.7369 67.3039C45.9581 67.8455 45.671 68.4607 45.1133 68.639L42.1068 69.8853C41.2475 70.1603 40.3065 69.9287 39.6731 69.2871L36.4407 66.0129C36.4407 66.0129 37.6661 64.8766 36.4828 62.317C35.2989 59.7574 36.7008 60.3897 36.7008 60.3897Z" fill="#00314F"/>
<path d="M71.4169 68.8107L65.5283 69.672C65.5283 69.672 63.1394 78.8405 57.1467 79.1412C54.264 79.286 52.0825 78.3891 50.595 77.4186C48.3424 75.9499 45.7718 75.0419 43.0918 74.8215L32.3227 73.9352C26.3715 73.4456 20.6975 76.5421 17.9003 81.814C14.9089 87.4517 11.2018 94.9707 8.83528 101.661C8.39872 102.894 9.30871 104.189 10.6177 104.189H39.1957L45.4833 88.4545C48.6163 89.7876 53.4435 90.9635 60.225 90.3397C74.5617 89.021 71.4169 68.8107 71.4169 68.8107Z" fill="#1181FD"/>
<path d="M39.195 104.407H10.6177C9.92437 104.407 9.29686 104.083 8.89651 103.517C8.49485 102.95 8.3974 102.246 8.62984 101.589C11.0569 94.7279 14.9056 86.9931 17.7074 81.7127C20.548 76.3586 26.2924 73.2206 32.3404 73.7187L43.1096 74.605C45.781 74.8248 48.4109 75.7348 50.7142 77.237C52.6132 78.4754 54.7743 79.0432 57.1362 78.9241C62.9023 78.6346 65.2939 69.7076 65.3176 69.6174C65.3393 69.5325 65.4104 69.4694 65.4967 69.4569L71.3853 68.5955C71.5038 68.5784 71.6138 68.6594 71.6322 68.7778C71.6493 68.8897 73.3106 80.0052 68.4005 86.297C66.4422 88.8066 63.6977 90.2404 60.2448 90.5582C53.3579 91.1925 48.5096 89.9436 45.6032 88.7428L39.3978 104.271C39.3649 104.353 39.2846 104.407 39.195 104.407ZM31.0867 74.103C25.6695 74.103 20.6606 77.0778 18.0926 81.9167C15.2974 87.184 11.4586 94.8977 9.04072 101.734C8.85569 102.256 8.93339 102.814 9.25208 103.265C9.56946 103.714 10.0673 103.971 10.6171 103.971H39.0469L45.2799 88.3749C45.3016 88.3203 45.3444 88.2769 45.3984 88.2545C45.4524 88.2322 45.5136 88.2322 45.5676 88.2552C48.4023 89.4613 53.2427 90.7641 60.2039 90.1239C63.5325 89.8173 66.1742 88.4394 68.0561 86.0285C72.4797 80.3605 71.4327 70.6222 71.2306 69.0581L65.6995 69.8674C65.5454 70.405 64.9291 72.4027 63.7728 74.403C61.9726 77.5186 59.6851 79.2321 57.1572 79.3591C54.7005 79.4821 52.4532 78.8912 50.4752 77.6015C48.2324 76.1388 45.673 75.2532 43.0727 75.0393L32.3036 74.153C31.8973 74.1194 31.4903 74.103 31.0867 74.103Z" fill="#00539E"/>
<path d="M46.656 91.5892C42.2035 90.1159 39.7988 83.201 39.7988 83.201L26.6895 85.839C26.6895 85.839 35.7756 100.329 42.0376 101.655C45.9403 102.482 53.7812 98.8028 59.1359 95.9136C58.4491 94.3969 57.4627 92.2202 56.7305 90.6193C52.8153 91.5701 48.6775 92.2584 46.656 91.5892Z" fill="#1181FD"/>
<path d="M43.2803 101.992C42.8167 101.992 42.3847 101.952 41.9916 101.869C35.7119 100.539 26.8773 86.5503 26.5039 85.9555C26.4401 85.8535 26.471 85.7192 26.5731 85.6554C26.6751 85.5916 26.8095 85.6225 26.874 85.7245C26.9642 85.8686 35.9825 100.151 42.0825 101.443C44.9995 102.061 50.9527 100.065 58.8536 95.8188C57.9113 93.7369 57.156 92.0755 56.6069 90.874C51.6842 92.0577 48.3142 92.3683 46.5877 91.7972C42.0851 90.3075 39.6923 83.5597 39.5929 83.2735C39.5534 83.1596 39.6133 83.0359 39.7272 82.9958C39.8404 82.9563 39.9649 83.0162 40.0051 83.13C40.0288 83.1985 42.4276 89.9614 46.7253 91.3833C48.3695 91.9274 51.812 91.5899 56.6793 90.4081C56.7807 90.3831 56.8854 90.4344 56.9289 90.5292C57.4998 91.7761 58.309 93.558 59.3349 95.8241C59.3823 95.9281 59.3408 96.0511 59.2401 96.1057C54.0995 98.8785 47.4108 101.992 43.2803 101.992Z" fill="#00539E"/>
<path d="M73.3764 92.1484L67.308 88.7795C66.371 88.2597 65.2609 88.1498 64.2409 88.4781C62.5493 89.0236 59.7034 89.8968 56.7305 90.6186C57.4633 92.2195 58.4497 94.3962 59.1358 95.9128C62.3728 94.1659 64.7018 92.7071 64.7018 92.7071L68.619 94.7686C68.619 94.7686 68.4004 98.2046 69.1787 98.2994C69.9563 98.3942 70.2487 95.2239 70.2487 95.2239C70.2487 95.2239 70.9177 99.1594 72.0727 98.2994L72.5158 93.546C72.5158 93.546 73.2829 95.651 73.7228 95.7385C74.1626 95.8253 74.1626 95.8253 74.1626 95.8253L73.3764 92.1484Z" fill="white"/>
<path d="M71.7459 98.641C71.6498 98.641 71.5649 98.6192 71.4964 98.5923C70.9327 98.3666 70.5363 97.3144 70.2986 96.4472C70.1597 97.2072 69.924 98.0935 69.5532 98.3922C69.3985 98.5166 69.2497 98.5291 69.1516 98.5172C68.3009 98.4139 68.3272 96.0563 68.3924 94.8976L64.7102 92.9598C64.2157 93.2651 62.0593 94.5844 59.2391 96.1063C59.1857 96.1353 59.1232 96.1406 59.0659 96.1208C59.0086 96.1017 58.9619 96.059 58.9368 96.0044C57.911 93.7382 57.1017 91.9577 56.5315 90.7108C56.5045 90.6515 56.5051 90.5838 56.5335 90.5252C56.5618 90.4667 56.6151 90.4239 56.6783 90.4087C59.5874 89.7027 62.3595 88.8572 64.1736 88.2729C65.2462 87.9274 66.4269 88.0432 67.4139 88.5907L73.4823 91.9596C73.5376 91.9899 73.5765 92.0432 73.5896 92.1044L74.3771 95.782C74.3923 95.8537 74.3706 95.928 74.3192 95.9807C74.2678 96.0327 74.1934 96.0557 74.1217 96.0419L73.6818 95.955C73.3407 95.8879 72.9542 95.1792 72.6493 94.4758L72.2905 98.3225C72.2845 98.3837 72.2536 98.4403 72.2036 98.4771C72.0357 98.5995 71.8796 98.641 71.7459 98.641ZM70.2486 95.0068C70.3546 95.0068 70.4455 95.0832 70.4632 95.1884C70.641 96.234 71.123 97.9731 71.6584 98.1876C71.7071 98.2067 71.7716 98.2205 71.8651 98.1738L72.2984 93.527C72.3076 93.4257 72.3866 93.3441 72.4874 93.3309C72.5881 93.3178 72.6849 93.377 72.7198 93.4724C73.0978 94.5081 73.5784 95.449 73.7707 95.5273L73.8793 95.549L73.182 92.2919L67.2006 88.971C66.3189 88.4815 65.264 88.3782 64.306 88.6868C62.5386 89.2566 59.864 90.0725 57.0365 90.7687C57.5804 91.959 58.3192 93.5849 59.2365 95.6109C62.324 93.9363 64.5621 92.538 64.5845 92.5236C64.6503 92.4821 64.7333 92.4795 64.8018 92.5157L68.719 94.5772C68.7947 94.6173 68.8401 94.6982 68.8349 94.7838C68.7275 96.4748 68.9033 98.0474 69.2029 98.0843C69.2122 98.0856 69.2345 98.0882 69.278 98.0534C69.6625 97.7434 69.9431 96.1419 70.0293 95.2049C70.0392 95.0957 70.1287 95.0114 70.2381 95.0068C70.2433 95.0068 70.2459 95.0068 70.2486 95.0068Z" fill="#00539E"/>
<path d="M42.4506 75.3164L42.7179 73.6951C42.8075 73.1536 42.4552 72.6383 41.9179 72.5252C39.2386 71.9606 31.8125 70.3531 30.8458 69.6721C29.6632 68.8391 21.0993 76.9022 22.3826 76.6909C31.9435 75.1164 42.4506 75.3164 42.4506 75.3164Z" fill="#1181FD"/>
<path d="M22.3387 76.9127C22.1517 76.9127 22.0792 76.789 22.0601 76.7475C21.9956 76.6054 21.887 76.3672 23.4396 74.7781C24.3384 73.8582 25.5322 72.764 26.6332 71.852C30.1638 68.9259 30.7716 69.3536 30.9711 69.4944C31.6085 69.9432 35.7173 70.9966 41.9622 72.3119C42.6147 72.4495 43.0407 73.0726 42.9328 73.7306L42.6654 75.3519C42.6476 75.4585 42.5581 75.5361 42.4461 75.5342C42.3408 75.5322 31.8482 75.3526 22.4183 76.9054C22.39 76.9107 22.363 76.9127 22.3387 76.9127ZM30.6182 69.83C30.5365 69.83 30.3956 69.853 30.1638 69.9484C28.0298 70.8242 23.2941 75.319 22.5632 76.4402C31.2832 75.0321 40.8138 75.0801 42.2651 75.0959L42.5021 73.6595C42.5726 73.2318 42.296 72.8272 41.8726 72.7383C38.8476 72.1014 31.7053 70.5439 30.7202 69.8504C30.715 69.8464 30.6873 69.83 30.6182 69.83Z" fill="#00539E"/>
<path d="M68.4656 59.1282C68.6295 58.8025 69.4473 57.8293 69.8207 57.5497L73.7563 53.8932C73.7563 53.8932 74.2679 55.6553 73.6477 56.6943C74.8559 56.7344 75.8114 56.9397 75.8114 56.9397C75.8114 56.9397 77.609 55.3566 78.0574 55.0835C78.5051 54.8104 79.0899 54.3781 79.6917 54.386C80.2955 54.3939 80.8941 54.8552 80.8941 54.8552L77.4371 59.2335L71.1508 60.9627L71.5031 70.4879L65.5295 69.672L68.4656 59.1282Z" fill="white"/>
<path d="M71.5024 70.7057C71.4925 70.7057 71.4826 70.7051 71.4727 70.7038L65.4992 69.8878C65.4366 69.8793 65.3813 69.8444 65.3464 69.7918C65.3115 69.7391 65.3016 69.674 65.3188 69.6135L68.2555 59.0697C68.2595 59.0559 68.2647 59.0427 68.2706 59.0302C68.4465 58.6808 69.2702 57.6952 69.6804 57.3826L73.6081 53.7334C73.6635 53.682 73.7418 53.6629 73.8149 53.6827C73.888 53.7031 73.9453 53.7597 73.9663 53.8321C73.9861 53.9011 74.4088 55.3889 73.9868 56.491C74.8263 56.5397 75.4953 56.6562 75.7488 56.7042C76.1103 56.3877 77.5359 55.1461 77.9441 54.8967C78.0054 54.8592 78.0692 54.819 78.1357 54.7769C78.5657 54.5052 79.0997 54.167 79.6759 54.167C79.6825 54.167 79.689 54.167 79.695 54.167C80.364 54.1762 81.0007 54.6605 81.0277 54.6815C81.0738 54.7171 81.1041 54.7697 81.1107 54.8276C81.1179 54.8855 81.1014 54.9434 81.0652 54.9895L77.6083 59.3678C77.5793 59.404 77.5398 59.4303 77.495 59.4428L71.3753 61.126L71.721 70.4787C71.7236 70.5432 71.6973 70.6051 71.6492 70.6485C71.6084 70.686 71.5564 70.7057 71.5024 70.7057ZM65.806 69.4898L71.2746 70.2372L70.9321 60.9707C70.9282 60.87 70.9947 60.7792 71.0922 60.7522L77.3094 59.0421L80.576 54.9052C80.3712 54.7815 80.0249 54.6085 79.6884 54.6039C79.2387 54.6006 78.754 54.902 78.3682 55.1461C78.2997 55.1895 78.2338 55.231 78.1706 55.2698C77.8164 55.4856 76.4514 56.6667 75.9556 57.1036C75.9035 57.149 75.8331 57.1674 75.7659 57.153C75.7567 57.151 74.8131 56.951 73.6404 56.9121C73.5634 56.9095 73.4929 56.8667 73.456 56.799C73.4192 56.7312 73.4205 56.6489 73.46 56.5831C73.8649 55.9054 73.7352 54.8552 73.6286 54.3098L69.9688 57.7103C69.9629 57.7156 69.957 57.7208 69.951 57.7254C69.6119 57.9794 68.8382 58.896 68.669 59.2099L65.806 69.4898Z" fill="#00539E"/>
<path d="M39.3425 68.2297C38.1461 68.2297 37.0234 67.5533 36.4808 66.4261L35.875 65.1674C35.823 65.0588 35.8685 64.9285 35.9771 64.8765C36.0857 64.8239 36.2161 64.87 36.2681 64.9785L36.8739 66.2373C37.458 67.4506 38.821 68.0586 40.1149 67.6836L43.0859 66.8222C43.2018 66.7887 43.3223 66.8551 43.3558 66.9709C43.3894 67.0867 43.3229 67.2072 43.207 67.2407L40.236 68.102C39.9384 68.1882 39.6382 68.2297 39.3425 68.2297Z" fill="#1181FD"/>
<path d="M35.8575 62.1307C35.7482 62.1307 35.6541 62.0491 35.6409 61.9379C35.6185 61.7464 35.1154 57.2299 37.1593 55.196C37.9277 54.4308 38.9543 54.1202 40.2119 54.2729C40.3318 54.2874 40.4167 54.3959 40.4022 54.5157C40.3877 54.6354 40.2784 54.7203 40.1593 54.7058C39.0425 54.5703 38.1365 54.8394 37.4675 55.5046C35.5731 57.3885 36.0689 61.8425 36.0742 61.8879C36.088 62.0076 36.0024 62.1155 35.8825 62.1294C35.8746 62.1307 35.8661 62.1307 35.8575 62.1307Z" fill="#1181FD"/>
<path d="M44.2722 67.0183C44.3281 66.5748 44.0075 66.1695 43.5564 66.1122C43.1047 66.055 42.6932 66.3682 42.6372 66.8117C42.5812 67.2552 42.9019 67.6605 43.353 67.7177C43.8047 67.775 44.2162 67.4618 44.2722 67.0183Z" fill="#1181FD"/>
<path d="M38.3197 63.8072C38.477 62.5642 37.6797 61.4391 36.5392 61.295C36.4141 61.2792 35.9505 61.2673 35.8287 61.2752C34.839 61.3417 34.3287 62.178 34.1885 63.2847C34.037 64.4784 34.4927 65.5937 35.5607 65.8062C35.6048 65.8147 35.9216 65.8404 35.967 65.8404C37.2174 65.845 38.1623 65.0508 38.3197 63.8072Z" fill="#99B9FF"/>
<path d="M37.829 63.7671C37.962 62.5211 37.1429 61.4122 35.9994 61.2903C34.856 61.1684 33.8212 62.0796 33.6882 63.3256C33.5551 64.5716 34.3742 65.6805 35.5177 65.8024C36.6611 65.9243 37.6959 65.0131 37.829 63.7671Z" fill="#1181FD"/>
<path d="M94.593 110H6.6355C5.99284 110 5.47266 109.479 5.47266 108.838V104.93C5.47266 104.288 5.9935 103.768 6.6355 103.768H94.593C95.2356 103.768 95.7558 104.289 95.7558 104.93V108.838C95.7558 109.479 95.235 110 94.593 110Z" fill="#5FB3FF"/>
<path d="M91.0721 102.156H73.5254L94.5521 82.1641C95.2092 81.5397 96.0692 81.1606 96.8304 81.1606H111.07C111.975 81.1606 112.136 82.1279 111.356 82.8701L91.0721 102.156Z" fill="#FEC115"/>
<path d="M100.423 88.1709C99.5015 89.0474 97.991 89.7573 97.048 89.7573C96.1058 89.7573 96.0887 89.0467 97.0105 88.1709C97.9324 87.2945 99.4429 86.5845 100.386 86.5845C101.329 86.5845 101.345 87.2945 100.423 88.1709Z" fill="#CADDFF"/>
<path d="M90.8087 104.128H53.3369C52.9689 104.128 52.6699 103.829 52.6699 103.461V101.986H91.4758V103.461C91.4758 103.83 91.1768 104.128 90.8087 104.128Z" fill="#FEC115"/>
<path d="M90.3236 102.395H72.5168C72.3963 102.395 72.2988 102.297 72.2988 102.177C72.2988 102.057 72.3963 101.959 72.5168 101.959H90.3236C90.4441 101.959 90.5415 102.057 90.5415 102.177C90.5415 102.297 90.4441 102.395 90.3236 102.395Z" fill="white"/>
<path d="M98.028 65.5063C97.3834 65.5003 96.8659 64.9739 96.8711 64.3298L96.9416 56.3048C96.9475 55.6606 97.4743 55.1435 98.1189 55.1487L120.256 55.3428C120.901 55.3488 121.419 55.8752 121.413 56.5193L121.343 64.5443C121.337 65.1884 120.81 65.7056 120.166 65.7004L115.891 65.6629L114.388 68.3784L112.856 65.6365L98.028 65.5063Z" fill="white"/>
<path d="M114.374 68.6863C114.293 68.6863 114.22 68.6423 114.181 68.5712L112.724 65.853L98.0253 65.724C97.2615 65.7175 96.6458 65.091 96.6524 64.3278L96.7229 56.3028C96.7294 55.5435 97.3497 54.9309 98.1076 54.9309C98.1115 54.9309 98.1155 54.9309 98.1201 54.9309L120.257 55.125C120.627 55.1283 120.973 55.275 121.233 55.5389C121.492 55.8028 121.633 56.1515 121.63 56.5213L121.559 64.5462C121.556 64.916 121.409 65.2621 121.145 65.5214C120.881 65.7806 120.531 65.9201 120.162 65.9181L115.93 65.8813L114.568 68.5672C114.531 68.6396 114.457 68.6857 114.376 68.6863C114.376 68.6863 114.375 68.6863 114.374 68.6863ZM98.1083 55.3672C97.5887 55.3672 97.164 55.787 97.1594 56.3068L97.089 64.3317C97.0843 64.8548 97.5064 65.2838 98.0292 65.2884L112.857 65.4187C112.936 65.4194 113.009 65.4635 113.047 65.5339L114.368 67.9974L115.603 65.5635C115.64 65.4898 115.715 65.4424 115.799 65.4444L120.166 65.4825C120.169 65.4825 120.172 65.4825 120.175 65.4825C120.425 65.4825 120.661 65.3865 120.84 65.2108C121.021 65.0331 121.122 64.7963 121.124 64.5429L121.194 56.518C121.196 56.2647 121.1 56.0258 120.922 55.8449C120.744 55.6639 120.507 55.5632 120.253 55.5613L98.1162 55.3672C98.1135 55.3672 98.1109 55.3672 98.1083 55.3672Z" fill="#00539E"/>
<path d="M117.718 62.0767C117.717 62.0767 117.716 62.0767 117.716 62.0767L100.122 61.9228C100.002 61.9215 99.9049 61.8234 99.9063 61.703C99.9076 61.5832 100.005 61.4872 100.124 61.4872C100.125 61.4872 100.126 61.4872 100.126 61.4872L117.72 61.6412C117.84 61.6425 117.937 61.7405 117.936 61.8609C117.935 61.98 117.837 62.0767 117.718 62.0767Z" fill="#00539E"/>
<path d="M103.824 59.6047C103.824 59.6047 103.823 59.6047 103.822 59.6047L100.144 59.5724C100.023 59.5711 99.9263 59.4731 99.9276 59.3527C99.9289 59.2323 100.025 59.1395 100.148 59.1368L103.826 59.1691C103.947 59.1704 104.044 59.2684 104.042 59.3889C104.041 59.5086 103.944 59.6047 103.824 59.6047Z" fill="#00539E"/>
<path d="M117.739 59.727C117.738 59.727 117.738 59.727 117.737 59.727L106.173 59.6257C106.053 59.6243 105.956 59.5263 105.957 59.4059C105.958 59.2855 106.061 59.192 106.177 59.1901L117.741 59.2914C117.861 59.2927 117.958 59.3908 117.957 59.5112C117.956 59.6303 117.859 59.727 117.739 59.727Z" fill="#00539E"/>
<path d="M109.701 57.2233C110.345 57.2259 110.87 56.7061 110.872 56.0619L110.904 48.037C110.907 47.3928 110.387 46.8684 109.742 46.8664L87.604 46.7776C86.9593 46.775 86.4352 47.2948 86.4325 47.939L86.4003 55.9639C86.3976 56.6081 86.9178 57.1325 87.5625 57.1345L91.9979 57.1522L93.1996 59.3585L94.7358 57.1634L109.701 57.2233Z" fill="white"/>
<path d="M93.1996 59.5764C93.1949 59.5764 93.1903 59.5764 93.1857 59.5757C93.1126 59.5711 93.0475 59.5303 93.0106 59.4671L91.803 57.3694L87.5611 57.3523C86.7973 57.349 86.1784 56.7259 86.1817 55.9626L86.2139 47.9377C86.2172 47.1764 86.8381 46.5592 87.5987 46.5592C87.6006 46.5592 87.6026 46.5592 87.6046 46.5592L109.743 46.648C110.507 46.6513 111.126 47.2744 111.122 48.0377L111.09 56.0627C111.089 56.4324 110.943 56.7792 110.68 57.0398C110.419 57.299 110.073 57.4412 109.705 57.4412C109.703 57.4412 109.701 57.4412 109.699 57.4412L94.98 57.3819L93.3727 59.4902C93.3319 59.5448 93.2674 59.5764 93.1996 59.5764ZM87.5993 46.9948C87.0778 46.9948 86.6525 47.4179 86.6505 47.939L86.6182 55.964C86.6162 56.4871 87.0403 56.9141 87.5631 56.9161L91.93 56.9338C92.0077 56.9338 92.0795 56.976 92.1184 57.0431L93.2252 58.9651L94.6995 57.0312C94.741 56.9766 94.8108 56.9483 94.874 56.945L109.702 57.0042C109.703 57.0042 109.705 57.0042 109.706 57.0042C109.958 57.0042 110.195 56.9069 110.374 56.7292C110.554 56.5509 110.654 56.3133 110.655 56.06L110.687 48.0351C110.689 47.512 110.265 47.0849 109.742 47.083L87.6039 46.9941C87.602 46.9948 87.6006 46.9948 87.5993 46.9948Z" fill="#00539E"/>
<path d="M107.652 53.613H107.652L90.0574 53.5426C89.9369 53.5419 89.8394 53.4439 89.8401 53.3235C89.8407 53.2037 89.9382 53.1063 90.058 53.1063H90.0587L107.653 53.1767C107.773 53.1774 107.871 53.2754 107.87 53.3958C107.869 53.5163 107.772 53.613 107.652 53.613Z" fill="#00539E"/>
<path d="M107.66 51.2632H107.66L103.981 51.2488C103.86 51.2481 103.763 51.1501 103.764 51.0296C103.764 50.9099 103.862 50.8125 103.982 50.8125H103.982L107.661 50.827C107.782 50.8276 107.879 50.9257 107.878 51.0461C107.878 51.1665 107.78 51.2632 107.66 51.2632Z" fill="#00539E"/>
<path d="M101.632 51.2395H101.631L90.0669 51.1935C89.9464 51.1928 89.849 51.0948 89.8496 50.9744C89.8503 50.8539 89.9444 50.7559 90.0682 50.7572L101.633 50.8039C101.753 50.8046 101.851 50.9026 101.85 51.023C101.85 51.1421 101.753 51.2395 101.632 51.2395Z" fill="#00539E"/>
<path d="M73.9792 9.44703V11.728C73.9792 12.8394 73.0784 13.7407 71.967 13.7407C70.8558 13.7407 69.9547 12.8397 69.9547 11.728V5H68V11.8092C68 13.7229 69.551 15.2742 71.4643 15.2742H72.4694C74.3827 15.2742 75.9337 13.7229 75.9337 11.8092V11.3929C75.9337 10.3183 75.0627 9.44703 73.9883 9.44703H73.9792Z" fill="#0080FF"/>
<path d="M75.7936 5H70.9895V11.728C70.9895 12.2679 71.4271 12.7056 71.9668 12.7056C72.5066 12.7056 72.9442 12.2679 72.9442 11.728V6.53355H74.9296C76.0557 6.53355 76.9687 7.44676 76.9687 8.57309V12.0918C76.9687 13.2042 76.1347 14.5093 75.4514 15.1245C77.7645 14.6241 79 12.9243 79 10.9038V8.20707C79 6.43601 77.5643 5 75.7936 5Z" fill="#FFC200"/>
<path d="M74.6881 9.10189C75.2279 9.10189 75.6655 8.66421 75.6655 8.12431C75.6655 7.58441 75.2279 7.14673 74.6881 7.14673C74.1483 7.14673 73.7108 7.58441 73.7108 8.12431C73.7108 8.66421 74.1483 9.10189 74.6881 9.10189Z" fill="#0080FF"/>
</g>
<defs>
<clipPath id="clip0_318_2513">
<rect width="122" height="110" fill="white"/>
</clipPath>
</defs>
</svg>
