<svg width="152" height="41" viewBox="0 0 152 41" fill="none" xmlns="http://www.w3.org/2000/svg">
<g clip-path="url(#clip0_121_776)">
<path d="M23.8606 17.7462V26.8484C23.8606 31.2837 20.2658 34.8803 15.8305 34.8803C11.3962 34.8803 7.80046 31.2847 7.80046 26.8484V0H0V27.1724C0 34.8092 6.18939 41 13.8245 41H17.8356C25.4707 41 31.6601 34.8092 31.6601 27.1724V25.5114C31.6601 21.223 28.184 17.7462 23.8966 17.7462H23.8606Z" fill="#0080FF"/>
<path d="M31.101 0H11.9297V26.8484C11.9297 29.0028 13.676 30.7495 15.8299 30.7495C17.9838 30.7495 19.7301 29.0028 19.7301 26.8484V6.11974H27.6532C32.1469 6.11974 35.7903 9.76394 35.7903 14.2586V28.3003C35.7903 32.7395 32.4621 37.9474 29.7351 40.4025C38.9657 38.4058 43.8962 31.6224 43.8962 23.5594V12.798C43.8962 5.7305 38.167 0 31.101 0Z" fill="#FFC200"/>
<path d="M26.6893 16.3691C28.8433 16.3691 30.5895 14.6225 30.5895 12.468C30.5895 10.3135 28.8433 8.56689 26.6893 8.56689C24.5353 8.56689 22.7891 10.3135 22.7891 12.468C22.7891 14.6225 24.5353 16.3691 26.6893 16.3691Z" fill="#0080FF"/>
<path d="M55.9648 24.0618C55.9648 26.2288 56.3705 28.0641 57.1809 29.5694C57.9913 31.0748 59.1559 32.2162 60.6735 32.9947C62.1912 33.7732 64.0202 34.1624 66.1605 34.1624C68.2745 34.1624 70.0909 33.7732 71.6086 32.9947C73.1262 32.2162 74.2966 31.0748 75.1206 29.5694C75.9446 28.065 76.3562 26.2288 76.3562 24.0618V7.11158L76.0838 6.83911H74.138C73.1262 6.83911 72.3703 7.10184 71.8712 7.62731C71.3722 8.15278 71.1221 8.99255 71.1221 10.1476V24.0812C71.1221 26.0274 70.7203 27.4997 69.9158 28.499C69.1112 29.4984 67.8533 29.9976 66.141 29.9976C64.4288 29.9976 63.1738 29.4984 62.376 28.499C61.5783 27.4997 61.1794 26.0274 61.1794 24.0812V7.05319C60.764 6.97534 60.3262 6.92669 59.866 6.90723C59.4059 6.88777 58.9934 6.87803 58.6305 6.87803C58.2929 6.87803 57.8658 6.88777 57.3463 6.90723C56.8278 6.92669 56.3666 6.97534 55.9648 7.05319V24.0618Z" fill="#0080FF"/>
<path d="M82.4648 7.11133C82.8793 7.03348 83.4085 6.9751 84.0506 6.93617C84.6927 6.89725 85.1957 6.87779 85.5585 6.87779C85.9214 6.87779 86.3884 6.88752 86.9595 6.90698C87.5305 6.92644 88.0812 6.9751 88.6133 7.05294L87.2902 13.0277L86.9205 13.1445C86.9984 14.1565 87.0665 15.2882 87.1248 16.5405C87.1832 17.7929 87.2319 19.0511 87.2708 20.3161C87.3097 21.5811 87.3292 22.7264 87.3292 23.7511V33.6376C86.9011 33.7155 86.4789 33.7641 86.0644 33.7836C85.649 33.8031 85.2735 33.8128 84.9359 33.8128C84.6246 33.8128 84.2384 33.8031 83.7782 33.7836C83.318 33.7641 82.8802 33.7155 82.4648 33.6376V7.11133ZM89.3907 18.5538C88.9363 17.5681 88.5122 16.6077 88.1162 15.6735C87.7202 14.7393 87.3671 13.8762 87.0558 13.0851L84.6236 10.2437L88.6124 7.05197L95.6939 22.1144C96.1871 23.1916 96.6473 24.2328 97.0753 25.238C97.5034 26.2432 97.8789 27.1287 98.2039 27.8945L100.831 30.697L96.5695 33.6357L89.3907 18.5538ZM102.777 7.0724V33.5783C102.505 33.6299 102.171 33.6756 101.775 33.7145C101.379 33.7534 100.99 33.7797 100.608 33.7924C100.225 33.805 99.9035 33.8118 99.6447 33.8118C99.2429 33.8118 98.7691 33.8021 98.2243 33.7826C97.6795 33.7632 97.1279 33.7145 96.5704 33.6367L97.9519 27.9344L98.3605 27.8371C98.2691 26.7083 98.1922 25.489 98.127 24.1783C98.0618 22.8675 98.0171 21.5967 97.9908 20.3638C97.9645 19.1319 97.9519 18.0673 97.9519 17.1721V10.0296C97.9519 8.87456 98.1757 8.05425 98.6232 7.5677C99.0707 7.08116 99.8062 6.83789 100.832 6.83789H102.505L102.777 7.0724Z" fill="#0080FF"/>
<path d="M109.334 7.05309C109.723 6.97524 110.167 6.92658 110.667 6.90712C111.166 6.88766 111.584 6.87793 111.922 6.87793C112.298 6.87793 112.722 6.88766 113.196 6.90712C113.669 6.92658 114.121 6.97524 114.549 7.05309V33.6368C114.121 33.7147 113.669 33.7633 113.196 33.7828C112.722 33.8022 112.298 33.812 111.922 33.812C111.584 33.812 111.166 33.8022 110.667 33.7828C110.167 33.7633 109.723 33.7147 109.334 33.6368V7.05309Z" fill="#0080FF"/>
<path d="M141.765 20.3445C141.765 21.8625 141.661 23.3192 141.454 24.7136C141.246 26.1081 140.841 27.4091 140.238 28.6157C139.635 29.8223 138.723 30.9054 137.504 31.8658C136.92 32.3329 136.22 32.7124 135.403 33.0043C134.585 33.2962 133.749 33.5103 132.893 33.6465C132.037 33.7828 131.251 33.8509 130.538 33.8509C129.461 33.8509 128.437 33.8441 127.464 33.8314C126.491 33.8188 125.512 33.7993 124.526 33.7731C123.54 33.7468 122.483 33.7215 121.354 33.6952L121.082 33.4227V7.26716L121.354 6.9947C122.47 6.95578 123.52 6.92658 124.507 6.90712C125.492 6.88766 126.475 6.87793 127.454 6.87793C128.434 6.87793 129.461 6.87793 130.538 6.87793C131.251 6.87793 132.039 6.94313 132.902 7.07255C133.764 7.20197 134.605 7.41021 135.422 7.69532C136.239 7.98044 136.933 8.35702 137.504 8.8241C138.71 9.78454 139.615 10.8705 140.218 12.0839C140.822 13.2974 141.23 14.6013 141.444 15.9957C141.659 17.3902 141.765 18.8391 141.765 20.3445ZM136.377 20.3445C136.377 19.2682 136.305 18.1784 136.162 17.0749C136.019 15.9724 135.751 14.9633 135.355 14.0486C134.959 13.1339 134.375 12.3944 133.604 11.83C132.832 11.2656 131.811 10.9834 130.539 10.9834C129.8 10.9834 129.102 10.9766 128.448 10.9639C127.793 10.9513 127.076 10.9445 126.298 10.9445V29.724C127.076 29.7114 127.793 29.7075 128.448 29.7143C129.102 29.7211 129.8 29.724 130.539 29.724C131.81 29.724 132.832 29.4418 133.604 28.8775C134.375 28.3131 134.959 27.5667 135.355 26.6394C135.751 25.712 136.019 24.6971 136.162 23.5936C136.305 22.4921 136.377 21.408 136.377 20.3445Z" fill="#0080FF"/>
<path d="M146.785 7.05309C147.174 6.97524 147.618 6.92658 148.118 6.90712C148.617 6.88766 149.035 6.87793 149.373 6.87793C149.749 6.87793 150.174 6.88766 150.647 6.90712C151.12 6.92658 151.572 6.97524 152 7.05309V33.6368C151.572 33.7147 151.12 33.7633 150.647 33.7828C150.174 33.8022 149.749 33.812 149.373 33.812C149.035 33.812 148.617 33.8022 148.118 33.7828C147.618 33.7633 147.174 33.7147 146.785 33.6368V7.05309Z" fill="#0080FF"/>
</g>
<defs>
<clipPath id="clip0_121_776">
<rect width="152" height="41" fill="white"/>
</clipPath>
</defs>
</svg>
