<svg width="44" height="41" viewBox="0 0 44 41" fill="none" xmlns="http://www.w3.org/2000/svg">
<path d="M23.8606 17.7462V26.8484C23.8606 31.2837 20.2658 34.8803 15.8305 34.8803C11.3962 34.8803 7.80046 31.2847 7.80046 26.8484V0H0V27.1724C0 34.8092 6.18939 41 13.8245 41H17.8356C25.4707 41 31.6601 34.8092 31.6601 27.1724V25.5114C31.6601 21.223 28.184 17.7462 23.8966 17.7462H23.8606Z" fill="#0080FF"/>
<path d="M31.101 0H11.9297V26.8484C11.9297 29.0028 13.676 30.7495 15.8299 30.7495C17.9838 30.7495 19.7301 29.0028 19.7301 26.8484V6.11974H27.6532C32.1469 6.11974 35.7903 9.76394 35.7903 14.2586V28.3003C35.7903 32.7395 32.4621 37.9474 29.7351 40.4025C38.9657 38.4058 43.8962 31.6224 43.8962 23.5594V12.798C43.8962 5.7305 38.167 0 31.101 0Z" fill="#FFC200"/>
<path d="M26.6893 16.3691C28.8433 16.3691 30.5895 14.6225 30.5895 12.468C30.5895 10.3135 28.8433 8.56689 26.6893 8.56689C24.5353 8.56689 22.7891 10.3135 22.7891 12.468C22.7891 14.6225 24.5353 16.3691 26.6893 16.3691Z" fill="#0080FF"/>
</svg>
